<svg version="1.1" id="Layer_1" xmlns="http://www.w3.org/2000/svg" xmlns:xlink="http://www.w3.org/1999/xlink" x="0px" y="0px" enable-background="new 0 0 470 470" viewBox="43.33 43.05 427.45 427.67"> <path fill="#1F97F8" opacity="1.000000" stroke="none" d=" M355.000061,43.107170  	C378.660034,43.107765 401.820404,43.022320 424.979828,43.133801  	C446.964935,43.239628 464.074219,56.578381 469.364838,77.791718  	C470.357422,81.771683 470.719971,86.004875 470.722565,90.121628  	C470.792664,201.256058 470.793976,312.390564 470.764130,423.525055  	C470.757965,446.551819 457.606567,463.952881 436.061523,469.232788  	C431.757874,470.287476 427.167816,470.540283 422.709473,470.543030  	C312.241486,470.611694 201.773193,470.460693 91.305679,470.694733  	C64.432587,470.751648 48.563477,453.723022 44.585625,435.895416  	C43.654526,431.722534 43.511131,427.307373 43.508995,423.003418  	C43.454014,312.202209 43.602203,201.400665 43.360825,90.599945  	C43.307114,65.945000 58.407288,49.081642 77.321495,44.707275  	C81.949295,43.636990 86.818535,43.176670 91.577515,43.171875  	C179.218277,43.083557 266.859161,43.107197 355.000061,43.107170  M160.361404,279.950928  	C164.337646,255.119934 168.313873,230.288925 172.468231,204.345627  	C174.148087,206.762711 175.113800,208.084686 176.010147,209.452133  	C188.972946,229.227829 202.241852,248.813950 214.703445,268.900848  	C218.817902,275.532990 223.235718,278.412231 231.006607,277.598022  	C234.914963,277.188538 237.197632,276.129822 239.314880,272.825958  	C252.970779,251.516602 266.848450,230.349319 280.664185,209.142502  	C281.535248,207.805450 282.497894,206.528046 283.745026,204.758850  	C284.226624,206.559753 284.627808,207.659195 284.808441,208.793762  	C290.198914,242.653427 295.630157,276.506958 300.844604,310.393799  	C301.375549,313.843933 302.621948,314.823425 305.915405,314.727997  	C312.907990,314.525391 319.910583,314.666473 326.909058,314.666565  	C333.524719,314.666626 340.140381,314.666565 347.219635,314.666565  	C346.990662,312.204590 346.938812,310.393188 346.640778,308.623260  	C335.808258,244.290558 324.933594,179.964951 314.118439,115.629356  	C312.205017,104.247047 312.308594,104.424400 300.608368,104.134315  	C296.427399,104.030663 294.079071,105.365463 291.833344,108.912682  	C271.882904,140.425323 251.720901,171.804031 231.612076,203.216339  	C230.655334,204.710876 229.611633,206.149765 228.315353,208.042480  	C227.056793,206.132629 226.043518,204.633362 225.068436,203.109650  	C206.041733,173.377060 186.711594,143.831085 168.212357,113.773758  	C163.576645,106.241714 158.641846,103.060822 150.010040,104.061302  	C146.164108,104.507065 143.770691,104.769737 143.633698,109.338264  	C143.534943,112.631287 142.572006,115.896332 142.019943,119.178123  	C132.495117,175.799362 122.967636,232.420151 113.459785,289.044250  	C112.064529,297.353699 110.766846,305.679535 109.361130,314.387329  	C124.967438,314.387329 139.735901,314.387329 154.625046,314.387329  	C154.893814,313.295410 155.197906,312.353241 155.352386,311.387115  	C156.981537,301.197815 158.586807,291.004639 160.361404,279.950928  M407.303192,271.121033  	C406.311920,270.513702 405.347687,269.856018 404.325195,269.306763  	C393.939209,263.727814 381.187744,265.775391 373.193481,274.287598  	C364.913574,283.103943 363.672821,295.785645 370.084656,306.062042  	C376.196350,315.857391 388.633484,320.578949 399.690002,316.973206  	C409.300781,313.838898 415.498199,307.153656 417.495392,297.250427  	C419.586426,286.881927 416.015869,278.281586 407.303192,271.121033  M335.884583,392.504333  	C335.884583,387.509583 335.884583,382.514832 335.884583,377.520081  	C342.418365,386.464233 348.084656,395.609711 353.742371,404.760498  	C357.579865,410.967285 358.457825,411.306824 365.715820,409.308777  	C365.715820,395.052734 365.715820,380.796692 365.715820,366.330933  	C363.549713,366.330933 361.653961,366.330933 359.221863,366.330933  	C359.221863,377.241241 359.221863,387.885254 359.221863,398.529266  	C352.591858,389.657654 346.510101,380.759521 341.425842,371.323853  	C338.480682,365.858063 334.740723,365.310303 329.453308,366.492584  	C329.453308,380.985291 329.453308,395.368713 329.453308,409.755859  	C331.687653,409.755859 333.587158,409.755859 335.884583,409.755859  	C335.884583,404.104340 335.884583,398.802826 335.884583,392.504333  M402.115295,392.435913  	C404.359009,392.548157 406.602753,392.660400 408.866150,392.773651  	C408.866150,396.758453 408.866150,400.160278 408.866150,403.715729  	C401.806793,405.098450 394.930176,405.866669 390.570312,399.217438  	C386.244781,392.620605 386.118286,385.008698 390.231110,378.383362  	C395.979767,369.122803 404.921204,371.447479 413.625244,373.828033  	C414.401428,371.859222 415.092133,370.107300 415.882446,368.102692  	C413.910736,367.437988 412.382599,366.802155 410.794617,366.406189  	C395.405884,362.568970 382.941437,369.450226 380.376953,383.159821  	C378.015930,395.781830 383.639282,407.801758 393.947998,409.618744  	C400.282867,410.735321 407.060059,409.502350 413.617004,409.026520  	C414.592773,408.955688 416.204102,407.270416 416.239136,406.286377  	C416.473755,399.693390 416.361145,393.088074 416.361145,386.524963  	C410.580292,386.524963 405.501221,386.524963 399.594696,386.524963  	C400.258087,388.813171 400.763367,390.555969 402.115295,392.435913  M227.672638,366.054993  	C224.649139,365.605927 223.566986,366.852631 223.676407,369.929443  	C223.877289,375.578735 223.731781,381.240326 223.731461,386.896790  	C223.731033,394.493042 223.731354,402.089264 223.731354,409.770264  	C226.428543,409.770264 228.479248,409.770264 230.987045,409.770264  	C230.987045,404.017609 230.987045,398.590668 230.987045,393.277435  	C235.612335,391.837219 238.745758,392.585052 240.698395,397.002319  	C241.965515,399.868805 244.219376,402.307220 245.425827,405.190704  	C247.514801,410.183563 251.026077,410.991058 256.203888,409.551117  	C252.248566,403.203491 248.434509,397.082550 244.586700,390.907440  	C245.544510,390.249969 246.067642,389.853943 246.625046,389.514130  	C251.592361,386.485779 253.586472,382.059357 252.605988,376.376984  	C251.642853,370.795135 248.580109,367.790436 242.041229,366.789856  	C237.637268,366.115906 233.106552,366.270325 227.672638,366.054993  M206.982361,366.062927  	C199.697098,366.062927 192.411835,366.062927 184.977386,366.062927  	C184.977386,380.971375 184.977386,395.367523 184.977386,409.801025  	C193.241989,409.801025 201.159576,409.801025 209.190125,409.801025  	C209.190125,407.761230 209.190125,406.034637 209.190125,403.773163  	C203.256073,403.773163 197.679535,403.773163 192.286804,403.773163  	C192.286804,398.986664 192.286804,394.746765 192.286804,390.047607  	C197.754654,390.047607 202.845581,390.047607 208.001251,390.047607  	C208.001251,387.835693 208.001251,386.101410 208.001251,383.934082  	C202.535522,383.934082 197.432709,383.934082 192.335556,383.934082  	C192.335556,379.792725 192.335556,376.103119 192.335556,371.984619  	C198.199524,371.984619 203.630402,371.984619 210.288986,371.984619  	C209.270004,369.514984 208.565018,367.806366 206.982361,366.062927  M161.495850,372.140747  	C164.286865,372.140747 167.077881,372.140747 170.148468,372.140747  	C170.148468,369.964417 170.148468,368.237457 170.148468,366.287048  	C161.937897,366.287048 154.036133,366.287048 145.838013,366.287048  	C145.838013,380.903168 145.838013,395.291565 145.838013,409.890808  	C154.025314,409.890808 161.945419,409.890808 170.161591,409.890808  	C170.161591,407.941589 170.161591,406.207703 170.161591,403.932220  	C164.359085,403.932220 158.798813,403.932220 153.146378,403.932220  	C153.146378,399.153137 153.146378,394.918091 153.146378,390.016968  	C158.627396,390.016968 163.834808,390.016968 169.315521,390.016968  	C169.171753,387.739380 169.071396,386.149445 168.940643,384.078094  	C163.526398,384.078094 158.444565,384.078094 153.244843,384.078094  	C153.244843,379.875061 153.244843,376.188324 153.244843,372.140747  	C155.938019,372.140747 158.239471,372.140747 161.495850,372.140747  M115.811569,403.810699  	C115.483925,401.100677 114.905556,398.393585 114.873688,395.680115  	C114.758980,385.913239 114.828629,376.144196 114.828629,366.353516  	C112.024963,366.353516 109.948547,366.353516 107.784584,366.353516  	C107.784584,381.050323 107.784584,395.422791 107.784584,409.824768  	C116.432671,409.824768 124.672256,409.824768 133.011536,409.824768  	C133.011536,407.748962 133.011536,405.994843 133.011536,403.934753  	C127.394257,403.934753 122.078072,403.934753 115.811569,403.810699  M273.280640,366.105896  	C271.541473,366.105896 269.802277,366.105896 268.088684,366.105896  	C268.088684,381.122009 268.088684,395.358795 268.088684,409.843628  	C276.597473,409.843628 284.820129,409.843628 293.310089,409.843628  	C293.310089,407.862091 293.310089,406.142365 293.310089,403.897339  	C287.117584,403.897339 281.221313,403.897339 274.963806,403.897339  	C274.963806,394.259430 275.031342,385.142395 274.927643,376.027313  	C274.890686,372.777954 274.438599,369.533295 273.280640,366.105896  M305.863281,370.682831  	C305.863281,383.759796 305.863281,396.836761 305.863281,409.842224  	C308.626862,409.842224 310.570251,409.842224 312.682495,409.842224  	C312.682495,395.204987 312.682495,380.818726 312.682495,366.012665  	C309.860352,366.865631 305.538910,363.716827 305.863281,370.682831  z"></path> <path fill="#FDFEFF" opacity="1.000000" stroke="none" d=" M160.280029,280.381744  	C158.586807,291.004639 156.981537,301.197815 155.352386,311.387115  	C155.197906,312.353241 154.893814,313.295410 154.625046,314.387329  	C139.735901,314.387329 124.967438,314.387329 109.361130,314.387329  	C110.766846,305.679535 112.064529,297.353699 113.459785,289.044250  	C122.967636,232.420151 132.495117,175.799362 142.019943,119.178123  	C142.572006,115.896332 143.534943,112.631287 143.633698,109.338264  	C143.770691,104.769737 146.164108,104.507065 150.010040,104.061302  	C158.641846,103.060822 163.576645,106.241714 168.212357,113.773758  	C186.711594,143.831085 206.041733,173.377060 225.068436,203.109650  	C226.043518,204.633362 227.056793,206.132629 228.315353,208.042480  	C229.611633,206.149765 230.655334,204.710876 231.612076,203.216339  	C251.720901,171.804031 271.882904,140.425323 291.833344,108.912682  	C294.079071,105.365463 296.427399,104.030663 300.608368,104.134315  	C312.308594,104.424400 312.205017,104.247047 314.118439,115.629356  	C324.933594,179.964951 335.808258,244.290558 346.640778,308.623260  	C346.938812,310.393188 346.990662,312.204590 347.219635,314.666565  	C340.140381,314.666565 333.524719,314.666626 326.909058,314.666565  	C319.910583,314.666473 312.907990,314.525391 305.915405,314.727997  	C302.621948,314.823425 301.375549,313.843933 300.844604,310.393799  	C295.630157,276.506958 290.198914,242.653427 284.808441,208.793762  	C284.627808,207.659195 284.226624,206.559753 283.745026,204.758850  	C282.497894,206.528046 281.535248,207.805450 280.664185,209.142502  	C266.848450,230.349319 252.970779,251.516602 239.314880,272.825958  	C237.197632,276.129822 234.914963,277.188538 231.006607,277.598022  	C223.235718,278.412231 218.817902,275.532990 214.703445,268.900848  	C202.241852,248.813950 188.972946,229.227829 176.010147,209.452133  	C175.113800,208.084686 174.148087,206.762711 172.468231,204.345627  	C168.313873,230.288925 164.337646,255.119934 160.280029,280.381744  z"></path> <path fill="#FD8407" opacity="1.000000" stroke="none" d=" M407.582764,271.349060  	C416.015869,278.281586 419.586426,286.881927 417.495392,297.250427  	C415.498199,307.153656 409.300781,313.838898 399.690002,316.973206  	C388.633484,320.578949 376.196350,315.857391 370.084656,306.062042  	C363.672821,295.785645 364.913574,283.103943 373.193481,274.287598  	C381.187744,265.775391 393.939209,263.727814 404.325195,269.306763  	C405.347687,269.856018 406.311920,270.513702 407.582764,271.349060  z"></path> <path fill="#F4FAFF" opacity="1.000000" stroke="none" d=" M335.884583,393.002808  	C335.884583,398.802826 335.884583,404.104340 335.884583,409.755859  	C333.587158,409.755859 331.687653,409.755859 329.453308,409.755859  	C329.453308,395.368713 329.453308,380.985291 329.453308,366.492584  	C334.740723,365.310303 338.480682,365.858063 341.425842,371.323853  	C346.510101,380.759521 352.591858,389.657654 359.221863,398.529266  	C359.221863,387.885254 359.221863,377.241241 359.221863,366.330933  	C361.653961,366.330933 363.549713,366.330933 365.715820,366.330933  	C365.715820,380.796692 365.715820,395.052734 365.708557,409.309631  	C358.457825,411.306824 357.579865,410.967285 353.742371,404.760498  	C348.084656,395.609711 342.418365,386.464233 335.884583,377.520081  	C335.884583,382.514832 335.884583,387.509583 335.884583,393.002808  z"></path> <path fill="#F5FAFF" opacity="1.000000" stroke="none" d=" M401.691956,392.367371  	C400.763367,390.555969 400.258087,388.813171 399.594696,386.524963  	C405.501221,386.524963 410.580292,386.524963 416.361145,386.524963  	C416.361145,393.088074 416.473755,399.693390 416.239136,406.286377  	C416.204102,407.270416 414.592773,408.955688 413.617004,409.026520  	C407.060059,409.502350 400.282867,410.735321 393.947998,409.618744  	C383.639282,407.801758 378.015930,395.781830 380.376953,383.159821  	C382.941437,369.450226 395.405884,362.568970 410.794617,366.406189  	C412.382599,366.802155 413.910736,367.437988 415.882446,368.102692  	C415.092133,370.107300 414.401428,371.859222 413.625244,373.828033  	C404.921204,371.447479 395.979767,369.122803 390.231110,378.383362  	C386.118286,385.008698 386.244781,392.620605 390.570312,399.217438  	C394.930176,405.866669 401.806793,405.098450 408.866150,403.715729  	C408.866150,400.160278 408.866150,396.758453 408.866150,392.773651  	C406.602753,392.660400 404.359009,392.548157 401.691956,392.367371  z"></path> <path fill="#F8FCFF" opacity="1.000000" stroke="none" d=" M228.152588,366.054565  	C233.106552,366.270325 237.637268,366.115906 242.041229,366.789856  	C248.580109,367.790436 251.642853,370.795135 252.605988,376.376984  	C253.586472,382.059357 251.592361,386.485779 246.625046,389.514130  	C246.067642,389.853943 245.544510,390.249969 244.586700,390.907440  	C248.434509,397.082550 252.248566,403.203491 256.203888,409.551117  	C251.026077,410.991058 247.514801,410.183563 245.425827,405.190704  	C244.219376,402.307220 241.965515,399.868805 240.698395,397.002319  	C238.745758,392.585052 235.612335,391.837219 230.987045,393.277435  	C230.987045,398.590668 230.987045,404.017609 230.987045,409.770264  	C228.479248,409.770264 226.428543,409.770264 223.731354,409.770264  	C223.731354,402.089264 223.731033,394.493042 223.731461,386.896790  	C223.731781,381.240326 223.877289,375.578735 223.676407,369.929443  	C223.566986,366.852631 224.649139,365.605927 228.152588,366.054565  M230.919403,377.605835  	C230.919403,380.512360 230.919403,383.418884 230.919403,386.784027  	C236.143524,386.302460 241.378174,387.915680 244.148056,383.061188  	C245.284546,381.069366 245.259933,377.060638 243.960068,375.303497  	C240.861938,371.115417 235.903549,372.009033 231.150299,372.489502  	C231.062561,374.079987 230.991135,375.374634 230.919403,377.605835  z"></path> <path fill="#F9FCFF" opacity="1.000000" stroke="none" d=" M207.421204,366.080322  	C208.565018,367.806366 209.270004,369.514984 210.288986,371.984619  	C203.630402,371.984619 198.199524,371.984619 192.335556,371.984619  	C192.335556,376.103119 192.335556,379.792725 192.335556,383.934082  	C197.432709,383.934082 202.535522,383.934082 208.001251,383.934082  	C208.001251,386.101410 208.001251,387.835693 208.001251,390.047607  	C202.845581,390.047607 197.754654,390.047607 192.286804,390.047607  	C192.286804,394.746765 192.286804,398.986664 192.286804,403.773163  	C197.679535,403.773163 203.256073,403.773163 209.190125,403.773163  	C209.190125,406.034637 209.190125,407.761230 209.190125,409.801025  	C201.159576,409.801025 193.241989,409.801025 184.977386,409.801025  	C184.977386,395.367523 184.977386,380.971375 184.977386,366.062927  	C192.411835,366.062927 199.697098,366.062927 207.421204,366.080322  z"></path> <path fill="#FAFDFF" opacity="1.000000" stroke="none" d=" M161.018387,372.140747  	C158.239471,372.140747 155.938019,372.140747 153.244843,372.140747  	C153.244843,376.188324 153.244843,379.875061 153.244843,384.078094  	C158.444565,384.078094 163.526398,384.078094 168.940643,384.078094  	C169.071396,386.149445 169.171753,387.739380 169.315521,390.016968  	C163.834808,390.016968 158.627396,390.016968 153.146378,390.016968  	C153.146378,394.918091 153.146378,399.153137 153.146378,403.932220  	C158.798813,403.932220 164.359085,403.932220 170.161591,403.932220  	C170.161591,406.207703 170.161591,407.941589 170.161591,409.890808  	C161.945419,409.890808 154.025314,409.890808 145.838013,409.890808  	C145.838013,395.291565 145.838013,380.903168 145.838013,366.287048  	C154.036133,366.287048 161.937897,366.287048 170.148468,366.287048  	C170.148468,368.237457 170.148468,369.964417 170.148468,372.140747  	C167.077881,372.140747 164.286865,372.140747 161.018387,372.140747  z"></path> <path fill="#EFF7FF" opacity="1.000000" stroke="none" d=" M116.286728,403.872742  	C122.078072,403.934753 127.394257,403.934753 133.011536,403.934753  	C133.011536,405.994843 133.011536,407.748962 133.011536,409.824768  	C124.672256,409.824768 116.432671,409.824768 107.784584,409.824768  	C107.784584,395.422791 107.784584,381.050323 107.784584,366.353516  	C109.948547,366.353516 112.024963,366.353516 114.828629,366.353516  	C114.828629,376.144196 114.758980,385.913239 114.873688,395.680115  	C114.905556,398.393585 115.483925,401.100677 116.286728,403.872742  z"></path> <path fill="#FCFDFF" opacity="1.000000" stroke="none" d=" M273.728333,366.196198  	C274.438599,369.533295 274.890686,372.777954 274.927643,376.027313  	C275.031342,385.142395 274.963806,394.259430 274.963806,403.897339  	C281.221313,403.897339 287.117584,403.897339 293.310089,403.897339  	C293.310089,406.142365 293.310089,407.862091 293.310089,409.843628  	C284.820129,409.843628 276.597473,409.843628 268.088684,409.843628  	C268.088684,395.358795 268.088684,381.122009 268.088684,366.105896  	C269.802277,366.105896 271.541473,366.105896 273.728333,366.196198  z"></path> <path fill="#FEFEFF" opacity="1.000000" stroke="none" d=" M305.864136,370.207031  	C305.538910,363.716827 309.860352,366.865631 312.682495,366.012665  	C312.682495,380.818726 312.682495,395.204987 312.682495,409.842224  	C310.570251,409.842224 308.626862,409.842224 305.863281,409.842224  	C305.863281,396.836761 305.863281,383.759796 305.864136,370.207031  z"></path> <path fill="#269AF9" opacity="1.000000" stroke="none" d=" M230.919556,377.137573  	C230.991135,375.374634 231.062561,374.079987 231.150299,372.489502  	C235.903549,372.009033 240.861938,371.115417 243.960068,375.303497  	C245.259933,377.060638 245.284546,381.069366 244.148056,383.061188  	C241.378174,387.915680 236.143524,386.302460 230.919403,386.784027  	C230.919403,383.418884 230.919403,380.512360 230.919556,377.137573  z"></path> </svg>