<svg xmlns="http://www.w3.org/2000/svg" width="293.6" height="289.1" style="width:293.556px;height:289.063px;position:absolute;top:50%;left:50%;transform:translate(-50%,-50%) scale(1);z-index:0;cursor:pointer;overflow:visible"><g xmlns="http://www.w3.org/2000/svg" fill="#48466d"><path d="m66.3 24.2.4.4h.7c-.2-.5-.7-.7-.8-.8l-.4-.2c-.5-.5-.1 0-.5.1l-.1-.2c-.3-.2-1 .7-.6 1 .5.1.9-.3 1.3-.3zm-3.3 0c.3 0 0-.3 0-.5-.2.2-.3 0-.5.2.2.5.5-.2.5.3zm.3.6c-.7.3.5.6 0 0zm-.5 1.3c-.1-.3-.7-.2-.6 0 .2 0 .4.3.6 0zm-3.3.6.1-.7c.2-.3.5-.3.1-.6-.5 0-.2.8-.6 1 0 0-.5-.6-.5-.2 0 .5 0 1 .3 1.4.4-.1.4-.6.6-.9zm.3 2.8.1.2c.1 0 .2-.3.4-.3 0 0 .2.1.4 0 .3-.1.3-.5.7-.5-.1-.3-.3 0-.4 0-.3 0-.6-.3-1-.3h-.4l-.6-.1c-.2 0-.2.3-.2.4-.3.2-1 .3-1.2.8a2.7 2.7 0 0 1 .9-.1l.9.1.4-.2zm-1-.4c.1 0 0 0 0-.1.4-.2.4.7 0 .1zm0 1.6c.8-.4-.5-.7 0 0zM57 28c.2.1.3.2.5 0-.2-.3-.4-.3-.6-.2-.2.2-.3.1-.5.4.2.2.6 0 .6-.2z"/><path d="M56.7 29c.4.3.8-.4 1.3-.5l.2.2.3-.2c.2 0 .4.2.5-.1-.1-.3-.3-.2-.5-.3H58c-.2 0-.2.2-.4.4h-.5c-.3.1-.4.2-.5.4l-.2-.2c-.2.1-.2.3 0 .5l.3-.2zm.5 3.3c.6.2 1.3-.3 1.2-.7 0-.5-1.2-.5-1.3-.8-.2-.4.5-.5-.1-.7a4.3 4.3 0 0 0-1.7 1c.3.2.8.2 1.2.5l.7.7zm-1.3-3c-.2.3-.7.1-.6.4.1 0 1 0 .6-.4zm-1.1.6c1 0-.3-1 0 0zm30.6-14.7c-.4.1-.6.4-.4.8.3-.2.4-.5.4-.8zM53.7 30.9c-.3 0-.4.1-.1.4.1-.1.1-.3 0-.4z"/><path d="M52.5 32.5c.2-.2.4-.1.5-.2 0-.1 0-.5.2-.7.2-.3.5-.3.1-.7-.5.3-.4.8-.7 1h-.3c-.1.3.2.3 0 .6h-.5c-.3.2-.4.5-.5.8.1-.2.5-.2.8-.3l.4-.5zm2.7.9h-.5l-.3-.4-.4.1c-.4.2-.6.2-.9.2-.4 0-.3.4-.5.6l-.2.4h.3v.7c-.2.3-.7.3-.7.5.1.3.2.1.4 0l1-.7h.7c.1-.1.2-.4.5-.4h.2a1.4 1.4 0 0 0 1-.2c0-.4-.2 0-.5-.3 0-.1.1-.3-.1-.5zM49.3 35c-.3 0-.3.5-.3.8.3 0 .3-.6.3-.8zm-.6 4.8s-.2.4 0 .3c.1-.1.2-.4 0-.3zm-6.9 5.7c-.2.2-.4 0-.5 0l-.2.4s-.3-.3-.3 0c.4.4 1.5.3 1-.4zm-13.4 9.8c0 .1-.2.3-.1.4.1 0 .5-.2 0-.4zm-2 8.6 1-.4-.2-.3a2.7 2.7 0 0 0-1-.4c-.5.2-.3.9.2 1.1zm-.2-4.4c-.3-.1.6-.2 0-.5-.2.2-.4.7 0 .5zm.5.3h-.3.3zm-.7 0c-.3-.3-.4 0-.6 0 .3.4.4-.1.6 0zm-10 9 .5.2c.3-.4-.3-.5-.5-.3zM17.4 79s-.3 0-.3.2.7 0 .3-.2zm-7 17.3c-.5-.3-.6 0-.9.2.5.2.8 0 1-.2zM9.1 99c.5-.3.7-1.3 1-1.5-.3-.4-1 .4-1 .4l-.3-.2c-.2.3 0 .4.1.8 0 .2-.3.4.2.5zm.4 1.4L9 100c-.1-.1.1-.4-.1-.5-.3.2 0 .7-.3 1 .4.2.7 0 .8-.2zm-1.1 1.3.4.5c.5-.2 0-1.2-.4-.5zm.4 2.2c.1-.3.2-.6-.1-.7-.1.3-.3.6.1.7zm-2.2.8c-.2.1-.3.3-.1.4.5.4.6-.7.1-.4zm-1.4 7.6a1 1 0 0 0-.6-.3c-.3.3.6.4.6.3zm-1.5 1.4c.4-.1.2-1-.2-.7-.4.2 0 .7.2.7zm1.4 2.7c0 .3-.4.2-.5.4 0 .2.1.7.7.8 0-.5.2-.7.3-1-.2-.1-.2-.2-.5-.2zm-1.7 2.5c.1.2.4 0 .6 0 .1.2 0 .5.4.5.2-.5.5-.7 0-1l-.2.2c-.3 0-.9 0-.8.3zm1.7.2c-.2.5-.1.8.5.9 0-.4 0-.9-.5-.9z"/><path d="M5.2 121.4c.3-.3.6-.6.6-1.2-.3-.6-1.2.5-1.2.4 0 .4.3.5.6.8zm-1.1-.7c-.4 1.2 1 .3 0 0zm-1.5 11.8h-.4v.3c.3.1.2-.2.4-.3zm-.1 8.5c0-.4.3-.6-.1-.7l-.6.1c-.1.2.3.5.7.6zM22.8 65c-.4 0-.4-.6-.7-.6-.4 0-.6.6-.5.7.3.4.8.3 1.2 0zm-5.1 3.6c-.4-.2-.7 0-1 .1.4.1.8.2 1 0zm0 1h-.5.5zm-.4.4c-.6-.5-.3.4 0 0zm.3.9c0 .2.4.2.3 0h-.3zM15 74.7c-.5 0-.2.5 0 .7.2-.3 0-.5 0-.7zm-1.4 4.5c-.2 0-.3.4 0 .5.3.1.7-.6 0-.5zm-.7 6.1c.4-.5-.5-.7-.8-.6l.8.6zm84.4-71.8-.2-.2c-.2 0 .1.3.2.2zm-.4-.6h-.4c.1.6.7.3.4 0zm-1 .6c.4-.1 0-.2 0-.4s.4-.2.2-.5c-.2-.4-.3.5-.4.2l.1-.5s.2.2.2 0l-.1-.9c-.2-.5-.6-.2-.8-.5 0-.3.3-.5.1-.9-.2 0-.3.2-.4.4l-.1.2-.3.1.5 2c.2.3.9.9 1 .8zm-3.3.6.1.4s0-.5-.1-.4zm-7.9 1.4c-.5-.2 0 .6 0 1 .6-.4-.3-.7 0-1zM59.6 28c-.1 0-.4-.5-.5 0l.5.4c.3.1.3-.1.6-.1l.5.3h.2l1 .2.8-.4c.1-.2 0-.5.2-.6.1-.1.3 0 .4-.2l.4-.7c.3-.4.8-.6 1-1.2-.5-.2-.8-.2-1.2-.1.1 0 0 .4-.2.4.7.8-.5.7 0 0l-.2-.1-.8.6c.2.3.5 0 .8.4-.4.5-.4 0-.7.3-.3.1-.6.6-.9 0-.2 0 0 .3-.2.4l-.4.2c-.7.2-.5 0-1.1 0l-.1.2zM28.5 55.9c.2-.3.8 0 1-.2 0-.2 0-.7-.2-.7l-.2.1c-.6 0-.1.1-.5.6 0 0-.3 0-.1.2zm2.3 1c.2 0 .1.3.1.4l1 .7c.4 0 .3-1 .6-1.2h-1.5c0-.2-.2-.6-.4-.4v.7c.3.2.1 0 .2-.2zm-6.5 2.8s-.1 0 0-.1c0 0 .1.1.2 0-.2 0-.4-.3-.5-.2.2 0 0 .6.3.3zm-6.3 11h.5l-.2.1c-.1.3.3.1.4.3v-.6l.2-.2h.1c0 .2-.1.3 0 .4.2-.1.2-.3.1-.4l.5.4c.3-.3-.1-.4.1-.7.5.5.5.1.8 0 .1-.1.3 0 .4-.2v-.6l-.3-.2v-.5c.1-.6-.4-.4-.5-.6v-.4c-.1-.4-.5-.3-.7-.3-.2.2.1.4 0 .7a1.5 1.5 0 0 0-.4.2c-.2.2 0 .4-.4.6 0 .2.6.3.5.6-.3.1-.4.5-.5.8l-.3-.2v.1s-.6 0-.7.2c.4.2.1.4.4.5zM15.4 75h.2c.1-.5.4.4.7 0v-.3l-1 .1s.1.1 0 .2z"/><path d="M11.2 82c.7.1.8.7 1.2.8l.5-.2c-.2.2 0 .6 0 .7-.3.2-.4 0-.6.2a2.2 2.2 0 0 0 .3.1h-.3c-.1.1 0 .4 0 .4s-.6 0-.5.4c.4 0 1 .6 1.5.3-.4-.4-.7-.4-.7-.8l.8-.1h.2c.2-.1 0-.4 0-.5 0-.4 0-.5-.3-.7h.8l.3.2c.2 0 0-.8.5-1 0 0 .2.4.3.2-.3-.7.2-1.1.3-1.7l-.2-.2.2-.3-.1-.7c.3 0 1-.1.8-.7-.2-.2-.5-.1-.6-.2a1.8 1.8 0 0 0 0-.2h.2l-.2-.1c0-.2-.5-.3-.7-.3-.2 0-.4.1-.3.5l.3.1c-.4-.1-.4.2-.2.2l-.1.2c-.3.4-.1 1.2-.4 1.6l-.4.1s.2.2 0 .3c-.3.2-.4-.2-.8.2.2.4.6.7.3 1.2-.6-.4-.7-.5-1-.4l-.6.1c-.2.2-1 0-.7.4 0 0 0-.2.2-.2zm-5.8 25.7c-.3-.1-.5 0-.5.1.5.2 1.5 0 1.9-.2-.2.3.4.6.5.4 0-.3-.5-.7-.5-.7 0-.2.4-.2.3-.6H5c-.3.4.4.1.3.4 0 .2-.7 0-.5.5.2 0 .5-.3.6 0zm282.7 32c.1.3 0 .5-.4.5-.3 0-.1-.4-.4 0-.2.3-.4.4 0 .9.2.1.3-.2.6-.3h.8l.9-.7-1 .2c-.3-.2-.2-.6-.5-.6zm1.5-3.9c-.6 0-.8.4-1.3.3-.3 0-.3-.6-.8-.6 0 .2-.2.2-.4.5v.7c-.2.3-.4.4-.4.6 0 0 0 .6.1.4 0-.5.3-.7.5-.9h.5c.4 0 .3-.3.6-.1.1 0 0 0 0 0 .7 0 .6 0 .7-.3.1-.2.7-.3.5-.6zm3.6 15.4s.4.2.3 0c0-.2-.4-.2-.3 0zm-5.4-20.4c.2-.2-.2-.4-.4-.7 0-.2.3-1.3-.4-.6.4.4-.5 1.5.8 1.3zm1.7 19.5.2-.2c0-.2-.4 0-.2.2zm2.8-1.6c0 .2.2.6 0 .6-.3 0-1.1-.5-1.1 0 .7.3 1.2.2 1.8.5v-1a1 1 0 0 1-.7 0zm-5-21.4c-.5-.3-.6 1-.1.4 0 0 .2-.2 0-.4zm4.4-.4c-.3 0-.3-.4-.7-.3 0 .5.6.6.7.3zm-.7 20c-.1 0-1 0-1 .2.4 0 .6.2 1-.1zm-2.1-22.2h-.5c.4.8-.3 1-.8 1.3.3 0 .1.4.3.5l1.3-.4c0 .4.3.4.5.6.1-.5 0-.7-.1-1l-.3.2a4.5 4.5 0 0 1-.4-1.2zm1.8 1.5c0-.8-.7.1 0 0zm2 18.8.3-.2c-.2-.3-.6.2-.2.2zm-.6-.4-.2-.2c-.4 0-1.4.4-1 .7.2-.4 1.3 0 1.2-.5zm.4-1.3s0-.1-.1 0c-.4 0 0 .4.1 0zm-4-21c-.3-.2-.1-1-.4-1-.4.2-.3 1.1.4 1zm-2.4-2.4c-.8.2 0-.8-1-.6.5.5-.3.5-.3.6v.7c0 .3 0 .7.2 1 .3 0 .3-.3.6-.3l-.2-.5.4-.2v-.3c0-.3.4-.1.3-.4z"/><path d="M286.4 120.6c0-.8-.7.1 0 0zm1.1-1c-.2 0-.1-.3-.5-.1-.1.3.5.4.5.1zm1.4-.6c0 .9.8-.1 0 0zm-3.3-.7c.8 0 0-.5 0 0zm-1.4-1.3c0 .3.2.6.5.6.3-.3 0-.8-.5-.6zm3.7-7.7v-.3l.3-.1.2-.5c0-.2-.4-.4-.6-.6 0 0 .2-.3 0-.5h-.5c.3.9-.4 2.2.6 2zm-3-3.7.1.3c.2 0 .3-.2.4 0 .2.2.1.4.1.7.6-.2.8 0 1.2 0 .3-.5-.4-.3-.5-.6v-.1l.5.2v-.1s-.1-.2 0-.2l.1-.2c.2-.3-.4-.4-.6-.3-.3-.3-.7 0-1.2 0-.2 0-.5-.3-.7 0a1.6 1.6 0 0 0 .4.4h.3z"/><path d="m285 106 .2-.1.2.4h-.3zm-1.7 0c.3-.6-.8.1 0 0zm2.5-1.9c-.2-.2-.4-.5-.8-.3.2.1.3.5.8.3zm-3.6 0c.5.1.2-.6 0 0zm-.1-1.2c.7.5.5-.6 0 0zm.6-2-.2.4.4-.1c0-.2 0-.4-.2-.3zm-1.8-1.2c-.7-.3-.8.4-.6 1 .4-.1.4-.4.5-.7.2.3.6.4.9.3l.1-.3c.3-.2.6-.4.4-.6-.4.3-.7.3-1.3.5v-.2zm-.8-3.6s-.3-.3-.4-.1c0 0 .4.4.4 0zm-.2-2-.2-.2c-.1 0 .1.6.2.1zm-1.7-8.5c-.3 0-.5.2-.8.3 0 0 0-.2-.2-.2l-.2.2c.5.3 1.2.5 1.2-.3zm.2-.3h-.5c.1.4.5.3.5 0zm-3.2.8c-.1-.2-.4.2-.2.2l.2-.2zm.6-1c-.1-.3-.4.1-.2.2l.2-.3zm-1.3-.2h-.1c-.7.2.2.4.1 0zm-.6-3c-.2-.6-.6.2 0 0zm-3.7-4.5s.3.7.6.5c-.2-.2-.2-.8-.6-.5zm-.2-8.5c-.2-.1-.2-.5-.5-.2.1.2.3.3.5.2zm-1-1.2h-.3c-.3.2.4.5.3 0zm-1.5 3.4c.1-.1.2-.9-.3-.5-.2 0 .2.7.3.5zm-5.7-4.8c.1.2.2.6.4.2 0-.2-.2-.3-.4-.2zM255.6 56c.6-.3.2-1-.2-.5l.2.5zm0-1.2c-.2-.2-.5-.2-.7-.3-.2 0-.2-.3-.4 0l.6.7.5-.4zm-16-16.2c.5-.6-.4-.4 0 0zm-2.3-3.8-.2-.2-.7 1c-.3.3-.9 0-1 .6.6.6 1.6-.7 2-1.4zm-.2-1.2v-.3c-.1-.1-.2.3 0 .3zm1.8 2.8-.3-.4c-.5.4.2.7.3.4zm-.7-.8c.2-.1.3.3.5-.1.2-.3-.6 0-.4-.3 0 0 .4-.2.5-.1v.2l.8-.6c.3-.4 0-.6 0-1 .4 0 .6.1 1-.3-.1-.2-.4-.1-.6-.1h-.3l-.2-.2c-.2 0-1.4 1.3-1.4 1.4-.3.4-.4 1.2-.3 1.3.3.3.2-.2.4-.2zm-3.8-3.4c-.1 0-.4.2-.3.3 0 0 .4-.2.3-.3zm-.8.4c-.3 0-.3.4-.5.6l-.2-.2-.7.3c0 1.2 1.8 0 1.4-.7zm-5-2c-.3.5 0 1 0 1.4.8 0 .3-.8.2-1.1.3-.1.6 0 .9-.5v-.5c0 .2-.2.2-.3.3-.4-.3-.9-.5-1.3 0 0 .4.3.1.5.4zm-2-4.3c-.1-.6-.6.4-1 .5.7.3.5-.6 1-.5zm-2 2.6c.1.1 0 .3 0 .4l.9.5.5-.2c.2 0 .3.3.5.1-.4-.4 0-1.1.3-1.8-.1-.2-.4 0-.8 0s-.8-.2-1 0c-.2.1-.6.6-.6.9l.2.1zM217 23h-.3c0 .1.5.4.3 0zm-6.2-1.8c.2-.3 0-.5 0-.7-.3.2-.2.5 0 .7zm-.8-2.4c.4-.6-.3-.8-.5-.5 0 .2.3.4.5.5zm-1.6-.3.6.6c.4-.3 0-.7-.3-.7.2-.2 0-.7-.4 0a.6.6 0 0 0 .2 0h-.1zm-1.4-.5c.3.2.2.2.5 0s.5-.2.7-.5v-.3c0-.2-.3-.8-.7-.7-.2 0-.9 1.2-.9 1.3l.4.2zm-1.4.7c.3.2.6.2.7 0 0-.4-.5-.3-.7 0zm-1.3-2.2c-.2 0-.3 0-.4.2.4.1.3.5.7.6.1-.1 0-.6.3-.6.3.3.4.7.7.8.3.2.4 0 .6-.4.1-.1.3-.1.3-.3l-.2-.4c0-.1.3-.1.4-.4-.3 0-.6-.2-.7 0-.2 0 0 .5-.2.6h-.5c-.6 0-.8-.2-1-.1zm-4.5-2.6.4.6c.3-.4-.1-.8-.4-.6zm-3-.6c-.2-.4-.5.2-.8-.3 0 .3-.3.8-.2 1 .3.6 2-1 1-1 .2 0 0 .2 0 .3zm-1.2-3.8c.6.3.1.8.2 1 0 .2.3.1.3.2v.3l.2-.2c.3-.1.7 0 .4.4.8 0 0-1 0-1.3l.1-.2c-.3-.3-.6 0-1 0 0 0-.1-.4-.2-.2zm-8.3-2.1c-.4-.4-.6.5-.3.6a1 1 0 0 0 .3-.6z"/><path d="M186.6 7.3h.2c.4 0-.1-.6-.2 0zm4.2.1s.2 0 .3-.2l-.2-.3c0-.1.3-.1 0-.1-.5.2-.8 0-.9.7h.7c-.2.5.4.1 0-.1zm5 1.2c.3-.2 0-.6.4-.8-.4 0-.5.2-.7.4v.3h.3zm-8.5 2.6c0 .3.4 0 .3.3l-.4.2c.3 0 .2.3.5.3.3-.3.1-.5.3-1h1v-.3c-.3-.2-.3.2-.6 0v-.5c.6.3.6 0 .7-.5-.6 0-1.1.4-1.4.4h-.3l-.1 1.1zm1.6-2a.9.9 0 0 1-.5-.6s-.3.6-.2.8c0 0 .8 0 .7-.2zm-5.4-2.3c-.5.7.5.4 0 0zm-.5.1c.1.2.3 0 .3-.2-.1-.2-.4 0-.3.2zm.2-1.4h-.1l-.5-.1.1.6c.2 0 .5-.4.5-.5zm3 5c.1.3-.4.5-.3.4-.2.4.2.7.3.6.3-.2.2-.7.2-.8 0-.1 0-.3-.2-.3zm-4.6-4.9v-.3c-.2 0-.1.4 0 .3zm3.8 3-.6.3c-.2 0-.3.3-.5.4-.2.2-.5.2-.4.4.4.2.8-.1 1 0 .4.3 0 .6.4.9.3-.5.1-.7.2-1 0-.4.2-.7 0-1z"/><path d="M185.1 10.5c-.5-.2-.2.6 0 0zm-4-4.2c.4-.1-.2-.5-.2-.3l.1.2c-.4.1-.5-.3-1-.5-.2 1 .7 1.4 1 .6zM168.9 1c-.2.1-.3.4 0 .5.2 0 .2-.4 0-.5zm-1.3-.5s0 .2-.2.1c-.2.6.6 0 .2 0zm10.8 3.7c.1-1.2-1.5 0-.8.6.3-.4.4-1.1.8-.6zm-2.7.4c-.3-.1-.7-.3-.8.2.2.2.9.4.8-.2zm3 3.8c1.3 1.1.8-1.4 0 0zm-4-2.5c.3-.1.1-.7.2-1-.4-.2-.2.4-.2.6 0 .1-.4.4 0 .4zm-.4-2c.2.1.3-.1.4-.2l.4.1-.1.3c.6-.2.5 0 1 .3.1-.2.3-.2.3-.4-.3.2-.3-.2-.4-.3-.4-.3-.6-.3-.7-.2-.3-.3-.5-.6-.7-.2-.2.2-.3.4-.2.6zm4 5c-.5.3.3.4 0 0zm-4.6-4.7c-.5.4.8.4.2 0h-.2zm2 3.9c-.2 0 0-.4-.3-.3-.1.6 0 .8.5 1.1l.7.5v.2c.5.4 1.2.4 1.4.1l-.1-.3c0-.2.2-1.6-.1-2-.1.2-.2.6-.4.7-.4.2-1-.4-1.4-.3l-.3.3zm-2.4-4.7c1.5.4.5-1 0 0zm4.5 3.6c.6 0 .2-.9 0 0zm-3.4-6-.1-.2c-.2 0 0 .4 0 .2z"/><path d="M177.8 7c-.4-.2-.6.7-.3.8 0-.4.2-.4.3-.7zM174.2.7V.3c-.3 0-.1.4 0 .3zm-.7 3.8h-.4c.1.2.4.4.4 0zm-.5-.9c-.2-.5-.7-.5-1 .1.4 0 .9.3 1 0zm2.4 4.2c-.5 0-.6-.9-.1-1h-.6c.2.6-.2.7-.5 1 .5.2.8.6 1.2 0zm-1 .7c.4 0 .3.3.6.3v-.4c-.2 0-.4-.2-.5.1zm-3.1-2.7.2.3c.5.2.5-.6.7-.9h.3l.3-.5h-1l-.1.1-.2-.1V5s-.3-.2-.3 0l.3.4-.2.3z"/><path d="M171.3 5.8v-.3c-.3 0-.2.4 0 .3zm-.8 1.7h-.1s-.1-.3-.2-.2c-.2.1.2.7.3.2zm-1.7-1.8c.4.1.8.3 1 0 .2-.1 0-.4 0-.5 0-.2.4-.4-.1-.4-.2 0 0 0 .1-.2 0 .3.4.2.4 0-.2 0-.2.1-.4 0v-.2c-.4-.1-.4.3-.6.6-.2.2-.5.3-.4.7zm-2.3.2c-.2 0-.4.2-.6.4.3 0 .8.2.9-.2h-.1l.2-.3c.1-.2.5 0 .6 0 .4-.8 1.2-2 1.1-2.4-.3-.1-.7-.2-1 .2V4c0 .3-.3.6-.4.6-.3.2 0 .6.2.9-.4 0-.7.1-1 .4zM160 2.6l-.5 1.3c.4 0 .3-.7.8-.5 0 0 0 .2 0 0 0 0-.1-.2 0-.4.3-.1.1-.2.6 0 .2-.7-.5-.5-.5-.5l-.1-.1v-.2c-.4-.1-1 .2-.7.5l.4-.1z"/><path d="M159.6 2.9c0 .2-.2 0-.2.2.1 0 0 .3.2.3 0 0 .3-.5 0-.5zm-.6.8c.8.2.2-.6 0 0zM145 1.4c-.4 0-.6-.6-.7-.5-.1 0-.3.3-.3.8.3.2.9.1 1-.3zM143 3.8c.3 0 .5 0 .5-.3-.2 0-.6-.2-.5.3zm-5.6-1.4 1.5.3.2-.4c.1-.2.4-1.4.3-1.5 0 0-.3-.5-.8-.3l-.2.6c-.2.5-1 1-.5.3-.3 0-.4.2-.5.4v.6zm-.4-.9h-.2V1l-.6-.1c.1.2 0 .3 0 .4l-.1.5c-.1.3-.4.2-.3.6l.3.2c.6.5 1.2-.2 1-1zm-.6.2c.4.3-.6.3 0 0zm-2.5-.2c0 1 .8-.2 0 0zm-1.2.5c-.3 0-.4.2-.3.5.2 0 .3-.2.3-.5zm-.3 1v-.6c-.5 0-.4.7 0 .7zm-1.6 2c1-.1 0-1 0 0zm-.1-4.5c-.4-.2-.5.3-.7.3 0 0-.5-.4-.3 0 .6.5.7.1 1-.3zm-.6.8c.1.1.5.3.4-.1l-.4.1zm-1.2 2c-.2 0-.3 0-.3.4.3 0 .4-.2.3-.5zm-2.8 2.5c.4 0 .3 0 .7-.2V5h.2l.1-.3c.4-.2.4 0 .5-.3l.2-.3v-.5c0-.2.4 0 .2-.4-.2 0-.7-.3-.5-.5.4 0 .4.4.8.3.5-.4-.3-.2-.3-.5s.6 0 .3-.4h-.3c-.2 0-.3-.5-.4-.5-.6 0-.1 1.4-.5 1.5l-.2-.3c0-.3 0 0-.3-.1 0 0 0-.4-.2-.4l-.2.4c-.1.1-.3-.2-.3 0 .1 0 .4.5.1.6-.2 0 0-.6-.3-.4 0 .6.4.5.3 1 0 .2-.3 0-.4.3l.2.3c0 .3-.5.6-.5.8l.3.6h.5z"/><path d="M126 2.4s-.4-.3-.4 0c0 0 .4.3.4 0zm-10.8 3.8c-.2 0-.1-.6-.4-.5-.3.3.3 1 .4.5zm-2-1c-.4-.3-.1.6 0 0z"/><path d="m112.2 4.2.5 1c-.5 0-.8.1-.9.5.2 0 .8 0 1-.2l.3-.5c.2-.3.2-.2.2-.5 0 0-.2.1-.2 0-.2-.1.2-.4 0-.6a4 4 0 0 0-.7 0l-.1.3c-.2-.4 0-.5 0-.7-.4 0-.5.6 0 .7zM109 7.4l.3.4c-.1.4-.3.7-.3 1.1.5 0 .3-.7.3-1 0 0 .3-.2 0-.3a2.3 2.3 0 0 1 .2-.8l-.1-.2V6l.2-.3-.2-.7c0-.4.2-.9-.1-1l-.3.1c0 1-.4 1.9.1 2.7h.2c-.7.2-.6.3-.3.7zm-.1 1.5c-.6.1 0 .5 0 0zm-1.3-4.2c-.6.2 0 .6 0 0zM108.5 9l-.2-.2c-.2 0 .1.4.2.2zm-2-1.6c0 .1.2.6 0 .8 1-.1.3-1.3 0-.8zm.2 2.4c.3-.2.3-.7.4-1-.3.3-.8.7-.4 1z"/><path d="M106.7 9.2c-.4 0-.9.2-.8.8a1.3 1.3 0 0 0 .8-.8zm-1 1.1c-.5-.7-1-.1-1.8-.1.3.5 1.4.4 1.8.1zM90 14.1c-.7-.2.2.8 0 0zm-1.3-1.5c-.7.2.1.6.2 1 .3.2-.3-.8-.2-1zm13.9-5v.6c.4.1.1-.6 0-.5zm.6 2.3-.2-.2c-.2 0 0 .4.2.2zm-22.4 5.4-.2.1c-.2.6.9-.1.2 0zM212 16.6c-.5-.4-.3.4-.3.6l.3-.6zm-1.3-1.4c0-.3-.3-.1-.5 0 0 .3.3.2.5 0zm-3.6.3c.5-.7-.6-.2 0 0zM202 11l-.7.1c.3.2.5.3.7 0zm85.4 102-.1.7c.5.1.8.1 1-.3 0 0-.5-.5-.6-1v-.3l-.2-.4c0-.1.4 0 .4 0v-.4a1 1 0 0 0-.6.5c-.2.4 0 .4.2.5.4.3 0 .5-.1.6zm-8.1-19s.2 0 0-.1c-.3 0-.5 0 0 0zm-2-7.8c-.1-.2-.4-.2-.7-.3l.2.8c.4-.2-.2-.5.5-.5zm-11.1-20.7v-.1.1c.6 0 1.1 0 1.8-.4-.1-.6-.6-.1-.7-.1l-.1-.2a1.8 1.8 0 0 0-.8.3.4.4 0 0 0 0-.3c-.3-.1-.3.4-.5.2-.1 0 .2-.3 0-.3-.2-.2-.5.1-.9.2 0 0-.2-.3-.1 0 .3.5 1.4.2 1.3.6zm-13.8-13c.5 0 .6.7 1 .8l.5-.1.4-.1c-.3 0-.1-.5-.3-.6l-.5.1-.5-.2c-.3-.1-.6 0-.6.1zm-.4-1.3c-.2.2-.4 0-.4-.2-.6.4 0 .8.2.9.5.2.7-.9.9-1.1-.5.3-.9-.2-1.3-.1-.2.4.8 0 .6.5zM74.7 17.7c0 .5.8 1.3 1.2 1.5-.3 0-.2.7 0 .6l.3-.8c.1 0 .4.3.6 0l-1.1-1.8c-.5 0 .1.4-.1.5-.3 0-.4-.6-.8-.2.1.2.6.3.4.6-.2-.3-.3-.4-.5-.4zM183.3 5.8s.3-.2.4 0c0 .5-.3.3-.4.9.4.2.7 0 .8.2 0 .2-.3.1-.3.6.4-.1.5.4.7.5a1 1 0 0 1 .3-.2c.2 0 0 .2.3 0 .2 0 .1-.6.4-.8h.6c.1 0 .2-.9.6-.6a.5.5 0 0 1-.3 0 .4.4 0 0 0 .3.3v.2l.2-.2c.4-.1.8-.6.4-.9v-.5L187 5l-.4.2c-.2 0-.5-.4-1-.4h-.7a1.7 1.7 0 0 1-.4-.2l-.1-.5a12.8 12.8 0 0 0-.9.2s0 .5-.2.8l-.3.3.2.3s-.2 0 0 .1zm2-.6-.2.3c-.2 0-.4-.2-.3-.6l.5.3zm-3.4.5c-.4.3 0 1 .3.8-.1-.2 0-.7-.3-.8.3 0 .5-.3.5-.4 0-.2-.4-.2-.7-.5v-.2c-.4-.4-.5.1-.6.2 0 .1-.4 0-.4.2.4 0 1.6-.3 1.2.7zm-26.2-2c.2 0 .5-.1.8 0v-.6l.1.3v-.7h.2v-.2c0-.1.3 0 .2-.4-.2-.3-.4 0-.6 0-.2 0-.2-.1-.4 0-.5 0-.2.3-.3.7-.2.4-.6.2-.8.6.5-.2.6.3.8.3zm-51.6 7.5c-.1-.5-.5 0-.5.3.3 0 .1-.5.5-.3zm108.6 10.2V21c.3.5 1.3 0 1.6-.4.5-.5-.1-.5-.1-.5l-.1-.5c-.2-.2-.3 0-.5-.1.4-.4.3-.6.1-.6.3-.5.1-.7-.1-.9-.4.5 0 .6.1.8a1.8 1.8 0 0 0-.8 0c-.2 0-.3 0-.4.2-.3.4.2.6-.1 1-.3-.2-.5-.2-.6.1.6.3.4 1.3.9 1.3zM201 16.5c.1-.6.3-.2.4-.2l.6-.3h.1l-.3.3c.2.2.5 0 .8.1.3 0 .8.4.8.5 0 .1-.7.8 0 .8 0-.4.4-.4.4-.7l-.2-.3c-.2-.5.3 0 .3 0v-.8c.2-.3.7-.5.3-.8-.3.2-.4.6-.8.7-.1 0-.3-.3-.5-.2l-.3.2a1.5 1.5 0 0 1 .2-.2c.3-.1-.2-.3.1-.6l-1.5.3-.3-.1c-.4.1-.6.6-.9.9.5 0 .4.2.8.4zM175 1.5c0-.5.7-.1.9-.8l-.3-.4a.9.9 0 0 1 .2-.2c-.3-.2-.3 0-.6.2-.5.4-.5.6-.4 1 .1.2 0 .5.2.2zm-44.8 1.8c.1 0 .2.3.4.2V3c.2-.2.4-.4.2-.7-.2-.5-.6.1-1 .3-.4.1-.5.4-.5.8.4.1.5-.2.9-.2zm-23.6 3s-.3.4-.1.5h.4c.5-.1.3-1.3.2-1.5 0 0-.2.2-.3-.1 0-.2.5-.6.1-.9-.2.3-.6 0-.8.4l.1 1.2c.1.3.3.3.4.4z"/><path d="m89 15 .8.7.4.5v.1c.2 0 .3-.2.3-.3.1-.1.3-.4.1-.7v-.2c-.7.8-1.4-.4-1.8-1.5-.5 0-.3.6.1 1.3zm113.8-2.6c.4.3 0 .5-.1.7l.2.7.6-.4.3.1c-.5.8 0 .6.3.9.2 0 .2.3.3.4 0 0 0-.1.2 0 .3.3.8.5 1-.1-.2-.4-.3 0-.6 0l.2-.2c-.2-.2-.7 0-.9-.3.4-.5.3-.7.1-1V13c-.2-.2-.7-.2-.8-.4l.2-.5c-.2-.2-1 0-1-.5h.1c.4-.1.1.4.6.3.2-.2 0-.6-.2-.8l.1-.2a.4.4 0 0 0-.3 0v-.1h-.1a.9.9 0 0 0-.4.4c-.3 0-.3-.2-.4.2v1.1c.2.3.3-.2.6 0zm21.6 252.4c-.2 0-.3-.3-.4-.4l-.4.1s-.2-.2-.3 0c.2.5.7.6.8.8.2.2.3 0 .4.2.5.4.1-.1.5-.1l.1.2c.2.1 1-.8.6-1-.5-.1-.9.3-1.3.2zm3.3 0c-.3.1 0 .4 0 .6.1-.2.3 0 .5-.3-.2-.4-.6.3-.5-.3zm-.4-.5c.7-.3-.4-.6 0 0zm.6-1.3c.1.3.7.2.5 0-.1 0-.3-.3-.5 0zm3.3-.6-.1.7c-.2.3-.5.3-.2.6.6 0 .3-.8.7-1 0 0 .5.5.5.1l-.3-1.4c-.5.2-.5.6-.6 1zm-.3-2.8-.1-.2c-.2 0-.3.2-.4.3-.1 0-.2-.2-.4 0-.3 0-.3.5-.7.5.1.3.2 0 .4 0l1 .3h.9c.2 0 .3-.3.3-.3.3-.3 1-.3 1.2-.9a2.7 2.7 0 0 1-.9.2c-.3 0-.8-.2-1-.1 0 0-.1.2-.3.2zm1 .3c-.2 0-.1.1 0 .2-.4.2-.4-.8 0-.2zm0-1.6c-.8.5.5.8 0 0zm1.8 2.9c-.2-.2-.4-.2-.5 0 .2.2.4.3.6.1.2-.1.3 0 .5-.3-.2-.2-.6 0-.6.2z"/><path d="M234 260v.1c-.5-.3-.8.3-1.3.4l-.2-.1-.3.2c-.2 0-.4-.3-.5 0 0 .4.3.3.5.3l.5.2c.2 0 .2-.4.3-.5h.6l.5-.4.2.2c.2-.1.2-.3 0-.5l-.3.2zm-.6-3.3c-.5-.1-1.3.4-1.2.8.1.5 1.3.5 1.3.8.3.4-.4.4.2.7a4.3 4.3 0 0 0 1.7-1l-1.2-.5-.8-.8zm1.4 3.1c.2-.4.7-.2.6-.5-.2 0-1 0-.6.5zm1-.7c-1 .1.4 1 0 0zM205.3 274c.5-.2.7-.4.5-.8-.3.1-.4.5-.5.8zm31.8-15.7c.3 0 .3-.2.1-.4-.2 0-.2.2 0 .4z"/><path d="M238.2 256.6c-.2.1-.4 0-.5.2 0 0 0 .4-.2.7-.2.3-.5.3-.2.6.6-.2.5-.7.7-.9h.4c.1-.4-.2-.4 0-.6.1-.2.3 0 .5-.1.3-.1.4-.4.5-.8-.1.3-.6.2-.8.4l-.4.5zm-2.7-.9h.5l.3.4.4-.2.9-.2c.4 0 .3-.3.5-.6l.2-.3-.3-.1V254.1c.2-.3.7-.3.7-.6-.1-.2-.2 0-.4 0l-1 .7h-.7c-.1.2-.3.5-.5.5l-.2-.1a1.4 1.4 0 0 0-1 .3c0 .4.2 0 .5.3 0 .1-.1.3.1.5zm5.8-1.6c.4 0 .3-.5.4-.8-.4 0-.3.5-.4.8zm.6-4.8c.2-.1.3-.4.1-.3-.1 0-.3.4 0 .3zm7-5.8h.5l.2-.3s.3.2.3 0c-.4-.4-1.5-.4-1 .3zm13.4-9.7c0-.2.2-.3.1-.4-.1 0-.5.2-.1.4zm2-8.6c-.2-.1-1 .3-1 .4l.2.2a2.7 2.7 0 0 0 1 .4c.5-.1.3-.8-.2-1zm3.6 2.9c.3.1-.7.3 0 .5.1-.1.4-.7 0-.5zm-.5-.2h.2c.2-.2-.3-.2-.2 0zm.7 0c.2.3.4 0 .5-.1-.2-.3-.3.2-.5.1zm6.6-7.6-.5-.2c-.3.4.2.4.5.2zm-1.4-10.3s.3 0 .2-.2c0-.1-.6 0-.2.3v-.1zm14-13.3c0-.1.1-.3 0-.4-.1.1-.5.3 0 .4zm-7-4c.4.3.6 0 .9-.2-.5-.1-.8 0-1 .3zm1.3-2.6c-.5.3-.7 1.2-1 1.5.3.4 1-.4 1-.4l.3.1c.2-.2-.1-.4-.2-.7 0-.2.4-.5 0-.5zm5.5 2.6c-.3.1-.1.4 0 .5.3 0 .3-.4 0-.5zm-5.9-4 .4.2v.5c.4-.1.1-.6.4-1-.5-.1-.7 0-.8.3zm8.3 1.7v-.1s.3 0 .2-.2c0-.2-.6.1-.2.3zm-7.2-3a1 1 0 0 1-.4-.6c-.5.2 0 1.3.4.6zm-.5-2.2c0 .3-.2.6.2.7.1-.3.3-.7-.2-.7zm5.3-3c-.5-.3-.6.7-.1.5.2-.2.3-.4.1-.5zm2.7-7.2a1 1 0 0 0 .6.3c.3-.3-.6-.5-.6-.3zm1.4-1.4c-.3 0-.2 1 .3.7.4-.3 0-.8-.3-.7zm-5.8-2.1c0 .4-.2.6-.3 1 .2 0 .2.2.5.2 0-.3.4-.2.5-.5 0-.1-.2-.6-.7-.7zm1.8-1.3c0-.2-.3 0-.5-.1s-.1-.4-.4-.4c-.3.4-.5.7 0 1l.2-.2c.3 0 .8 0 .7-.3zm-1.6-.2c.2-.5 0-.9-.5-1 0 .5 0 1 .5 1z"/><path d="M285.5 167.7c-.3.3-.6.6-.6 1.2.3.5 1.2-.5 1.2-.5 0-.3-.3-.5-.6-.7zm1.1.6c.4-1.1-1-.3 0 0zm1.5-11.7h.4v-.3c-.3-.1-.2.2-.4.3zm.1-8.5c0 .3-.3.6.1.6h.5c.2-.3-.2-.6-.6-.6zM268 223.9c.4.1.4.6.7.6.4 0 .5-.5.5-.6-.3-.4-.9-.3-1.2 0zm5-3.5c.5.1.7 0 1-.1-.3-.2-.7-.3-1 0zm0-1h.5c-.1-.1-.3-.1-.4 0zm.5-.5c.6.5.3-.4 0 0zm2.3-5.2c-.1.3 0 .5.1.7.4-.1.1-.5 0-.7zm1.4-3.9c.3 0 .4-.3.1-.4-.3-.1-.7.6 0 .4zm2.8.5h.3c0-.2-.4-.2-.3 0zm3.7-3.2c.3-.5-.4-.3 0 0zm-5.7-3.3c-.4.5.5.7.8.5-.4-.1-.3-.2-.8-.5zm-83.5 71.5.2.2c.2 0-.1-.3-.2-.2zm.4.7h.4c0-.7-.7-.3-.4 0zm1-.7c-.4.1 0 .3 0 .4 0 .3-.4.2-.2.5.2.4.3-.5.4-.1l-.1.4s-.2-.2-.2 0l.1.9c.2.5.6.3.8.5 0 .3-.3.5 0 1l.3-.5.1-.2.3-.1-.5-2c-.2-.3-.9-.8-1-.8zm2.4-.3c.1-.1 0-.5-.1-.4 0 0 0 .5.1.4zm7.9-1.4c.5.2 0-.7 0-1-.7.4.2.7 0 1zm84.6-114.8a.6.6 0 0 0 0-.2c-.4-.5-.3.8 0 .2zM231 261c.2 0 .4.5.6 0-.2-.1-.3-.4-.5-.4h-.6l-.5-.2h-.2l-1-.2a3.1 3.1 0 0 0-.8.4c-.1.1 0 .5-.2.6l-.5.1c-.1.2-.1.5-.3.7-.3.5-.8.7-1 1.2.5.2.8.3 1.2.2-.1 0 0-.4.2-.5-.7-.8.5-.6 0 0l.2.2.8-.6c-.2-.4-.5 0-.8-.4.3-.5.3 0 .7-.3.3-.2.5-.6.9 0 .2-.1 0-.3.2-.4l.4-.2c.7-.3.4 0 1.1 0l.1-.2zm31.3-27.8c-.2.2-.8-.1-1 .2-.1.1 0 .6.1.7l.3-.1c.6 0 .1-.2.5-.7 0 0 .3 0 .1-.1zm-2.3-1c-.2-.1-.1-.4-.1-.4a3.5 3.5 0 0 0-1-.7c-.4 0-.3 1-.6 1.2l1-.1.5.1c0 .1.2.5.4.3 0-.2-.2-.4 0-.6-.4-.3-.2 0-.2.2zm9.9-4.3s.1 0 0 .2c0 0-.2-.2-.3 0 .2 0 .4.2.5.1-.1 0 0-.5-.2-.3z"/><path d="M275.9 215.8c.3-.7-.8-1.7-1.6-1.2-.2-.2 0-.4-.3-.6a1.4 1.4 0 0 0-.9.8l.3.1-.3.8c0 .1-.3 0-.4.2l-.3.3c-.2 0-.4-.5-.6 0 .1.5 1 .3 1 .8-.1.5-.6-.2-.7 0 .5.4 0 .4-.2.5v.4c-.2 0-.7-.1-.6.2.4.2.5-.1.8 0v.5l-.3.2v-.5c-.2.2-.2.3-.1.5l-.5-.5c-.3.3.1.5-.1.8-.5-.5-.6-.1-.8 0-.1 0-.3 0-.4.2a2.7 2.7 0 0 0 0 .6l.3.2v.5c-.1.5.3.4.5.6v.4c0 .4.5.2.7.3.2-.3-.1-.5 0-.7a1.5 1.5 0 0 0 .4-.3c.1-.1 0-.4.3-.5 0-.3-.5-.4-.4-.6.3-.1.4-.5.4-.8l.4.1s.6 0 .7-.2c-.4-.2-.1-.4-.5-.5h-.3c.3-.3.4.3.9.2l.4-.2v-.6c.2-.1.4 0 .6-.3 0-.4-.6-.5-.6-.7 0-.7.9-.5 1.3-.4h.4c.1 0 0-.3.3-.2.3.1.2.6.6.6.1-.2.7-.6.5-.9a1.5 1.5 0 0 1-.9 0zm-3.2.3c.2 0 .3-.3.6 0 0 .3-.3.1-.6 0z"/><path d="M275 214c0 .6-.3-.3-.6.1v.3l1-.1s-.1-.1 0-.2l-.3-.1zm4.5-6.9c-.7-.2-.8-.7-1.2-.8-.2 0-.3 0-.5.2.2-.2 0-.6 0-.7.2-.2.4 0 .6-.3a2.3 2.3 0 0 0-.3 0l.3-.1v-.4s.6 0 .5-.4c-.4 0-1-.5-1.5-.3.4.5.7.5.6.8 0 0-.6 0-.7.2h-.2c-.2 0 0 .4 0 .4-.1.4 0 .6.3.7h-.2c-.4 0-.3.2-.6 0-.2 0-.2 0-.3-.2-.2.1 0 .9-.5 1 0 0-.2-.4-.3-.2.3.7-.2 1.2-.3 1.8l.2.2-.2.3.1.7c-.3 0-1 .1-.8.7.1.2.4.1.6.1a1.4 1.4 0 0 0 0 .2l-.2.1h.1v.1l.8.3c.2 0 .4-.2.3-.5 0 0-.2 0-.3-.2.4.2.4-.1.2-.1a.6.6 0 0 0 .1-.2c.2-.5.1-1.2.3-1.6.1-.1.4 0 .4-.2 0 0-.1-.2 0-.2.4-.3.5.1.9-.3-.3-.3-.6-.6-.4-1.1.6.3.8.5 1.1.4l.6-.1c.2-.2 1 0 .7-.4 0 0 0 .2-.2.1zm11.9-54.6c.3 0 .5 0 .5-.2-.4-.2-1.4 0-1.8.3 0-.3-.5-.6-.5-.4l.4.7c0 .2-.4.2-.3.5h2.1c.3-.4-.4 0-.3-.3 0-.3.7 0 .5-.6-.2 0-.5.3-.6 0zM2.6 149.3c-.2-.3 0-.5.4-.4.3 0 .1.3.4 0 .2-.3.4-.4 0-.9-.2-.1-.3.2-.6.2-.3.1-.6 0-.8 0-.4.2-.6.6-.9.8l1-.2c.3.1.1.5.5.5zm-1.5 4c.6 0 .8-.4 1.3-.4.3.1.3.7.8.7 0-.3.2-.3.4-.5v-.8c.1-.2.4-.3.4-.5 0 0 0-.7-.2-.5.1.5-.2.8-.4 1h-.6c-.3 0-.2.3-.5.1-.1-.1 0 0-.1 0-.6 0-.5 0-.7.3 0 .1-.6.2-.4.5zm1.8 5c-.2.2.2.3.3.7.1.2-.2 1.3.5.6-.4-.4.5-1.5-.8-1.3zm.5 3.4c.5.3.5-1 .1-.3 0 0-.3.2 0 .3zm-1.6 2.7h.5c-.4-.9.3-1 .8-1.3-.3 0-.1-.5-.4-.5l-1.2.4c0-.4-.3-.5-.5-.6-.1.5 0 .6.1 1 0 0 .2-.3.3-.2l.4 1.2zM0 162.9c0 .7.7-.1 0 0zm2.2 3.9c.2.2 0 .9.4 1 .3-.2.2-1.2-.4-1zm2.4 2.4c.8-.3 0 .8.9.6-.4-.5.4-.5.4-.6v-.7c0-.3 0-.7-.2-1-.4 0-.3.3-.7.3 0 .2.3.2.3.5 0 0-.4 0-.4.2v.3c0 .3-.4.1-.3.4z"/><path d="M4.3 168.5c0 .7.7-.1 0 0zm-1.2 1c.3 0 .2.3.6 0 0-.2-.5-.3-.6 0zm-1.3.6c0-1-.9 0 0 0zm3.3.7c-.8 0 0 .5 0 0zm1.4 1.3c0-.4-.2-.6-.6-.7-.2.3 0 .9.6.7zm-3.7 7.7v.3h-.3l-.2.6c0 .2.4.4.5.5v.5c.1.1.5.2.6.1-.3-.9.4-2.2-.6-2zm2.9 3.6v-.2c-.2 0-.4.2-.5 0-.1-.2 0-.4 0-.8-.6.3-.8 0-1.2.1-.3.5.4.3.5.6-.2 0-.4-.2-.5-.1V183.3l-.2.2c-.1.3.4.4.7.3.3.3.7 0 1.2 0 .2 0 .5.3.7 0a1.6 1.6 0 0 0-.4-.4h-.3z"/><path d="m5.7 183.1-.1-.4h-.3l.1.5zm1.7 0c-.3.6.8-.1 0 0zM4.9 185c.2.2.4.5.8.3-.2-.1-.3-.5-.8-.3zm3.6 0c-.5-.2-.3.5 0 0zm0 1.1c-.7-.4-.4.6 0 0zm-.5 2.1.1-.4-.3.1c0 .1 0 .3.2.3zm1.7 1.1c.8.3 1-.4.7-1-.5.2-.4.5-.5.8-.2-.3-.6-.4-.9-.3l-.1.3c-.3.2-.6.3-.4.5l1.3-.4v.1zm1 3.7s.1.3.2.1c.1-.1-.3-.4-.3-.1zm.1 2 .2.2c.1 0-.1-.6-.2-.2zm1.3 13c.3.1.5-.2.8-.2l.2.1.2-.2c-.5-.3-1.2-.5-1.2.3zm-.2.4h.4c0-.4-.5-.3-.4 0zm3.6-5.5c.1.2.4-.1.2-.2l-.2.2zM15 204c.1.2.4-.1.2-.2l-.2.2zm1.3.1h.1c.7-.1-.2-.4-.1 0zm.6 3.1c.2.6.6-.3 0 0zm3.6 4.5c.1 0-.2-.8-.5-.5.2.2.2.8.5.5zm.3 8.4c.1.2.2.6.5.3-.1-.3-.3-.4-.5-.3zm1 1.2h.3c.2-.2-.4-.4-.4 0zM23 218c0 .2-.1 1 .4.6.2 0-.2-.7-.4-.6zm5.8 4.8c-.1-.1-.2-.5-.4-.2 0 .2.2.3.4.2zm6.2 10.5c-.6.2-.2 1 .2.5-.2-.2-.2-.4-.2-.5zm0 1.2c.1.2.5.2.7.2.2 0 .2.4.4.1l-.6-.7-.5.4zm16 16.2c-.5.5.4.4 0 0zm2.3 3.7.2.2c.4-.3.3-.6.7-1 .3-.2.9 0 .9-.5-.6-.7-1.5.7-1.8 1.3zm.2 1.3-.1.2c.2.2.3-.3 0-.2zm-.4.6.3.4c.5-.5-.1-.8-.3-.4zm.8.8c-.3 0-.4-.3-.5 0-.3.4.6 0 .3.4 0-.1-.4.2-.5 0 0 0 .1-.2 0-.1l-.8.6c-.3.4 0 .6 0 1-.3 0-.6-.2-.9.2 0 .3.3.2.6.2h.2l.3.2L54 258c.2-.4.4-1.2.2-1.4-.3-.2-.2.2-.3.3zm2.3 0 .3-.3s-.5.2-.3.3zm.7-.4c.4 0 .4-.5.6-.6l.2.2c.2 0 .5-.2.6-.4 0-1.1-1.7 0-1.4.8zm5.6 2.4c0-.4-.3-.2-.5-.4.3-.6 0-1 0-1.5-.8 0-.3.8-.2 1.2-.3 0-.6 0-1 .5h.1c0 .2-.1.3 0 .4l.3-.2c.4.3.9.5 1.3 0zm-1.1 4.2c0 .6.6-.3.9-.5-.7-.3-.5.6-1 .5zm4.5-3v-.3l-.8-.6c-.1 0-.3.3-.6.3-.1 0-.2-.3-.4-.2.4.5 0 1.2-.3 1.9.1.2.4 0 .8 0 .4-.1.7.2 1 0 .2-.2.6-.7.6-.9l-.3-.2zm7.7 6h.3c0-.2-.5-.4-.3 0zM80 268c-.2.3 0 .4 0 .6.3 0 .2-.4 0-.6zm1.3 2.8c0-.2-.3-.3-.5-.4-.4.6.2.8.5.4zm.4-.7c-.3.3 0 .6.3.7 0 .2.1.7.5 0h-.2l.1-.1-.7-.6zm2.5 1.3-.4-.2c-.3-.2-.2-.3-.5 0l-.7.4v.3c0 .3.3.9.7.8.2 0 .9-1.3.9-1.3zm1-1c-.3-.2-.6-.2-.8.1.1.3.6.3.8 0zm1.7 2c-.4 0-.3-.5-.7-.6-.2.2 0 .7-.3.6-.3-.2-.4-.6-.7-.7-.4-.2-.5 0-.7.4 0 0-.2 0-.2.3l.2.3c-.1.2-.3.2-.4.5h.7c.2 0 0-.5.2-.6h1.5c.2 0 .3 0 .4-.2zm4 2.8-.3-.5c-.3.4 0 .8.3.5zm3 1v-.4c.3.5.6-.1.9.3 0-.2.3-.7.2-.8-.3-.7-2 1-1 1zm73.4 8.7c-.6-.2-.2-.8-.2-1l-.4-.2v-.3l-.2.2c-.3.2-.6 0-.3-.4-.8 0-.1 1 0 1.3l-.2.2c.4.3.7 0 1 0 0 .1.2.4.3.2zm-63.8-3.1c.4.4.6-.5.3-.6a1 1 0 0 0-.3.6zm0 1.5c.4-.3.3-.7.8-.7-.3-.6-1.6.3-.8.7z"/><path d="m104 281.8-.1-.1c-.5.1 0 .7.2 0zm68.3 1.9-.3.1.1.4s-.3 0 0 0h.1c.5-.1.8 0 .8-.6a3.3 3.3 0 0 0-.7 0c.2-.6-.4-.2 0 0zm-5.3 2c-.3.2 0 .6-.4.8.3 0 .5-.2.7-.4v-.2l-.3-.1zm-63.6-7.8c0-.4-.4 0-.3-.3l.4-.3c-.3 0-.2-.3-.5-.3-.3.4-.1.5-.3 1-.3.2-.8 0-1 .1v.3c.3.2.3-.3.6 0l-.1.4c-.5-.2-.5 0-.6.5.6 0 1.1-.3 1.4-.3h.3l.1-1.1zm-1.6 2a.9.9 0 0 1 .5.6c0-.1.3-.6.2-.8 0 0-.8-.1-.7.2zm5.3 2.3c.6-.8-.4-.4 0 0zm.6-.2c-.1-.2-.4.1-.3.2.1.3.4.1.3-.2zm-.2 1.4h.1l.4.2s.2-.5 0-.6c-.2 0-.5.3-.5.4zm-3-6c-.4.3-.2.7-.2.8 0 .2 0 .4.2.3-.1-.3.4-.5.3-.4.2-.4-.2-.7-.3-.6zm4.6 6c-.1 0 0 .2 0 .2.2.1.1-.3 0-.2zm-2.3-4.2c-.4-.2-.8.2-1.1 0-.3-.2 0-.5-.3-.8-.3.5-.2.6-.2 1s-.2.7 0 .9l.7-.2.5-.4c.1-.2.4-.2.4-.5z"/><path d="M105.6 278.6c.5.2.2-.7 0 0zm4 4.2c-.5 0 .2.5.2.3l-.1-.3c.4 0 .5.4 1 .6.2-1-.7-1.5-1-.6zm0 4.8c.2-.2.3-.5 0-.6-.1.1-.2.5 0 .6zm1.3.4s0-.1.2 0c.2-.7-.5-.1-.2 0zm1.3-3.1c0 1.1 1.5 0 .9-.6-.3.4-.4 1-.9.6zm2.7-.4c.4 0 .8.2.9-.2-.2-.3-.9-.5-.9.2zm-3-3.8c-1.3-1.1-.7 1.4 0 0zm4 2.5c-.2.1 0 .7 0 1 .3.1.1-.4.1-.6 0-.1.4-.5 0-.4zm.5 2c-.2-.2-.3 0-.4.1h-.4v-.4c-.5.2-.4 0-1-.2 0 .2-.2.1-.2.4.3-.2.2.2.4.3.4.3.5.3.6.1.3.3.6.6.8.3.2-.2.3-.5.2-.7zm-4-5c.4-.3-.3-.5 0 0zm4.6 4.7c.4-.4-.8-.4-.3 0h.3zm-2-4c.2 0 0 .5.3.4.1-.6 0-.8-.5-1.2l-.7-.4v-.3c-.5-.4-1.2-.4-1.4 0l.1.3c0 .2-.2 1.5.1 1.9 0-.1.2-.5.4-.6.4-.2 1 .3 1.3.3.2 0 .4-.3.4-.3zm2.4 4.8c-1.5-.4-.5 1 0 0zm-4.5-3.6c-.6 0-.2.8 0 0zm3.4 6v.2c.3 0 .2-.4 0-.3z"/><path d="M112.9 282c.4.2.6-.7.3-.8 0 .5-.3.5-.3.8zm3.6 6.5v.3c.3 0 .1-.4 0-.3zm.7-3.8.4-.1c-.1-.1-.4-.4-.4 0zm.5.8c.2.6.7.5 1 0-.4 0-.9-.3-1 0zm-2.4-4c.4 0 .6.7.1.9h.5c-.1-.7.3-.7.6-1-.5-.2-.9-.6-1.2 0zm.9-.9c-.3 0-.2-.2-.5-.2v.4c.2 0 .4.1.5-.2zm3.2 2.7s-.2-.1-.2-.3c-.5-.2-.5.7-.7 1h-.3c-.2.1-.2.5-.4.5h1l.2-.2.2.2v-.4h.3l-.3-.4.2-.4z"/><path d="M119.4 283.3v.3c.3 0 .1-.4 0-.3zm.8-1.7h.1s0 .2.2.1c.2 0-.2-.6-.3-.1zm.6 1.7v.6c0 .2-.3.4.2.4.2 0 0 0-.1.1 0-.2-.5-.1-.5 0l.5.1v.2c.4 0 .4-.4.6-.6.1-.3.5-.4.4-.7-.4-.2-.8-.3-1 0zm3.4-.1-.1-.1.7-.3c-.4 0-.8-.3-1 .1l.2.1-.2.2c-.1.2-.5 0-.6.1-.4.8-1.2 1.9-1.2 2.3.4.2.8.2 1.2-.2-.1.1-.2-.3-.2-.4 0-.3.3-.5.4-.6.4-.2.1-.5 0-.8l.8-.4zm6.5 3.3.5-1.3c-.4-.1-.3.7-.8.5 0-.1 0-.2-.1 0 .1 0 .2.1.2.4-.4 0-.2.2-.7 0-.2.6.5.5.5.5h.1v.2c.4.2 1-.1.7-.4l-.4.1z"/><path d="M131 286.2c0-.2.3-.1.3-.3-.1 0 0-.2-.2-.2 0 0-.3.4 0 .5zm.7-.8c-.8-.3-.2.6 0 0zm14.1 2.3c.3 0 .5.5.7.5.1 0 .3-.4.3-.8-.4-.2-.9-.1-1 .3zm1.9-2.4c-.3 0-.5 0-.6.2.2 0 .7.2.6-.2zm5.6 1.4-1.6-.3-.2.4a7 7 0 0 0-.2 1.4s.3.6.8.4l.1-.7c.2-.4 1-1 .6-.2.3-.1.4-.2.5-.5v-.5zm.3.9h.3v.5h.6v-.3l.1-.6c.1-.2.4-.2.3-.5l-.3-.3c-.6-.4-1.2.2-1 1.2zm.7-.2c-.4-.3.5-.4 0 0zm2.5.2c0-1-.8.1 0 0zm1.2-.6c.2 0 .3-.1.3-.4-.2 0-.3.1-.3.4zm.3-1v.7c.5 0 .4-.8 0-.7zm1.6-2c-1 .2 0 1 0 0zm.1 4.6c.4.1.5-.3.7-.4 0 0 .4.5.3 0-.6-.4-.8 0-1 .4zm.5-.9s-.4-.2-.3.2c.2 0 .3 0 .3-.2zm1.3-1.9c.2 0 .3-.1.2-.4-.2 0-.3.1-.2.4zm2.8-2.6c-.4 0-.3 0-.7.3v.5h-.3v.3c-.4.3-.4 0-.5.4l-.2.2v.6c0 .2-.4 0-.2.4.2 0 .7.3.5.5-.4 0-.5-.4-.8-.3-.6.4.2.2.2.5s-.5 0-.2.4h.3c.2 0 .3.4.4.4.6 0 .1-1.3.4-1.5l.3.4c0 .2 0 0 .2 0 .2.2 0 .5.3.4l.2-.4s.3.3.3 0c-.2 0-.4-.5-.2-.5.3-.1 0 .6.4.3 0-.6-.4-.5-.3-.9 0-.2.3 0 .4-.3l-.2-.4c0-.3.5-.6.5-.7 0-.2-.3-.6-.4-.6h-.4z"/><path d="M164.7 286.7s.4.2.4 0c0-.1-.5-.3-.4 0zm10.8-3.8c.2 0 .1.5.4.4.3-.3-.3-1-.4-.4zm2 1c.4.2.1-.6 0 0z"/><path d="m178.5 284.9-.5-1c.4 0 .8-.2.9-.6-.2 0-.8 0-1 .3l-.3.5c-.2.3-.3.1-.2.4h.2c.2.2-.2.5 0 .6h.7v-.2c.3.4 0 .4 0 .7.5 0 .6-.7.2-.7zm3.3-3.2-.3-.5c.1-.3.3-.6.3-1-.5-.1-.3.7-.3 1 0 0-.4.2 0 .2a2.3 2.3 0 0 1-.2.8l.1.2c-.2.2 0 .5 0 .7l-.2.3.2.8c0 .4-.2.8 0 1l.4-.2c0-.8.3-1.8-.1-2.7l-.2.1c.6-.3.6-.4.3-.7zm.1-1.5c.6-.1 0-.6 0 0zm1.3 4.2c.5-.2 0-.6 0 0zM182.2 280l.2.3c.2 0-.1-.4-.2-.2zm2 1.6s-.2-.5-.1-.7c-1 0-.2 1.2.1.7zm-.2-2.3c-.3.2-.3.6-.4 1 .3-.3.8-.7.4-1z"/><path d="M184 279.9c.4 0 .9-.3.8-.8a1.3 1.3 0 0 0-.8.8zm1-1.2c.5.7 1 .2 1.8.2-.3-.6-1.4-.4-1.8-.2zm15.7-3.8c.6.3-.2-.7 0 0zm1.3 1.6c.6-.2-.2-.6-.2-1-.3-.3.3.8.2 1zm-13.9 4.9v-.5c-.4-.1-.2.6 0 .5zm-.6-2.2.2.2c.2 0-.1-.4-.2-.2zm22.4-5.5h.2c.2-.7-.9 0-.2 0zm-131.2-1.3c.5.4.3-.4.3-.5l-.3.5zm4.8 1.1c-.4.8.7.3 0 0zm-.1 3.7.7-.1c-.3-.2-.6-.3-.7 0zm91 4.6c.2 0-.2-.1-.3-.2l.2.2zM3.3 176.1v-.7c-.5-.1-.9-.1-1 .2 0 0 .5.6.6 1v.4l.2.4h-.4v.3a1 1 0 0 0 .6-.5c.2-.4 0-.4-.2-.5-.4-.3 0-.4.1-.6zm8 19c-.1 0-.2 0 0 0 .3.1.5.2 0 0zm1.5 12.3c.2.2.5.3.8.3 0-.3-.2-.3-.3-.8-.3.2.3.5-.5.5zm11.6 16.2c-.6 0-1.1 0-1.8.4.1.6.5 0 .7.1l.1.2a1.8 1.8 0 0 0 .7-.4.4.4 0 0 0 0 .3c.4.2.4-.3.6-.2.1.1-.2.3-.1.4.3.1.6-.2 1-.3 0 0 .2.3.1 0-.3-.4-1.4-.1-1.3-.5zm13.7 13c-.5 0-.5-.7-1-.8h-.4l-.4.2c.3 0 0 .4.3.5h.4l.6.2c.2 0 .6 0 .5-.2zm.4 1.2c.3-.1.5 0 .4.3.6-.5 0-.9 0-1-.6-.2-.8 1-1 1.2.5-.3.9.2 1.3.1.2-.4-.8 0-.7-.6zm175.4 32c0-.5-.8-1.2-1.2-1.4.3-.1.2-.7 0-.7l-.3.8c-.1.1-.4-.2-.6 0l1.1 1.8c.5 0-.1-.4.1-.5.3 0 .4.6.8.2-.1-.2-.6-.3-.4-.6.2.3.3.5.5.4zm-105.2 13.5c.4-.2 0-1-.3-.7.1.2 0 .6.2.7-.2 0-.4.3-.4.5s.4.2.7.4v.3c.4.4.5-.2.6-.3 0 0 .4.1.4-.1-.4 0-1.6.3-1.2-.8zm26.2 2c-.2 0-.5.2-.8 0v.6l-.1-.2v.6h-.2v.3c-.1 0-.4 0-.3.3.2.4.5 0 .7 0 .2 0 .2.2.4.1.5-.1.2-.4.3-.7.2-.5.6-.3.8-.6-.5.1-.6-.3-.8-.4zm51.6-7.4c.1.5.5-.1.5-.3-.4 0-.2.5-.5.3zM78 267.7v.3c-.3-.5-1.3 0-1.7.4-.5.6.2.6.2.6l.1.5.5.1c-.4.3-.3.5-.2.6-.2.4 0 .6.2.8.4-.4 0-.5-.1-.8a1.8 1.8 0 0 0 .8 0c.2.1.3 0 .4-.2.2-.3-.2-.5.1-.9.3.2.5.2.6-.1-.6-.3-.4-1.3-1-1.3zm11.7 4.8c-.2.7-.3.3-.4.2l-.6.4h-.1a.6.6 0 0 0 .3-.4c-.2-.1-.5 0-.8 0-.3-.1-.8-.4-.8-.6 0 0 .7-.8 0-.7 0 .4-.4.4-.5.7l.3.2c.1.5-.3 0-.3 0l-.1.9c-.1.3-.6.5-.2.7.2-.2.4-.5.7-.6l.5.2.4-.3-.2.2c-.3.2.1.3-.2.7l1.6-.3.3.1c.4-.2.5-.6.9-1-.5 0-.4-.1-.8-.4zm25.8 15c.1.6-.6.2-.8.8l.2.5a1 1 0 0 1-.1.2c.2.2.3 0 .6-.3.5-.4.5-.5.3-1 0 0 0-.4-.2-.1zm45-1.7c-.2 0-.4-.4-.5-.2v.4c-.2.2-.4.3-.2.7.2.5.6-.2 1-.3.4-.2.4-.4.5-.8-.4-.2-.5.2-.9.2zm23.5-3s.3-.4.1-.5h-.5c-.4 0-.2 1.3-.1 1.4 0 .1.2-.1.2.2 0 .1-.4.6 0 .9.2-.3.6 0 .8-.4l-.1-1.2c-.1-.3-.4-.3-.4-.4zM201.7 274.1c0-.2-.5-.4-.8-.8l-.4-.5c-.2 0-.3.2-.4.3 0 .1-.2.4 0 .6v.3c.7-.8 1.4.4 1.8 1.5.5 0 .3-.7-.2-1.4zm-119.2 1.7c-.3-.3.1-.5.2-.7l-.3-.7a1.1 1.1 0 0 0-.6.4l-.3-.1c.5-.9 0-.6-.3-.9l-.3-.4s0 .1-.1 0c-.4-.3-.8-.5-1 .1 0 .4.3 0 .5 0l-.2.2a1.7 1.7 0 0 0-.2.2c.1.3.4 0 .6 0v-.1c.2 0 .4 0 .5.2-.4.5-.3.7-.1 1v.2c.2.3.7.3.9.5l-.3.5c.3.2 1 0 1 .5-.4.1-.2-.4-.7-.3-.2.2 0 .6.2.8l-.1.2a.4.4 0 0 0 .3 0v.1h.2a.8.8 0 0 0 .4-.4c.2 0 .2.2.3-.2v-1.1c-.1-.3-.3.2-.6 0z"/><path d="m287 153.6.2.1s0 .1 0 0c.2.3.2.2.4.3 0 .2-.2.1-.3.1l-.4-.2c-.2-.2.1-.2 0-.6 0-.3-.2-.4 0-.5h.1s0-.2.2-.2h.4c.2 0 .2-.4.3-.5 0-.2.2-.2 0-.4h-.5l-.2.2.2.1c0 .2-.2.2-.5.3.1-.2-.2-.5-.3-.7 0-.4-.1-1 .3-1 .2.3 0 .3 0 .6l.6-.3c.3-.1.4-.4.4-.8l-.1-.3c0-.1.1-.4-.1-.4s-.1.3-.2.4h-.4v-.4c-.2-.2-.3 0-.3-.2 0-.3.3-.2.4-.5.2 0 .2.1.2.2.3 0 .2-.4.3-.8h.2v-.2l.2-.3s-.4-.2-.3-.3l-.2.3c-.6 0-.4-.7-.5-.9.2-.2.2.2.4.1 0-.4.2-.7 0-1.1h-.3c-.2 0-.3-.3-.3-.5l.3-.4.4-.3v.2a.4.4 0 0 0 .1.2c.2.2 1.4 0 1.8-.2v-.1c.2-.2-.3-.4-.1-.7-.6 0-.1.7-.6.6 0-.4 0-.7-.2-1 .4.1 1 0 1.2-.5-1.3 0-1.8-.5-1.5-1.7-.6.4-.7-.3-1 0 .3.1.7.8.8 1.4v.6l.2.1c-.3.2-.6.6-.7 1h-.2c0-.2.2-.3.1-.7 0-.2-.3-.4-.4-.5l.3-.2a.6.6 0 0 0 0-.1h-.3v-.4l-.3-.1-.1-.6c-.1-.3-.3-.4-.1-1l.1-.1v-.4c0-.1.3 0 .3-.2l-.1-.4a.9.9 0 0 0-.2 0v-.5h.3l.1-.2h.5c.2 0 .2-.2.3-.3h.8c0-.2-.3-.2-.2-.1 0 0-.2-.4-.4-.4s-.1 0-.2-.2c0-.2 0-.4-.5-.3v.4l.4.3a1.2 1.2 0 0 1-.3.4c-.5.1-.7-.3-.8-.7l-.4-.9.2-.4v-.6c.1-.1.5-.2.5-.4s-.2-.2-.3-.4v-.7c0 .1.5.2 1 0l.7-.3c0-.3-.7-.4-1-.6-.2.2.1.4.1.4l-.2.2-.2.2a.9.9 0 0 1-.6-.3v-.3l-.2-.3.1-.8c.5-.2.6.5.8.7.3-.2 0-.4.3-.5l.2-.1.3-.2h.4l.4-.4c0-.2-.1 0-.2 0 0 .1-.1 0-.2 0l-.3.2c-.4-.2-.3-.5-.3-1-.4.1-.5.5-.7.7h-.3c0 .1.1.3 0 .4-.3 0-.4-.2-.4-.3-.1-.2.3-.6.3-.8-.1-.3-.6-.2-.6-.6.1-.2.5-.2.6-.3 0-.3-.2-.1-.3-.2-.2-.2-.2-.5-.3-.7 0-.2-.4-.4-.4-1l.4-.4-.3-.4c0-.2.2-.2 0-.3a.5.5 0 0 1-.2-.3l.3.1c.1-.6 1.6-.5 1.4-1.3-1 0-1.5-.3-1.7-.6-.3-.5.6-.5.7-.6l.1-.3 1.8-.4c.2-.1.3-.4.5-.4.3-.2.5 0 .6-.1.4-.5.2-1.4-.7-1.2 0 .6.2 1-.4 1.3l-.8.1c-.3.2-.3.5-.6.5-.3-.5 0-1.3-.5-1.8a1.6 1.6 0 0 0 .4 0c.2-.2.3-.3.2-.6 0-.2-.2 0-.3 0 0 0 0-.7-.2-.7-.1-.1-1 .1-1 .2v.4a2 2 0 0 1 0 .4c-.1.1-.2 0-.2 0s-.2.2-.3.1c-.2 0-.4-.6-.4-.8 0-.3 0-.6-.2-.9h.3c-.3-.5.1-1-.1-1.3l-.5-.4h.2c.2 0 .1-.2.2-.2h.3c.1-.2.2-.2.1-.6h-.5v-.3c-.3-.5-.8-.8-.7-1.5.1.1.3.2.4.5.1-.2.3-.2.4-.3l.4-.3h.4l.2-.2h.3c.3 0 .2-.3.6-.3-.5 0-.7.3-1 .1-.2 0-.3-.5-.4-.7h-.2c-.1 0 0-.3-.3-.3-.2.4.5.9.2 1.2-.5.2-.7-.5-1-.8 0-.3-.2-.3-.2-.7 0-.4 0-.8.4-1 .2.2 0 .4 0 .5.4.3.9 0 1-.4 0-.3-.4-.7-.4-1-.4 0-.2.6-.4.8l-.3-.2.2-.1-.2-.2-.3-.4c.1-.2.4-.2.6-.3l.7-.7-.2-.1h-.3c0-.1 0-.4-.2-.4 0 0-.5.2-.5 0-.2.2.1.4.1.6 0 0-.2 0-.2.2-.6-.4-.8-.6-.9-1.4l.2-.1.2.5c0-.4.7-.4.8-.6l.1-.3.2-.2-.3-.8c-.1-.2-.2-.5-.4-.6-.4.2-.4.6 0 1-.6 0-.7.5-.6.9-.1-.3.2-1 0-1.2-.3-.2-.6 0-.8-.2-.1-.2.2-.1.3-.3v-.1h.2v-.3c.1 0 .5 0 .5-.2 0-.1 0-.5-.2-.8-.4.2-.4.6-.8.7-.3-.3-.8-1-.6-1.5.3 0 .5.4.6.7a2 2 0 0 1 .8-1c0-.2 0 0-.1 0l-.2-.1s-.1.2 0 .2c-.3 0-.5-.1-.7-.4a.4.4 0 0 0-.2.3c-.2 0 0-.3.2-.3l-.3-.2c-.1-.3 0-.6-.2-.8.3-.2.4 0 .6.1.2-.1 0-.4 0-.7 0-.3.2-.2-.2-.3-.1-.1-.2-.1-.2-.3l.2-.4a.8.8 0 0 0-.1-.2l-.5.1c-.2.2 0 .2 0 .5-.5 0-.6-.5-.7-.9.3-.2.2.4.5.4 0-.4.7-.8 1-1h.3c.4 0 .2 0 .1-.3v-.3c0-.1 0 0-.2 0h-.4c-.3 0-.3-.5-.7-.3.2.2.5.2.4.6 0 .5-.4.3-.7.2-.3-.1 0 0-.3-.5-.3-.3-.3-.2-.4-.7v-.5l.2-.3c.1-.2 0-.3-.2-.4l-.1-.1h-.5c0-.4.8-.5.6-1 .6-.2 1.7 0 1.3-.8l-1 .3-.1-.2h-.2c-.2 0 0-.4-.4-.3-.2.2.3.5.3.8l-.2.1c-.1.2-.2 0-.4-.1a1.3 1.3 0 0 1-.7-1.1V97h.2c.1.2.1.6.5.4V97c0 .2.2.3.6.3 0-.4.2-.8.7-.7 0-.3 0-.4-.4-.4-.3 0-.2.3-.3.4a.7.7 0 0 1-.3.1v-.2l.2-.3c0-.2-.2-.5-.7-.5-.4.2 0 .4-.2.7l-.4.2v-.3l.2-.2c-.1-.3-1-.2-.6-.7l.2-.1c.2-.4-.2-.3.1-.4.2-.1.2 0 .3.1.3-.2-.2-.7.2-.9.2.2 0 .4 0 .4 0 .2.3.2 0 .4l.4-.2s-.2 0-.2-.2.2-.3 0-.6c-.5.5-.7-.2-1.2 0-.1.2.2.4.2.6-.4.2-.6-.2-.9-.5-.2-.1-.2-.2-.2-.3 0-.2-.2-.1-.2-.3v-.8c.2 0 .6.3.4.7.3 0 .2-.3.2-.3h.3l.1.4.5-.2v.2c.3-.2 0-.2 0-.4l.1-.1v-.3s.4 0 0 0a1.3 1.3 0 0 0-.2-.2c-.2-.1-.5-.1-.6-.7-.2.3-.6.3-.5.5-.3 0-.4-.3-.6-.4.5 0 .4-.5.8-.8.2 0 .3.2.2.4.4-.2-.1-.5-.2-.7 0-.2.3-.3.1-.5-.2-.3-.2 0-.5.1-.2 0 0-.2-.2-.3v.1c-.1.2-.3-.1-.5 0-.2.3.1.3 0 .6-.4 0-.7-.5-.9-1 .3 0 .4.3.6.2 0-.3.2-.6.7-.6 0-.4-.5-1.1-.9-1.1l-.2.1c-.2.1 0 .2-.2.3 0-.4-.3-.3-.6-.3-.2-.1.2-.2.2-.2s0-.2.3-.4c.2-.2 0-.3.1-.6 0-.1.1-.5-.2-.6 0 0-.1.2-.2.1 0 0 0-.1-.1 0-.2 0-.6.2-.4.4-.2 0-.4 0-.5-.2l.2-.7v-.3c0-.1 0 .2.3.1v-.2c.4 0 .3 0 .3.1.2 0 0-.2.1-.3h-.8l-.4-.2c-.2 0 0 0-.2-.3l-.6-.5c0-.2.4-.7.6-.7.2 0 .2.4.4.2.3-.2.2-.4.2-.4l-.3-.2-.2-.1-.4.1-.2-.3h-.5a.8.8 0 0 1-.3-.4l.4-.8h.3c0-.4-.1-.7-.5-.8-.2.3.3.3.2.6-.3.2-.7 0-1-.2l-.2-.4c-.1-.2-.3-.3-.2-.4 0 0 .2-.1.1 0l.3-.2h.1c.2 0 0 0 .1-.3.1-.2.5-.2.2-.5h-.2v-.3c-.4-.2-1.2 0-1.2-.2v-.3l1-.4c.2-.1.2-.3.1-.5h-.7c-.2 0 0 .3-.3.3s-.3 0-.7-.3c-.5-.3-1-.6-.4-1.1-.1 0 0 .3.2.1l.2-.2.2.1a1 1 0 0 0 .3-.2c0-.2-.1-.2 0-.4 0 0 .4 0 0-.3-.2.2-.5 0-.8-.2-.4.2 0 .5-.5.7-.2-.1 0-.2-.1-.3-.2-.3-.6-.2-.6-.7l.2-.4s-.2 0-.2-.2l.2-.3h.3l.2-.1c.2-.1.5-.1.2-.6-.4.2-.7 0-1-.3-.2.2.1.6.1.9-.3.3-.6.2-.8 0a3.1 3.1 0 0 1-.6-1c.4 0 .6-.3.8-.4.2 0 .2.4.4 0 .1 0 0-.1 0 0 .1-.4.8-.8.2-1-.1.1-.2.3-.5.4l-.4-.5-.3.3c-.2.2 0 0 0 .3 0 .1-.3.2-.2.3 0 .2.4 0 .5.2l-.5.3c0-.2-.2-.3-.3-.5l.1-.1c0-.2-.1-.3-.3-.3 0 0-.3.1-.4 0 0-.2.1-.2.2-.3 0-.2 0-.1.3-.4.3-.3.1-.6.7-.7 0-.2-.2 0-.4 0v-.3h-.3c-.2 0-.2-.3-.5 0 0 .2.4.7.2.9-.3.2-.8-.2-1-.4l-.1-.2h.4v-.3c.2 0 .5-.3.7-.6v-.7l.3-.3v-.4c-.9.5-.8-.8-1.3-1l-.4.2c-.8.2-.4.3-.4 1.1v.6l-.2-.2c0-.4.2-.4 0-.5-.1-.2-.6-.2-.7-.2-.1-.1 0-.2 0-.2a1.5 1.5 0 0 0 .1-.3h.5c.2-.1.1-.3.2-.4.1-.1.8-.2.6-.6-.1-.2-.4 0-.6 0-.2-.1-.3-.5-.6-.6-.3.2.2.6.3.7h-.3c-.1 0 0 0 0 0-.3.2-.5 0-.7 0h-.2l-.6-.4-.2.1c-.1 0 0-.2 0-.2h-.3l-.1-.4c0-.2.1 0 .2-.1.2-.2 0-.4.4-.4.2 0 .2.3.4.3l.2-.2.2.1h.5c0-.1.1-.4 0-.4 0-.2-.2 0-.4-.1l-.1-.3c-.2-.3-.5-.2-.5-.4l-.3.4h-.8l-.3-.3.6-.5c.1 0 .5 0 .4-.3a1.4 1.4 0 0 0-.2-.4h-.3c-.2-.2-.4-.6-.7-.3 0 .3.3.5.2.8-.5 0-1-.4-1.3-.8-.4.1 0 .3-.2.5-.1-.2-.7-.5-.8-.6v-.6h.4s.2 0 .3.2l.1.3h.4c.1 0 0 .1.2 0 .3 0 0-.2.1-.3.2-.2.3.2.4 0 0-.3-.3-.3-.4-.4l-.5-.4a2.5 2.5 0 0 0-.6-.2l-.4-.1.4-.4v-1l-.3-.1-.3.3-.7-.2s0-.5.2-.6c0 0 .2 0 .2-.2l.1-.4.1-.1c-.3-.2-.2 0-.4.2.1-.2-.4-.2-.2 0-.3.2-.2-.2-.4-.2h-.7c-.2 0-.2-.3-.4-.6 0-.1.3 0 .4-.2.1-.2-.2-.4-.2-.6l.1-.2v-.2c0-.1.3-.2 0-.4-.2-.1 0 .2-.2.3l-.3-.2h-.7c-.2 0-.2-.3-.5-.3.3-.1.2 0 .4-.4h.1c.2-.2 0-.4-.2-.3a1 1 0 0 0-.3.1c0-.5-.3-.6-1-.8 0-.4.4-1 0-1-.3-.1-.6.2-.8.3 0 .1.3 0 .4.3v.5c0 .2.2.3.3.4v.5c0-.2-.3-.1-.3-.1l.4.5h.2v.1h.2l.2-.1v.4c0 .1-.7.2-.4.5-.8-.3-.3-1.3-.9-1.6l.4-.1c0-.3-.3 0-.4-.1-.1 0 0-.2 0-.2h-.3v-.5s0 .2-.2.1V55c0-.1.2 0 .2 0l-.1-.2c.2-.2.2-.1.4-.1.2-.3 0-.2-.2-.4 0-.2.1 0 .3-.3l-1-.5c0 .2.1.4-.3.5.1-.2-.2-.3-.2-.5l.1-.3-.4-.2v-.2c-.2 0-.5 0-.6-.3.3 0 0-.3.3-.5-.3 0-.4-.5-.6-.6-.1 0-.6.2-.6-.1l.1-.1-.1-.2.5-.5c.4-.4.7-.5.3-.9h-.3a2.7 2.7 0 0 0-.8.1c0 .2.4.3.3.6-.3.3-.6.2-1-.1-.3-.2-.6-.7-.7-.9 0-.1.2-.3 0-.5h-.3v-.3c-.3-.3-.8-.3-.8-.8.2-.3.2 0 .5 0l.3-.3.2.2h.2c.1 0 0 0 0 .2l-.4.1c0 .4.5.6.6.7 0 .1-.2.5 0 .6.4 0 .4-.3.7-.3-.1.1-.2.3 0 .4l.2-.3h.5s.1-.5.2-.4c-.1-.2-.4-.2-1-.5l-.4-.3c0-.3-.2-.1-.3-.3l.2-.4c0-.1 0-.3-.2-.4 0 0-.2.2-.5.1l-.4-.2h-.7c.2.2.8.7 0 1l-.9-.5-.4-.5h-.2l-.2-.7c.2-.2.1 0 .2.1h.2l.3.1h.3c.2.1 0 .2.2.2.1 0 .4 0 .3-.3l-.5-.5v.2l-.3-.1h-.7c-.2 0-.3-.2-.4-.3l-.4-.1c0-.2.2-.1.3-.2.1-.2.2-.4.5-.4.5.1.4.4-.1.8.2.2 0 0 .4-.1.3-.1.5.2.7-.4 0-.1-.6.2-.5 0-.2-.2.1-.2.2-.3 0-.2-.2-.2-.2-.2h-.2l-.1.1c-.3-.1-.2-.3-.3-.5-.3-.5-.4-.3-1 0 0 0 0-.4 0 0-.2.1 0 .2.3.4-.3.5-1.1 0-1.5-.2a2.3 2.3 0 0 1-.4-.5c-.1 0 0-.3-.2-.4h-.2c-.3-.3-.3-.7-.7-.4l.1-.3.3-.4c.2-.2.5.1.8-.2-.1.2.3.4.3.6 0 .2-.4.3-.4.5 0 .5.4 0 .5 0 .2 0 .3.4.2.4h.5c.2 0 .1-.2.2-.3h.4c-.2-.5-.7-.2-1.2-.6-.1-.2.1-.1 0-.4l-.5-.4c-.3-.3-.2-.8-.7-.3 0-.2-.1-.6-.5-.6-.1.2.2.3.1.4-.3.1-.2-.5-.6-.2-.2.3.2.4 0 .6-.2.2-.3 0-.8 0-.2-.1-.8-.3-.9-.8h.3l.2-.1s0 .2.2.3c.2 0 .3-.1.4 0v-.5a1.3 1.3 0 0 1 .4-.3c0-.2 0-.3-.3-.4-.2.6-.5.4-1.1.1a1.2 1.2 0 0 0-.2 0h-.6c-.1 0-.2-.5 0-.5 0 .2.2 0 .2 0s0 .3.2.2c.2-.1.2-.3.2-.5 0-.1.2-.3-.2-.5.2-.1.3.1.4 0 .1-.2-.2 0-.3-.1v-.2h-.3c-.2-.2-.2-.5-.4-.5-.2.2 0 .3 0 .5 0 .1-.3 0 0 .2-.2.2-.2-.1-.4-.2h-1v.3l-.3-.2v.2c-.2.3-.2-.5 0-.2l.6-.4.8-.7.1-.2c0-.5-.7.1-1-.1l.3.4c-.6.6-1.2 0-1.8-.2-.2 0 0 .3 0 .3-.4.4-1-.2-.7-.7h.3V36c-.5-.5-.7-.6-1.1-.3-.3-.3.3-.4.3-.7v-.1l.3-.3c0-.2-.1 0-.3 0l-.1-.3c-.1 0-.3.1-.4 0-.1 0 0-.2-.2-.1 0 .4.3.1.3.5v.1s-.4.4-.6.3c-.2 0-.3-.4-.5 0-.2 0 .2-.3-.1-.4-.2 0-.3.4-.5.1v-.6a1.8 1.8 0 0 0-.5-.5l-.4.2-.5-.2-.8-.1c.3 0 .2-.4.4-.6.1-.2.2 0 .3-.4v-.5l.2-.2v-.1l-.1-.2h-.3c-.2 0-.2.2-.5-.2-.2.2.2.2 0 .4-.2-.1-.4-.2-.5-.1-.1.3.3 0 .4.2.1.2 0 .6-.2.7h-.7l-.1-.2-.3.1-.4-.3a1.7 1.7 0 0 0 .1-.3c0-.2-.2-.2-.3-.4l-.5-.7c-.3-.1-.4.2-.8 0 .3-.2.6-.2.8-.5.3-.3.3-.8.6-.8.1-.2-.1-.2-.3-.2H227.4l-.4.5c-.1 0-.3-.2-.2.2h.8l-.7.3V30c-.3 0-.4.3-.6.3-.1 0-1.3-.3-1.4-.8 0-.2 0 0-.2-.3l-.2-.3a1 1 0 0 0-.6 0c-.2.1-.4.6-.6.6v-.7l.4-.3v-.2s.3-.2.2-.4h.2l.3-.2c.1 0 .2 0 .3-.3 0-.5-.2-.3-.5-.2-.3 0-.5-.1-.6.1 0 .1 0 .3.2.4a.5.5 0 0 0-.3 0l-.4.5h-.3l-.2.2-.6-.3a3 3 0 0 1-.7-1c.2-.2.1.2.2.3.1 0 .2-.2.3-.1 0 0 .2.3.5.4 0-.4 1-1.2.7-1.6-.3.3-.6 0-.9.2l-.1.2h-.2a2.6 2.6 0 0 1-.8.3c-.2 0-.2-.1-.4 0-.2-.4.6-.6.7-.8 0-.2-.1-.1-.2-.3v-.2c-.1-.2-.4-.3-.6-.4l-.2-.2a3.2 3.2 0 0 1-.7.3c0 .2.4.3.5.4-.7 1-1.7 0-2.3-.3.4-.7.7 0 1-.1l-.1-.2h.2c.2-.1 0-.2 0-.3.1-.3.4-.3 0-.3l-.3-.1h-.4c-.2.2 0 .7-.4.7l-.6.3a1 1 0 0 1-.5 0v-.5h.2a1.9 1.9 0 0 0 .1-.5c0-.2 0 0-.3-.2.1-.1.2-.1.4 0 0-.2 0-.5-.2-.7-.1-.1-.3-.4-.6-.2l-.2.3c-.2.4.5.1.5.6-.3.4-.9.6-.9.1v.3c-.3.2-.4-.2-.7-.1 0 .3-.3.3-.4.3v.2l-.5-.1.2-.1c.2-.2-.2-.4 0-.6.2 0 .1 0 .2.2.2-.1 0-.4-.2-.5l.7.4c.2-.1.3-.7.5-1.1l.5-.4.1-.5c.2-.2.5 0 .5-.3s-.5-.4-.6-.7c0 0 .2-.3 0-.3s-.5.1-.6.5c.5.5.6.6.5 1l-.2.5h-.3c-.4.1-.2 0-.6-.2-.3-.1-.8 0-.8 0-.2.2 0 .8.2 1-.4-.1-.8.7-1.2.1-.1-.1-.2-.1 0-.4-.1 0-.2-.1-.1-.2.2 0 0 0 0-.3 0-.4.1-.2-.3-.5-.2 0-.2-.3-.3-.3-.1 0-.3.3-.3.1 0-.2 0-.1.2-.3-.3 0-.3-.3-.4-.3l-.1.1h-.4l-.1.3c-.3 0-.4-.2-.6-.4.3-.4.5.5.8 0 0-.2-.3-.3-.4-.3-.3 0-.9.5-1.3.3.1-.2.3 0 .4-.2-.1-.3-.5.1-.6.1l-.5-.2c-.2 0-.3.2-.4 0h.5c.2 0-.1-.3 0-.5.3 0 .5 0 .4-.2v-.2c.1-.2.3-.4.5-.4-.4.4 0 .5.3.6.2-.4.5-.5.2-.6-.3-.2-.4-.5-.5-.6v-.1a1.1 1.1 0 0 0-.4-.3c-.3 0 0 .7.2.6l-.1.3c-.2.1-.7 0-.6.2l.2.2-.6-.1c-.3.2 0 .2-.2.5l-.7-.2a2 2 0 0 1 .3-.7l.4-.2c.2-.3.6-.6.7 0 .3-.4-.3-.5-.7-.7 0 0 0-.2-.2-.2-.4-.1-.8 0-1 .4 0 .1.4 0 .5.3a1.4 1.4 0 0 1-.6.5c-.1.3.2.3 0 .6 0 0 0-.3-.2-.3h-.3l.1-.3a1.4 1.4 0 0 0-.5-.1l-.6.3c0-.2-.2-.1-.3-.3 0-.1.1-.2 0-.2v-.1c-.1 0 0-.2 0-.2-.4 0-.5.3-.9.6v-.2c-.2-.2 0-.4 0-.8v-.2c0-.3.3-.7.2-.8 0-.3-.6-.5-.9-.4l-.5.2c-.1.4.3.1.6.5-.5 1-1.6 0-1.8-.6.1-.3.5-.1.5 0 .2-.2 0-.2.1-.4 0-.3-.3 0-.4 0h-.3c-.2 0-.4.4-.6.3l-.1-.1h-.5a1.5 1.5 0 0 0 0-.4c0-.1-.2 0-.3-.2v-.3h-.7c-.1.3.2.2.2.2s0 .4.2.2c0 .3-.7.1-.8-.2.2 0 .1-.3.2-.5l.2-.3s-.2-.5 0-.7c0-.2.1-.1.3-.3-.2-.2-.5-.4-.7-.3-.2 0-.3.2-.5.4 0 0-.3.2-.5.1.3 0 .1-.4.2-.8l.3-.3-.1-.5c0-.1.2 0 .2-.2 0-.3-.1-.5-.4-.4-.2.3 0 .3-.1.6-.3.2-.4 0-.7.1.2.4.4 0 .5.3v.5c-.2.4-.9 0-1.2.2 0 0 .1.1 0 .2 0 .2-.5.5-.7.4a1.1 1.1 0 0 1-.4-.3v-.6c0-.2-.6-.3-.8-.1l-.1.1c-.1 0-.5-.4-.8.4-.2 0 0-.2 0-.3v-.3l.5-.5c0-.2 0-.4.2-.5 0-.2.3-.3.3-.6-.3 0-.7 0-1 .3 0 .1 0 .4-.3.3l.1.4c-.1.3-.4.3-.8.2l.1-.5.2.2c-.2 0 .4-.3.3-.2.3-.4 0-1 .5-1.7l.2.2c0-.1.1-.7.3-.7-.6-.7-.8.2-1.5.5h-.3l-.3.4c.4.2.5-.2 1 0a1.5 1.5 0 0 1-.7 1.3h-.6l.2-.1c-.3 0-.6-.6-1-.4.3.1 0 .2 0 .4l.3.1c0 .1-.2.3 0 .3l.3-.2-.1.2c0 .2.4 0 .6 0l.5.2-.6.2c-.5 0-.9-.5-1.5-.5 0-.2.2-.7.6-.6 0-.2-.3-.2-.2-.4l.1-.3.2.2-.1-.3h.3c0-.1 0-.3.2-.4l.3-.1c.2-.2 0-.6.3-.8h-.2l-.6.6h-.5c-.3 0-.3.2-.5.4 0 .3.3 0 .4.2l-.1.5c-.4 0-.7-.5-1-.3 0 .2.1.5-.2.6h-.1c-.3.3 0 .4-.3.5-.1 0-.4-.1-.5-.3 0-.2.3 0 .5 0 0-.2 0-.5.2-.9l.2-.1v-.3s.4-.4 0-.4c0-.5.3-.6.6-.7-.2-.5-.6.2-.8.3h-.3c-.3 0-.6.4-.9.5.1.3.5 0 .8.2 0 1-1 .5-1.5.5 0 .3.4.3.3.7-.3 0-.3-.3-.5-.4h-.4l.1-.3c-.1-.2-.4-.1-.5-.2-.3-.1-.4-.5-.8-.1l-.1.2c-.6 0-.4-.6-.7-1-.3 0 0 .4 0 .4l-.1.3h-.6V11l-.1-.1s.1-.1 0-.2c0 0-.2-.1-.4 0l-.2.2h-.9s-.4.4-.7.1v-.2h-.2l.2-.2c0-.3-.2-.5 0-1 .3.1.3.4.7.4.3-.4.6-1 1-1.2-.3-.1-.4-.4-.6-.5l-1 .2h-.6c-.2.3 0 .5 0 .8l.3.9h-.4c0 .1 0 .5-.2.5l.4.1-.1.2-.3-.1c-.2.1 0 .3-.1.4-.3 0-.5 0-.5-.6l-.3.5c-.3-.1-.3-.5-.6-.6.3-.2.2-.1.3-.8a.6.6 0 0 1 .2-.2V9h.1v-.2h.2l.3-.3s.4-.3.2-.6l-.7.2-.6.5h-.1v.2c-.2 0-.3-.2-.3 0s.5.2.7.2c-.2.2-.2.6-.5.7l-.7-.1c-.3.5.3.3.2.7-.3-.2-.5-.1-.7-.3l.2-.4c0-.2-.3-.2-.5-.5-.1-.3 0 0-.2.2-.2 0 0-.3-.3-.1l.2.1c0 .9-1 .8-1.6.6l-.7-.4c-.2 0-.2.1-.3.2h-.7c-.4 0-.8 0-1.2-.2 0-.3.4-.3.2-.6l.2.2c.2 0 .4-.3.6-.2 0-.2-.3-.1-.3-.1v-.2l-.8.3c-.5-.1-.6-.3-1-.6V9l-.2.3c-.1.2 0 .4-.2.6-.4.4-1 .7-1.5.4h.2l-.1-.2c.1-.2.2 0 .3 0l.3-.2c.1 0 .4 0 .6-.3V9c.1-.1 0-.2 0-.4 0-.3.1-.8.3-1h.2s0-.5-.3-.4l-.1.2-.2-.2-.2.2c-.3.1-.7-.2-1 0 .3.4.9 0 1 .4.1.2-.1.1-.2.2 0 .1 0 .3-.2.3l-.5.1-.4-.2c-.2 0-.4.2-.6 0-.3-.2-.6-.6-.8-.6l-.2.4h-.3l-.2.2c-.2 0-.2-.2-.3-.2l-.3.1a3.2 3.2 0 0 1-.5 0h-.2c-.2-.1-.5 0-.7-.3h.1c.5-.1.7.3 1.1.2l.3-.5v.2l.3-.3c.4-.4.8-.9 1-.9.5.1 0 0-.1-.1-.3-.1 0-.4 0-.4 0-.2 0-.1-.1 0 0-.2 0-.4-.3-.3v.2a2.7 2.7 0 0 1-.2 0l-.5.2s0-.2-.2-.2c-.3 0-1 .3-1.2.6-.2-.1-.5-.2-.6 0 0 .3.6.4.8.2h1.4v.5c-.3.2-.5 0-.8 0-.2.1-.2.4-.4.4 0 0-.1-.3-.3-.2v.3c-.4-.3-.7 0-1-.3 0-.2 0-.5-.3-.5-.3-.1-.5.3-1 .3l.1-.6.7-.3.2-.2c.4-.5 0-1.5.5-1.7.2 0 0 .2.3.3h.3l-.2-.4c0-.2.1 0 .3-.3a2.7 2.7 0 0 0 .1-.6l-.1-.5c-.3.2.1.4 0 .7-.3 0-.1-.3-.3-.4l-.2.1a2.3 2.3 0 0 0-.3 1c-.2 0 0-.2 0-.4h-.3c-.3 0 .1.1 0 .3-.2.2-.3-.1-.4.2l.2.5h-.2v.3h-.3v.1h-.2l-.2.2-.2.1v.2c-.2 0-.5 0-.6.3h.2c-.3.5-1.3.6-1.5-.1h.5v-.2c.1 0 .1.1.2 0 0 0 0-.4.5-.2 0-.4-.1-.3-.2-.3l-.1-.1-.6.2c-.3 0-.2-.4-.5-.2.1.3.3.1.3.4 0 .6-.7.5-1 .6 0-.3 0 0 .2-.3v-.3c.1-.2.3-.2.3-.4v-.5h.3v-.4c.2 0 .3.2.4 0l-.1-.3v-.3s-.4 0-.3-.4c-.2 0-.2.4-.1.4l-.4.1-.2.3c0 .1.6 0 .3.7h-.2l-.2.3h-.3a.7.7 0 0 0-.3.3c0 .1.1.3 0 .4h-.2l-.8.5c-.3-.2 0-.2 0-.5-.2 0-.4.2-.3-.3-.2 0-.1.3-.3.2.1-.3.2-.6.1-.8h-.8s0 .2-.1.1l-.3.2c-.1.2-.4.5-.6.3 0-.3.2-.5.5-.5 0-.4-.2-.6-.3-1v-.2c.1-.1.7 0 .8-.4-.1 0-.4 0-.3-.2l.4-.6h.3l.5-.9c-.2-.2-.4.2-.6.2l-.3-.1c-.5 0-.4.7-.7 1.1 0 .2-.3.2-.4.4-.2.3 0 .6-.2.9-.2.3 0 .3-.3.3a1.5 1.5 0 0 0-.5.4v.3c-.2 0 0-.2-.3-.3 0 0-.2.2-.3.1v-.5s-.2.2-.3.1l.1-.2h-.6a2 2 0 0 1-.5.1c-.2 0-.3-.2-.4-.3 0-.1-.3 0-.1-.5v.1c.2 0 .1-.1.2-.2h.1l.1-.1h.2s-.1-.6 0-.8l.3-.3c.1-.3.1-.7 0-.8a.7.7 0 0 1-.2 0c-.1 0-.6 0-.7.2V2h-.3v.8l-.4.3c0 .5.3.4-.1.6l-.2.1v.3c-.1.1-.7 0-.8.2-.1.4.2.3.2.6-.4.4-.9.3-1.4.3.1-.4.3-.2.6-.4h.2c.1-.2 0-.1 0-.4l.2-.3c.1-.1 0-.4.2-.6 0-.1.3-.3.3-.5.2-.3.2-.7.2-.8l.4-.4c0-.3-.2 0-.4 0-.2-.2 0-.2-.2 0 0 .2-.3.4-.4.5v1.3h-.3V4h-.1l-.3.5h-.6c-.1 0-.4.2-.7.1l-.2-.3a1.5 1.5 0 0 1 .1-.4c.2-.1.4 0 .6-.3 0-.1-.2-.4-.1-.6 0-.4.4-.7.5-1 0-.2-.8-.5-.9 0 0 0 .1 0 0 .2-.1.1 0 .2 0 .2l-.2.2-.1.6c-.2.1-.5 0-.5.4l.2.2s0 .1 0 0c.1.2 0 0 .3.2.2.4-.3 0-.4 0v.4h-.5c-.3 0-.5.4-.8.4h.1V4l.2-.4.1-.7.4-.5.3-.6c0-.2-.6-.5-.7-.1h.1l-.4.8-.3.7c-.3.2-.7-.2-.8.2 0 .3.3 0 .4 0h.5c.1.2 0 .7-.3 1l-1 .1c-.3.1-.5.2-.8 0 0-.3.3-.2.4-.3 0-.4-.2-.4-.2-.7 0-.3.5-.4.5-.8 0-.2-.2 0-.3 0 0-.4.5-.2.6-.5l-.3-.6c-.2 0-.2.2-.3.1 0 .3.2.3 0 .5-.4 0-.8 0-.9.3 0 .3.2.4.3.8-.4 0-.8 0-.6.4V4c0 .2.3.1.2.4l-.4-.2c-.3 0-.4.4-.7.4-.2-.1 0-.1 0-.3v-.1c0-.3.2-.4.3-.7v-.3l.1-.3.1-.6c0-.1 0-.3-.2-.4l-.1.1-.1-.2c-.2.2-.2.3-.2.6s.2.3 0 .6c-.1.2-.2.4-.5.5l.2.4c0 .4-.8 1-1.4 1l-.3-.2s-.2.2-.4 0l-.1-.4c.2-.4.3 0 .6 0 0-.3-.4 0-.3-.4h.2a1.6 1.6 0 0 0 .3-.2l-.2-.3a.7.7 0 0 0 0-.3h.2c.2-.2.2-.5.3-.7l.2-.1c.2-.3.4-1.4.3-1.6l-.2-.1-.2-.3c-.2.2-.2.5-.5.7-.4.1-.5 0-.5.5.5-.2.8 0 .9.3.2.6-.3.8-.6 1v.3l-.2.1h.2a.4.4 0 0 1 0 .3c-.3 0-.8.2-.6.4 0 .3-.3-.1-.3-.1-.2 0-.1.4-.3.5h-.2v.3a4 4 0 0 1-.6.3v-.7l.3-.1c.1-.1 0-.2 0-.2.1-.3.2 0 .2-.4-.1-.3.2-.4.4-.4l-.2-.4s0 .3-.2.4L140 3c0-.3.1-.6.3-.6 0 .2-.1.2 0 .4l.3-.2c-.2 0 0-.3 0-.3h-.2c0-.3.3-.3.1-.8 0 0-.5 0-.5.2V2c0 .1-.1-.1-.1.2v.2l-.2.3v.2h-.1c0 .1.1.2 0 .4s-.6.3-.6.5l-.1.2s.4.2.4.4c0 .3-.3.6-.7.6-.2.1-.5 0-.7.2-.1-.4.2-.3.3-.5 0-.4-.4-.3-.3-.9.2-.1.4-.1.5-.3a1.1 1.1 0 0 1 0-.3l.1-.4c-.2-.1-.1.1-.2.2-.2 0-.4 0-.5.3v.2l-.1.2v.2c-.3.2-.6 0-.7.2l.1.3c0 .1-.1.3.2.4 0 .3-.2 0-.4 0l-.7.2V4c0-.1-.1-.3 0-.4-.1 0 .1 0 0-.1 0-.2-.1 0-.2 0l-.1.3-.7.2c0 .4.3.3.3.7 0 0-.1.1-.1 0l-.4.4c-.1 0-.6.4-1 .3-.3 0-.3-.3-.5-.7.3 0 .4-.3.7-.3.1-.2-.2-.1-.2-.4h.2v-.2l.1-.1v-.3l.1-.5v-.1c0-.2.3-1-.2-1-.2 0 0 .1-.2.3 0 0-.3-.1-.2.2 0 .3.5 0 .4.6 0 .3-.4.5-.6.8v.4l-.4.1-.4.5c0 .3.4.3.6.5 0 .6-.1 0-.4 0l-.3.3c-.2 0-.6-.1-.6-.3-.1-.2 0-.2.1-.5l-.1-1-.2.1c-.2 0-.2-.1-.3.1 0 .2.3 0 .4 0-.1.1 0 .4-.2.5-.2.1-.5.1-.7.3 0 .2.2 0 .3.2 0 .2-.2.2-.2.3 0 .1.2.2 0 .4l-.6.1h-.2c-.2 0-.4.3-.6 0l.1-.2v-.2l.4-.2v-1c-.5-.2-.3.4-.5.5-.1.2-.5.1-.5.2-.2.2-.2.5-.3.9.2.1.3-.3.5-.2.1 0 0 .5.2.4h-.3c-.2.1-.2.3-.4.3V6a1.2 1.2 0 0 1-.4 0c-.2-.2 0-.4 0-.6l-.2-.8c-.3.2-.6 1-.9.2-.2.1-.2.4-.3.6 0 .1.2.2.3.1.1.6 0 .6-.5.8l-.1.3h-.5c-.4.1-.7.3-1 0-.1-.2-.1 0-.3 0-.2 0-.2-.4-.6-.3l-.2.2c-.2 0-.1-.2-.3 0-.1.1 0 .4-.2.4 0-.4-.7-.2-.7-.3a.6.6 0 0 0 0 .5c-.5-.1-.5-.2-.5.4-.2 0-.4-.4-.6-.4 0 .7-.5.6-.4 0-.3.2-1.2.6-1.5.2.1-.1.3 0 .4 0l.3-.2v-.2c.2-.1.7-.1.7-.5l-.5.1-.5-.1c-.4 0 0 0-.3.2-.1 0 0 .2-.3.2-.2 0-.2-.2-.3-.2-.3 0-.5 0-.4.3-.4-.1-.2-.7-.3-1-.1-.1-1 0-.8.2.1.2.4 0 .5.2v.5l.2.3a1.3 1.3 0 0 1 0 .5c-.3.1-.3-.3-.4-.6-.4 0-.2.5-.2.7-.2.5-.1 0-.3 0-.2 0-.2.3-.3.3l-.5-.1v-.3c-.2-.1-.4 0-.6-.2a.7.7 0 0 1-.3-.2c-.2.1 0 .2.2.2 0 .2-.3.2-.4.2-.2 0 0-.5-.3-.3 0-.3.3 0 .3 0 0-.3-.3-.3-.4 0-.1 0 .3 0 .1.3-.2.1-.1-.4-.4-.3-.1.1.3.3 0 .4-.3 0-.1-.3-.2-.5l-.1-.2v-.3c-.2-.3-.4-.5-.6-.4-.2.2 0 .3 0 .4 0 .2-.3.2-.5.3v.2c-.1.2-.3 0-.3.3l-.4.5c-.2 0 0-.2 0-.3v-.4l.1-.3V5.8l.2.1c.4-.7.2 0 .8 0 0 0 0-.1.1 0 .3 0 .1-.3.1-.6 0-.4.3-.4.1-.6l-.4-.2-.3.8c-.1 0 0-.2-.1.1 0 .2-.3 0-.3 0l-.1.3c-.1-.2-.2 0-.5 0v-.2l-.4.2v1.5c0 .4-.4.5-.8.7 0 .2.2.3.1.6 0 0-.5 0-.4.2-.2 0-.3-.5-.1-.7l-.5-.3c-.1-.3.1-.2.2-.4v-.4c.1-.5 0-.5.3-.5l-.3-.2.5-.3c0-.3.5-.4.4-.7-.7.3-.4-.8-.5-1l-.3-.1v-.3h-.5c-.2.4.4.3.2.6-1 0-.6 1-1 1.5.4-.4.5.3.7.3v1.6c0 .6-.4.3-.8.6.3.4.6-.3 1-.1.2.4-.2.5-.4.7l-1 .7c-.2 0-.4-.2-.6-.1l-.3.1c-.2 0-.2-.3-.4-.3l-.3.1s0-.1 0 0c-.2.4-.4-.2-.5-.1l-.1.2-.4.5h-.3c-.1.2-.2.5-.4.6a2.6 2.6 0 0 1-.6.2h-.5l-.4.1c-.2 0-.2-.2-.4 0a.7.7 0 0 0-.1.3v.3c0 .1-.2 0-.2 0v.4c0 .2 0 .3-.2.4-.3.4-.3 1-.6 1.3a.6.6 0 0 1-.2-.3v-.6l.4-1c.2-.1.5 0 .5-.2s-.2 0-.3 0l.1-.5c-.1-.3-.6-.3-.5-1-.3.2-.2.4-.3.6-.4.2-1 0-1.2.6 0 .4.4.9.3 1.2a1.4 1.4 0 0 0-.2.4c0 .2.3.2.2.5-.1.3-.2 0-.4.2-.2.3 0 .3-.1.5h-.4v-.2c0-.2.2-.3.3-.4l.3-.1c0-.4-.2-.5-.3-.7V12l-.1-.5v-.7l-.1-.7.3-.5-.1-.5c0-.4-.4-.5-.7-.3-.2 0-.3.4-.4.5l-.3.4.1.4-.1.2v1l-.2.1.2.7-.2.2.3.3-.2.2c-.1.3.2.6.3.9-.1 0 0 .2-.3.2-.2 0 0-.2-.2-.3-.1-.1-.6 0-.5.1l.2.1c0 .2 0 .5-.4.3-.1 0-.2-.1-.2-.3-.2 0 0 .2 0 .3-.2 0-.3-.2-.4 0l-.1.2c-.1.2 0 .4-.5.4h-.3l-.4.1h-.3c-.4 0-.7.4-1 .5l-.3-.3c-.2 0-.1.2-.2.2l-.3-.1a1.8 1.8 0 0 0-.5 0s0 .2-.2.3l-.4.2-.2.3h-.7l-.7.5h-.5a.1.1 0 0 0 0 .1c0 .1 0 .3-.2.3 0 .3-.2.2-.4.3.2.5-.9.4-1 .5.2.2 0 .5-.2.3-.2 0-.4-.7-.6-.6-.2 0 0 .2-.2.4a.9.9 0 0 1-.4.4 1.1 1.1 0 0 1-.6 0c0-.2-.1-.8-.3-1l-.4-.3s.3-.1 0-.3c0 0-.4 0-.3-.1.3-.6.4 0 .6.3h.3c.2 0 .3.2.5 0-.2-.3-.4-.8-.2-1 .2-.2 1 .3 1-.2-.5 0-.8-.4-1.3.2l-.2-.2c-.2-.2 0-.4-.1-.7-.1-.2-.4-.1-.7-.5l-.2-.4h-.1v-.2l-.5.1-.1.1c0 .2.1.2.2.2h.3c.1 0 .2 0 .2.2-.3.2-.5 0-.7 0 0 .6.3.2.5.4.1.7-.4.4-.6.6v.1c-.2.5-.1.3.2.8v.4l.4.6.2-.1V17.5c-.4 0-1.3-.2-1.2.5.3 0 .6-.3 1-.4.1 0 .4 0 .5-.2l.2.1.6.7a1.2 1.2 0 0 0-.5 0c-.3 0-.9.6-1.2.8l-.4.5c-.2.2-.4 0-.6 0-.4.1-.6.7-1 .4 0 .3-.6.4-.7 0 0-.2.2-.3.4-.5.5-.7-.5.2-.7.1 0-.1-.7-1.2-1-1.2l.1.7c-.4 0-.3-.9-.8-.8 0 .5 1 1.7-.1 1.5 0 0 .3.6.2.7 0 .2-.3.2-.3.3-.1.2 0 .4-.2.6-.1.2-.4 0-.6 0-.2-.1-.5.1-.7-.2l-.3.3c-.2.1-.2 0-.4 0-.3 0-.4 0-.6.3-.1-.2-.4-.5-.6-.4v.5c0 .4-.3.5-.7.7 0-.3-.1-.4-.3-.6-.3-.2-.6-.2-1-.2-.3 0-.4.3-.7.5L75 22c-.2.3-.6.4-.8 0-.4.3-.4-.1-.8 0-.2 0 0 .3-.2.4-.1.1 0 0-.2 0-.4.1-.8-.2-1.2-.2-.2 0-.7 0-.8.3v.2c0 .2.2.3.1.4l-.5.4c-.3 0-.6 0-.8.4-.1.3 0 .5-.3.7 0 .2-.3.3-.3.5 0 .3.4.5.5.8v.4c.2.2.4.2.2.5-.1 0-.1-.1-.4 0v.3c-.2.1-.3.2-.7 0 0-.3.2-.3.2-.5-.1-.3-.3 0-.4 0 0-.3.4-.5.2-1l-.5.2-.2-.3c-.2-.2-.2 0-.4 0l-.5-.2-.2-.1c-.2-.2-.5-.1-.8.2l-.4.5c-.2.1-.7 0-.8.4v.3c-.1.1-.2 0-.4 0l-.6 1-.2.9c-.4-.4-.4 0-.8 0 .2.5.4.1.6 0l-.1.5c-.1.2-.3.7-.6.4v-.2l-.1.2c-.2.2-.4-.4-.3-.2-.2 0 0 .2-.2.3h.3c.3.2-.1.3-.2.4-.2.3-.2.6-.4.1l-.2.3c.3 0 .2.2 0 .4-.1-.1 0-.2-.2-.3v.3H61l-.2.5V31c0-.2-.1 0-.2 0l-.2-.2a2.3 2.3 0 0 0-.5-.1c-.3.2 0 0 0 .4a2.1 2.1 0 0 1-.5.6l-.4.2-.4.4c-.1 0 0 .2-.2.3l-.3-.2-.2.2h-.3s-.2.3 0 .4c0 .1 0 0 0 0 .4.1.1.3.4.3.3 0 0-.5.6-.4-.5.4-.5.9-1 1.2-.3-.2 0-.3 0-.5-.1.1-.4-.1-.7-.2-.2 0-.2-.2-.3-.4l-.3-.1c0-.2.1-.1.2-.2-.1-.1-.3-.4-.4-.3-.2.2.1.2 0 .3 0 .2-.2.1-.4.2h-.3c-.1-.2-.2-.4 0-.6-.2-.4-.4 0-.7-.2.2-.2.2-.4 0-.7-.3.4-.4.3-1 .8.6.2 1.1.8 1.6 1l.2.3c.4.3.8-.5 1.1 0 0 .3-.3.4-.7.8a.8.8 0 0 0 0 .2l-.5.1-.4.3-.3-.1h-.2c-.2 0-.2.1-.4.4v.4l-.2.2a.4.4 0 0 0 .4.2l.3-.4h.5c.2 0 0-.2 0-.3.1-.3.4 0 .5 0 .3 0 .3-.6.7-.3v-.6l.2.1.4-.3v.2c.2 0 .4-.4.4 0a19.5 19.5 0 0 0-1 .7c-.3.1-.3.4-.4.4a1.3 1.3 0 0 0-.2 0l-.2-.2c-.2.2.2.1 0 .3l-.4.2-.2.1-.4.1s0 .2-.2.3h-.3v.2h-.2c-.2.3-.3.4-.6.5-.3 0 0-.4-.2-.6H53c-.1 0-.3-.5-.5-.4l-.2-.2-.2-.3c-.4.3 0 .7-.4 1 0-.2 0-.6-.3-.7a1 1 0 0 0-.2 0v-.2c0-.1-.2 0-.4-.3-.2.2 0 .3 0 .5-.3.6-1 .6-1.4 1l.4.1c.2.1.2.3.3.5.4.3 1 0 1.5-.1.3 0 .4-.2.7-.6.4.6 0 .6-.6 1-.2 0-.3.3-.4.3h-.6c-.2.4 0 .7 0 1l-.1.4c-.2-.3-.4-.3-.4-.6l-.3.2c-.2-.1 0-.2 0-.3 0-.1-.2-.3-.1-.5 0-.1.2-.2 0-.4 0 0 0 .1-.1 0 0 0 0-.2-.3-.3l.1.6c-.3.3-.3-.2-.3-.4l-1 .5c.3.3.9.7.9 1.1l.2-.1c.7.5-.4 1.2-.8 1.2-.1 0 .1-.5-.2-.4l-.1.1-.3-.5-.4-.3s.1-.3 0-.4l-.5-.2v.3l-.2.2c-.1.2 0 .5-.5.5 0 .2.3.1.3.2l-.1.2c0 .2.2.2.3.2 0 .1 0 .2.2.2.2.1.4-.4 1 0 0 .3-.3.3-.4.4-.1.2 0 .3 0 .4-.3.3-.4.1-1-.4h-.3v-.3c-.2 0-.4 0-.4-.2-.3 0-.5.1-.7.3l-.3.5c.2.3.2 0 .4.2-.2.1-.4.3-.4.5.2.2.3 0 .5 0 .1 0 .3.3.5.3l.2-.3h.4c0-.1 0-.4.1-.3v.6a5.6 5.6 0 0 1-.5.6h-.3c-.4.1-.3.5-.6.2 0-.2-.1-.1-.2-.2-.1 0 0-.1 0-.2-.2 0-.3 0-.4-.2v-.3c-.1-.1-.3-.3-.5-.2-.1.1.3.3.2.4-.5.4-.7.6 0 .8h.5c.1.1 0 .2-.1.3 0 .1.1.3 0 .4 0 .2-.4.3-.7.4v.3l.2.3a1.2 1.2 0 0 1-.4.4l-.4-.1H43l-.2-.2-.3.1c-.4 0 0-.4-.4 0l.1.7v.4a7.7 7.7 0 0 1-.3.8.6.6 0 0 1-.9.3c-.2-.1 0-.2 0-.3 0 0-.3-.1-.2 0-.1-.3 0-.5-.4-.6l-.6.2-.1-.1-.4.2h-.3a2.8 2.8 0 0 0-.4.4l.2.2-.2.4c.5.4 1 0 1.4.3 0 .2-.2.4 0 .7 0 .2.3.4.3.4 0 .3 0 .5-.3.6-.2-.3-.4-.7-.7-.5-.4-.1.1-.3 0-.4a1.8 1.8 0 0 0-.5-.4c-.2 0-.6.2-.8.5l-.3.4h-.5c-.2 0-.1.2-.3.4l-.3.2a2.7 2.7 0 0 0-.5.9c0 .1.1 0 .1 0 .2.3-.1.4.1.6.2 0 .3-.3.4-.4.3-.3.7-.3 1-.4.1.3 0 .4-.1.5l-.4.3c0 .3.5.4.4.8l-.5.9c-.2.1-.6-.3-.7.1-.2-.2-.2-.4-.2-.6H36l-.2-.1-.2-.1.2-.3-.3-.1-.3-.6-.2-.1c-.2 0 0 .2-.2.3l-.2.2-.1.4c0 .3.6.3 1 .6.2.3-.2.5.2.6.2.1.3-.2.4-.2.2.1 0 .3 0 .5v.5l-.4.4-.1.4c.1.1.2-.2.3-.2.3.1.1.2.1.4.2.2.2-.3.4-.1.2 0 0 .3-.1.4.2.2-.1.2.1.3.2.1.6-.3.6-.5.2.2.4.4 0 .7l-.3.1-.2-.1h-.4s.3-.4-.1-.5h.3l-.4-.2h-.2c-.2 0-.3.1-.4 0a1.4 1.4 0 0 1-.5-.6c0-.2.3-.1.3-.1.1-.2-.4-.3 0-.5 0-.1-.2 0-.2 0-.2 0-.3-.5-.5-.4-.1-.3.3-.3.3-.6s-.4.1-.5-.2l.2-.2c-.2 0 0 .2-.3.3h-.4v.3l-.2.6.3.3v.3c0 .2.4.5.1.5 0-.3-.2 0-.4-.1v.4c0 .3-.3.5-.6.7 0 .2.3.1.5.3l-.4.1c0 .1.4.2.5.1l.6-.8c.5.3.1.8-.1 1.3-.1.2 0 .2.3.5v.2c.1.2.4.2.3.4l-.4.2-.1-.3-.2.1-.4-.2c-.1 0-.4 0-.5-.2 0 .5-.3.6-.5 1-.2-.2-.1-.1-.4-.1h-.2a2.7 2.7 0 0 1-.9-.3l-.7-.5c-.2 0-.4.6-.4.5 0 .2.5.3.6.3h.3s.4 0 .5.2c.2.4-.2.5-.3.6-.1.3.1.5-.3.7H29.5l-.2-.2-.1.2-.3-.2c-.6.3.2.6.6.7h.3c.2 0 .1.1.2.2.3.1.7.2.4.5-.2-.2-.5-.2-.6-.2l-.3-.2h-1.3l-.7.5c0 .2.2.5.4.3s0-.6.3-.5c0 .3.5.2.5.5.3 0 .5-.5.8-.2 0 .5-.4 1.1-.7 1.4 0 0-.2-.2 0-.4-.2.2-.4.1-.4.4 0 .2 0 .2-.3.2H28l-.4-.2c-.2.2 0 .4-.2.5.2 0 .4.2.6.1 0 .4 0 .6-.3.9l-.3.2h-.5c-.2 0-.3.3-.5.3H26c-.2 0-.6 0-.5.2 0 0 .4.4.2.4.4 0 .3-.7.9-.3-.3.5-.5 1-1 1.2 0-.3-.1-.5-.6-.4h-.4l-.3.3h-.1l-.2.3c-.1.2-.2.1-.2.4.3.3.4 0 .6-.1h.3c.1 0 .1-.3.3-.1.3.2 0 .4 0 .7.2.1.2.3-.1.3-.1 0-.3-.1-.4 0l-.1.1h-.7l-.7.8c.3.1.6-.3.8.2.2-.4.1-.8.6-.9.2.6 0 1.3-.5 2-.3 0 0-.2 0-.3-.4-.3-.4.3-.8.4h-.7l-.1.3c0 .2-.3.3-.1.5.3 0 .5-.2.8-.3.2 0 .1.2 0 .3 0 .2.2-.1.4.1-.1.2 0 .4-.3.6h-.6l-.5.5-.2-.2v.2c.2 0 0 .3-.1.3-.2 0-.2-.4 0-.3l-.3-.2c-.1 0 0 .2 0 .2l-.6.3c-.2.2.2.1.3.2.1.2 0 .6 0 .8l.4.1h-.3c-.3 0-.7.5-1 .5 0 0-.1-.1-.2 0-.1 0-.3 0-.3.2-.1.3.2.6.7.3.3.2 0 .3 0 .5l.3.1c0 .1.2.4.1.6l-.6-.3h-.3c-.2 0-.4-.3-.6 0v.1l-.8.7c0 .2.2-.1.3-.1l.3.1c.1 0 .1-.1.4.2 0-.3.1-.6.4-.6.5.4.4 1.6-.4 1.4l.1-.4c-.3 0 0 .2-.4.4H19l-.2.3-.7.1c0 .3.3.6.6.5.1 0 .2-.5.5-.3 0 .1-.3.1-.3.3v.5c-.2-.2-.3 0-.6-.1v.3c-.1 0-.4 0-.5.2l-.2.4h-.3v.5c.3.1 0-.2.3-.3l.3.1.1-.3s.3 0 .3-.2c.2.1 0 .3 0 .4.1.3.2.6-.2 1l-.2.2h-.2v.2h-.4l-.2.1s-.2-.2-.3-.1c-.2 0-.2.3-.5.3.3.2.2-.2.4 0v.5c0 .1.2 0 .1 0 .2 0 .2.5 0 .8-.1.2-.5.2-.6.4.3.2.4.4.2.8-.4-.2-.2-.5-.2-.8-.4-.1-1 .2-.7.6.3.2.4 0 .6 0 .2 0 0 .4.1.5h.2v.4l-.4-.2c-.2 0-.1.2-.3.2h-.3l-.2.3-.3.1c0 .2.3 0 .5.2 0 0 .2.3.5.4l-.3.3-.3-.1-.1.2c-.3.1-.7 0-.8.3.1.3.5.1.7.2.7.4.7 1-.3.8l-.6-.3c-.1 0 0 .3-.2.4V87c-.3 0-.3 0-.5.3-.3.2-.8.7-.1 1l1.1-.3.3.1-.4.4-.5.1v.2h-.2l-.4.6c0 .3 1.7 1 1.6.1a.9.9 0 0 1 .4.4l.1.2c0 .2-.2 0 0 .3 0 0 .3.6 0 .8-.2 0-.3-.2-.3-.2l-1-.2c-.2 0 .1.1 0 .3-.2 0-.9.2-1 0-.3.1 0 .3-.2.5h-.2s-.4.2-.3.4l.1.1v.2c0 .3.6.4.5.9-.4 0-.6-.3-1-.2h-.6c-.1 0-.5 0-.5.2 0 0 0 .2-.1.1 0 .2.3.2.4.3 0 0-.2.4-.1.5l.4.1a2.7 2.7 0 0 1 .2.4l-.3.3-.2.4c-.1.2-.6.5-.2.7h.3v-.3l.4-.4c.2.2-.1.8.4.8.2 0 0-.2.3-.3.2.1 0 .3 0 .4v.3l-.5.2h-.2c-.2.1 0 .2-.3.3l-.5.4c-.1.1.1.3.1.4 0 .2-.2.2-.2.3 0 .2 0 .4-.4.7l-.3.4c0 .1-.4 0-.2.4.3-.2.5-.7 1-.5-.2-.2-.2-.5.2-.4-.2.5-.5.6-.5 1 0 .3.5.5.2.8h-.3l-.2.1h-.1c-.2.1 0 .5 0 .6l-.2.2c0 .3.3.4.2.7l-.1.2c-.1.2 0 .3 0 .4h-.6c0 .2.3.3.3.4v.2l.1.2s-.2 0-.3.3l.1.4c0 .4-.3.8-.7 1 .3.2.2.3.2.6l.2.2c0 .2-.3.4-.4.6v.3l-.2.2v1c0 .6-.2 1.1-.3 1.6-.9-.3-.2-1.2-.4-1.7a1.1 1.1 0 0 0-.5.4c-.2.3 0 1-.8.7 0 .1.2.1.1.3v.3l-.2.1v.5l-.1.2v.3l-.1.3.2.7a1.9 1.9 0 0 1-.2.7c-.1.2-.4.2-.4.5s.2.3.3.5v.4c0 .4-.5.7-.6 1l.2.9-.2.6v.8l.1.3s-.4.1-.3.3l.4.3c0 .1-.4 0-.5.3a2.7 2.7 0 0 0 .2.7l.3.5-.2.7-.3 1-.3.3c0 .2.2 0 .4.1.2.3-.3.4-.4.6l-.1.3h-.2v.2h-.6c.3.4-.2 1 .5 1 0 .5-.3.5-.8.4-.1.3 0 .7-.3.8-.2.5-.3 1.3.2 1.2-.3-.5.4-1 0-1.1l.3-.3c.2 0 .2.3.3.4l.1.1c.1.4-.2 1-.3 1.3-.2-.3-.4-.5-.7-.4-.4.2-.3 1-.2 1.2h1a1.6 1.6 0 0 1 0 .5c0 .2 0 .1-.2.3l-.2.4h-.4c-.6.4 0 1 0 1.7h-.4l-.2 1.4c.5.1.3-.3.4-.4h.3v-.3c.2.1 0 .5.1.7l.3.2c0 .4-.3.6-.8.7H3v.6c0 .3.3.3.7.5-.2-.3 0-.5 0-1 .2 0 .3.3.4.4.2.3.4 1 0 1.5-.3-.2 0-.4-.2-.7l-.3.2s-.2-.1-.2 0c-.2 0-.1.2-.2.3-.3.1-.4-.1-.4.2l-.2.3.2.8c.5.1.4-.5.8-.3l-.1-.2-.5-.3c0-.2.3 0 .4 0l.4.1c.2.3-.1.3 0 .7v.5h-.1l-.2.2H3l-.2.5c0 .2-.2.2 0 .3 0 .1 0 0 .2 0 0 0 .1.2.3.1l.2-.2-.2-.1c0-.2.2-.2.4-.3l.4.7c0 .3.1.9-.3 1-.2-.3 0-.3 0-.7l-.7.4c-.2 0-.3.4-.4.8 0 .2.2.2.2.2v.5c.2 0 .2-.3.3-.4h.3l.1.3c.2.3.3.1.3.3 0 .3-.3.2-.4.5-.2 0-.2-.2-.3-.2-.3 0 0 .4-.3.8h-.1v.2l-.2.2s.4.3.3.4l.2-.3c.6 0 .4.7.5.8-.2.3-.2-.1-.4 0 0 .4-.2.7 0 1 .1.2.3 0 .2 0 .3 0 .4.4.4.5l-.4.5c0 .2 0 .2-.3.2v-.1a.4.4 0 0 0-.1-.3c-.2-.1-1.4 0-1.8.3-.2.3.3.4 0 .7.6.1.2-.6.7-.5 0 .4 0 .7.2 1-.5-.2-1 0-1.2.5 1.2 0 1.8.5 1.5 1.6.6-.4.7.3.9.1a3.4 3.4 0 0 1-.7-1.4v-.7h-.2c.3-.2.6-.7.6-1h.3c0 .2-.2.3-.1.6 0 .3.3.4.3.6l-.2.1a.6.6 0 0 0 0 .2h.2l.1.3.3.2.1.6c0 .2.3.4.1.9l-.2.2c0 .1.1.3 0 .4l-.2.1.1.4a1.1 1.1 0 0 0 .2 0v.5c0 .2-.1 0-.3.1 0 0 0 .2-.2.2h-.4l-.4.2c-.2.2-.5 0-.7.1 0 .2.3.1.2.1l.4.4c.2 0 0 0 .2.2 0 .2 0 .4.5.3v-.4l-.4-.3a1.2 1.2 0 0 1 .3-.4c.5-.2.7.3.8.7l.3.8-.1.4v.6c-.2.2-.5.2-.5.5 0 .2.2.1.3.4v.6H3l-.7.4c-.1.2.6.4.9.5.3 0 0-.3 0-.4l.2-.1.2-.2a.9.9 0 0 1 .6.3v.3l.2.3-.1.8c-.5.2-.6-.5-.8-.7-.3.2 0 .3-.3.5H3l-.3.2h-.4c-.2.2-.4.3-.4.5s.1 0 .1 0h.3l.3-.2c.4.1.3.4.3 1 .3-.1.4-.5.7-.7H4c0-.1-.1-.4 0-.4.3 0 .4.1.4.2 0 .3-.3.7-.3.8.1.4.6.2.5.7 0 .1-.4.1-.5.3 0 .2.2 0 .3.2.2.2.2.5.3.7 0 .1.4.4.3.9 0 .1-.3.3-.3.5l.3.3c0 .2-.2.3 0 .4a.5.5 0 0 1 .2.2h-.3c-.1.6-1.6.4-1.4 1.3 1 0 1.5.2 1.7.6.3.5-.6.5-.7.6l-.1.2c-.5.3-1.3.3-1.8.5-.2.1-.3.4-.5.4l-.6.1c-.4.5-.2 1.3.6 1.1 0-.6-.1-1 .5-1.3h.8c.3-.2.3-.6.6-.5.3.5 0 1.2.4 1.8a1.6 1.6 0 0 0-.3 0c-.2.2-.3.3-.3.6 0 .1.3 0 .4 0 0 0 0 .6.2.7l1-.2v-.4a2 2 0 0 1 0-.5h.5c.2 0 .4.5.4.7 0 .4 0 .6.2 1h-.3c.3.5-.1.9.1 1.3l.4.4h-.1c-.2 0-.1.1-.2.2H6c-.1.1-.2.2-.1.5 0 0 .3 0 .5.2v.2c.3.5.8.7.7 1.4l-.4-.4c-.1.2-.3.1-.4.2 0 0-.2.3-.4.3h-.4l-.2.2H5c-.3.2-.3.4-.6.4.5 0 .7-.3 1-.2.2 0 .3.6.4.7 0 .1.2 0 .2 0 .1.1 0 .4.2.3.3-.4-.4-.8-.1-1.2.5-.1.7.5 1 .9 0 .2.2.3.2.7 0 .4 0 .8-.4 1-.2-.2 0-.4-.1-.5-.3-.3-.8 0-.8.3 0 .4.3.8.3 1.1.4-.1.2-.6.4-.8l.3.1-.2.2.2.1.3.5c-.1.2-.4.2-.6.3-.3.2-.4.5-.7.6l.2.2h.3l.1.4s.6-.2.6 0c.2-.2-.1-.5-.2-.7l.3-.1c.6.4.8.6.9 1.3l-.2.2a1.7 1.7 0 0 0-.2-.5c0 .4-.7.3-.9.5v.4s-.2 0-.2.2l.3.8c0 .2.2.5.4.6.4-.3.4-.7 0-1 .6 0 .7-.5.6-1v.2c.1.1-.2.9 0 1.1.3.2.6 0 .8.1.1.2-.2.2-.3.4v.1h-.2v.3l-.5.1c0 .2 0 .5.2.8.4-.1.4-.5.8-.6.3.3.8 1 .6 1.5-.3-.1-.5-.4-.6-.8a2 2 0 0 1-.9 1.1c.1.1.1 0 .2 0h.1l.2-.1c.2 0 .4.1.6.4a.4.4 0 0 0 .2-.3c.2 0 0 .3-.2.3 0 .1.2 0 .3.2.1.2 0 .5.2.8-.3.2-.5 0-.6-.2-.2.2 0 .5 0 .8-.1.3-.2.1.2.3l.2.2-.2.5.1.1h.5c.2-.2 0-.3 0-.5.5-.1.6.5.7.9-.3.1-.2-.4-.5-.4-.1.4-.7.8-1 1h-.4c-.3 0-.1 0 0 .3 0 0-.2.2 0 .3H9c.3 0 .3.4.7.3-.2-.2-.5-.2-.4-.7 0-.4.4-.2.7-.1.3.1 0 0 .3.4s.3.3.4.8v.4c0 .2-.2.3-.3.4 0 .2.1.3.3.4h.1c.2.1.5 0 .5.2 0 .3-.9.4-.6.9-.6.2-1.7 0-1.3.8.3-.1.7-.4 1-.3l.1.2s.2-.1.2 0c.1 0 0 .4.4.2.1-.2-.3-.4-.3-.7l.2-.2c.1-.1.2 0 .4.2a1.3 1.3 0 0 1 .7 1.1v.2l-.2-.1c-.1-.1-.1-.5-.5-.3.1.2 0 .3 0 .4l-.6-.2c0 .4-.2.7-.7.7 0 .2 0 .4.4.3.3 0 .2-.2.3-.3a.7.7 0 0 1 .3-.2v.3l-.2.3c0 .2.2.5.7.5.4-.2 0-.4.2-.7l.4-.2v.3l-.2.2c.1.3 1 .2.6.7l-.2.1c-.2.4.1.3-.1.4-.2.1-.2 0-.3-.1-.3.2.2.7-.2.9-.2-.2 0-.4 0-.5 0 0-.3 0-.1-.3l-.3.2.2.2c0 .2-.2.3 0 .6.5-.5.7.2 1.1 0 .2-.2 0-.4 0-.6.3-.2.5.1.8.4l.2.4c0 .2.2.1.2.3l-.1.2c0 .2.2.4.1.6-.3 0-.6-.3-.4-.7-.3 0-.2.3-.2.3H13c0-.1 0-.4-.2-.4l-.4.2v-.2c-.3.2 0 .2 0 .4l-.1.1v.2s-.4 0-.1.1a1.3 1.3 0 0 0 .3.2c.2.1.5.1.6.7.2-.3.6-.3.5-.5.3 0 .4.3.6.4-.5 0-.4.5-.8.8-.2 0-.4-.2-.3-.4-.3.2.2.4.3.7 0 .2-.3.3-.1.5.1.2.2 0 .5-.1.2 0 0 .2.1.3.2 0 0-.1 0-.1.2-.2.4.1.5 0 .2-.3 0-.3 0-.6.5 0 .7.5 1 1-.3 0-.4-.3-.6-.2 0 .3-.2.6-.7.6 0 .4.5 1.1.9 1.1l.2-.1c.2-.1-.1-.2.2-.3 0 .4.3.3.6.3.2.1-.2.2-.2.1-.1.2 0 .3-.3.5-.2.2-.1.3-.1.6 0 .1-.2.5.1.6l.3-.2s0 .2.1.1c.2 0 .6-.2.4-.4.1 0 .4 0 .5.2l-.2.7v.3c0 .1-.1-.2-.3-.1v.2l-.4-.1v.3h.8l.4.2c.2 0 0 0 .2.3l.6.5c0 .2-.5.7-.6.7-.2 0-.2-.4-.4-.2-.3.2-.2.4-.2.4l.3.2.2.1c.1 0 .3-.2.4-.1l.2.3c.3.1.4-.2.5-.1a.8.8 0 0 1 .2.5l-.3.8H18c0 .4.1.7.5.8.1-.3-.3-.3-.2-.6.3-.2.7 0 1 .2l.2.4c0 .2.3.3.2.4 0 0-.3.1-.2 0l-.2.2h-.1c-.3 0 0 0-.2.3 0 .2-.4.2-.1.5h.2v.3c.4.2 1.2-.1 1.2.2 0 0-.2.3 0 .3l-1 .4c-.2.1-.3.3-.2.5h.8c.1 0 0-.3.2-.3.4 0 .4 0 .8.3.5.3 1 .6.4 1.1.1 0 0-.3-.3-.1 0 0-.1.2 0 .1h-.3a1 1 0 0 0-.3.2v.3c0 .2-.4 0 0 .4.2-.2.5 0 .8.2.3-.2 0-.5.5-.7.2.1 0 .2.1.3.2.3.6.2.6.7l-.2.3s.2.1.2.3l-.2.3h-.3l-.2.1c-.2.1-.5.1-.3.6.5-.2.8 0 1 .3.3-.2 0-.6 0-.9.3-.3.5-.2.8 0l.6.9c-.4 0-.6.4-.9.5-.1 0-.2-.4-.3 0-.1 0 0 .1 0 0-.2.4-.8.8-.2 1 .1-.1.2-.3.5-.4l.4.5.3-.3c.2-.2 0-.1 0-.3l.2-.3c-.1-.2-.4 0-.5-.3l.5-.2c0 .2.2.3.3.5l-.1.1c0 .2.1.3.2.3.2 0 .4-.2.5 0 0 .2-.1.2-.2.3 0 .2 0 .1-.3.4-.3.3-.1.6-.7.7 0 .2.2 0 .4 0v.3h.3c.2 0 .2.3.5 0 0-.2-.4-.7-.2-.9.2-.2.8.2 1 .4l.1.2a2 2 0 0 0-.5 0c.1 0 0 .2 0 .2 0 .2-.4.4-.6.7v.7l-.3.3v.4c.9-.6.8.8 1.3 1l.4-.2c.8-.2.4-.3.3-1.1v-.6a.9.9 0 0 1 .2.2v.5c.2.2.7.2.8.2.1.1 0 .2 0 .2a1.5 1.5 0 0 0-.2.3h-.5l-.1.4c-.2.1-.8.2-.7.6.2.2.4 0 .6 0 .3.1.4.5.7.6.3-.2-.2-.6-.3-.7h.3c.3-.2.4 0 .7 0h.2l.5.4.3-.1c.1 0 0 .2 0 .2h.3l.1.4c0 .2-.1 0-.2.1-.2.2 0 .4-.4.4-.2 0-.2-.3-.4-.3l-.2.2-.2-.1h-.5l-.1.4c.2.2.3 0 .5.1l.1.3c.2.3.5.2.4.4l.4-.4H29.3l.2.3-.5.5c-.1 0-.5 0-.5.3a1.4 1.4 0 0 0 .3.4h.3c.2.2.4.6.7.3 0-.3-.4-.5-.2-.8.5 0 1 .4 1.3.8.4-.1-.1-.4.2-.5l.8.6v.6h-.4s-.2 0-.3-.2c0 0 0-.3-.2-.3h-.3c-.1 0 0-.1-.2 0-.3 0 0 .2-.1.3-.2.2-.3-.2-.4 0 0 .3.3.3.4.4l.5.4.6.2.3.1c0 .2-.2.2-.3.4v.3c0 .2-.2.5 0 .7l.3.1.3-.3.7.2s0 .5-.2.5c0 0-.2.1-.2.3l-.1.4-.1.1c.3.2.2 0 .3-.2 0 .2.5.2.3 0 .3-.2.2.1.4.2h.7c.2 0 .2.3.4.6-.1 0-.3 0-.4.2-.1.2.2.4.1.6v.4c-.1.1-.4.2 0 .4.1.1 0-.2.2-.3l.2.2c.3 0 .6-.1.8 0 .2 0 .2.3.5.3-.4.1-.3 0-.5.4-.2.2 0 .4.2.3a1 1 0 0 0 .3-.1c0 .5.3.6 1 .8-.1.4-.4.9 0 1 .3.1.5-.2.8-.3 0-.2-.3-.1-.4-.3v-.5c0-.2-.2-.3-.3-.4v-.5c0 .2.3.1.3.1l-.4-.5h-.2v-.1h-.2l-.2.1v-.4c0-.1.6-.2.3-.5.8.3.4 1.3 1 1.6l-.4.1c0 .3.3 0 .4.1.1 0 0 .2 0 .2h.2v.5c.1 0 .2-.2.3-.1v.5c0 .1-.2 0-.2 0l.1.2c-.2.2-.2.1-.4.1-.2.3 0 .2.2.4l-.3.3.9.5c.2-.2 0-.4.3-.6 0 .3.2.4.3.6l-.1.3c0 .1.2 0 .3.2v.1c.2.2.6.1.7.4-.3 0 0 .3-.4.5.4 0 .5.5.7.6 0 0 .6-.2.6.1l-.2.1.2.2-.6.5c-.3.4-.6.5-.3.9h.4a2.7 2.7 0 0 0 .8-.2c0-.1-.4-.2-.3-.5.3-.3.6-.2 1 .1l.7.9c0 .1-.2.3-.1.5 0 0 .3-.1.4 0v.3c.2.3.8.3.8.8-.2.3-.2-.1-.5 0l-.3.3-.2-.2H42s.1-.1 0-.2l.5-.1c0-.4-.5-.6-.6-.7 0-.1.2-.5 0-.6-.4 0-.4.3-.7.3.1-.1.2-.3 0-.4l-.2.3h-.5l-.2.4c0 .2.4.2 1 .5l.4.3c-.1.3.2.1.3.3l-.3.4.2.3h.6l.4.2h.6c0-.2-.7-.7 0-1l1 .5.4.5h.1l.3.7c-.2.2-.1 0-.3-.1H45l-.4-.1h-.2c-.2-.1 0-.2-.2-.2-.1 0-.4 0-.3.3l.4.5.1-.2.3.1h.7l.4.3.4.1c0 .2-.2.1-.3.2-.2.2-.2.4-.6.4-.4-.1-.3-.4.2-.8-.2-.2-.1 0-.4.1-.3.1-.5-.2-.8.4.2.1.6-.2.6 0 .2.2-.2.2-.2.3 0 .2.1.2.2.2h.2l.1-.1c.3.1.2.3.3.5.3.5.4.3 1 0 0 0 0 .4 0 0 .1-.1 0-.2-.3-.4.3-.5 1.1 0 1.4.2l.5.5.1.4h.3c.3.3.3.7.7.4l-.1.3-.3.4c-.2.2-.5-.1-.8.2.1-.2-.4-.5-.3-.6 0-.2.3-.3.4-.5 0-.5-.4 0-.6 0l-.2-.4s-.3-.1-.4 0c-.2 0-.1.2-.2.3h-.4c.2.5.7.2 1.1.6.2.2 0 .1 0 .4l.6.4c.3.3.2.8.6.3.1.2.2.6.5.6.2-.2 0-.3 0-.4.3-.1.2.5.6.2.1-.3-.2-.4-.1-.6.3-.2.4 0 .8 0 .3.1.8.3 1 .8H51l-.2.1-.3-.3h-.3v.5a1.3 1.3 0 0 1-.4.3c0 .2 0 .3.3.4.2-.6.5-.4 1-.1H52.2c.1 0 .2.5 0 .5 0-.2-.2 0-.3 0 0 0 0-.3-.1-.2-.2.1-.3.3-.2.5 0 .1-.2.3.1.5h-.3c-.1.2.2 0 .3.1v.2h.3c.2.2.1.5.4.5.2-.2 0-.3-.1-.5 0-.1.3 0 .1-.2.2-.2.2.1.4.2h1s-.2-.3 0-.3l.2.2v-.2c.3-.3.2.5 0 .2l-.5.3a11.2 11.2 0 0 0-.8.8 2.9 2.9 0 0 1-.1.2c0 .5.6-.1.9.1 0-.1 0-.3-.2-.4.6-.6 1.2 0 1.7.2.2 0 .1-.3.1-.3.3-.4 1 .2.7.7h-.3v.8c.5.5.7.6 1 .3.4.3-.2.4-.2.7v.1l-.3.3c0 .2.1 0 .3 0l.1.3c.1 0 .3-.1.4 0 0 0 0 .2.2.1 0-.4-.3-.1-.4-.5v-.1s.5-.4.7-.3c.2 0 .3.5.4 0 .3 0 0 .3.2.4.2 0 .3-.4.5-.1v.6l.5.5.4-.2.5.2.8.1c-.3 0-.2.4-.4.6-.1.2-.2 0-.3.4v.5l-.2.2v.1c.1 0 0 .2 0 .2.2.1.2.1.4 0 .2 0 .2-.2.4.2.3-.2-.1-.2.1-.4.2.1.4.2.5.1.1-.3-.3 0-.4-.2-.2-.2 0-.6.2-.7h.7l.1.2.3-.1.4.3a1.7 1.7 0 0 0-.1.3c0 .2.1.2.3.4 0 0 .3.6.5.7.3.1.4-.2.8 0-.3.2-.6.2-.9.5-.2.3-.2.8-.6.8 0 .2.2.2.3.3l.5-.2h.2l.3-.4c.2 0 .3.2.3-.2h-.8l.6-.3.1.2.6-.3c.1 0 1.3.3 1.3.8 0 .2 0 0 .3.3l.2.3h.6c.2-.1.3-.5.6-.6v.7l-.4.3v.2s-.3.2-.3.4h-.1l-.3.2-.3.3c0 .5.1.2.5.1.3 0 .5.2.6 0l-.2-.4h.3l.4-.5.3-.1s0-.2.2-.2l.6.3c.3.2.5.7.7 1-.2.3-.2-.2-.3-.2l-.2.1s-.2-.4-.5-.4c0 .4-1 1.1-.7 1.6.3-.3.5 0 .9-.2l.1-.2h.2a2.6 2.6 0 0 1 .8-.4c.1 0 .2.2.4 0 .2.5-.6.6-.7.8 0 .3.1.2.2.4v.1c0 .3.4.3.6.5l.2.2a3.2 3.2 0 0 1 .7-.3c0-.3-.4-.3-.5-.5.7-.9 1.7.1 2.3.4-.4.6-.7 0-1 0l.1.2h-.3c-.1.2 0 .3 0 .4 0 .2-.3.3 0 .3l.4.1h.4c.2-.2 0-.7.4-.8l.6-.3a1 1 0 0 1 .5.1v.4l-.3.1a1.9 1.9 0 0 0 0 .5l.3.2c-.1.1-.3 0-.4 0 0 .1 0 .4.2.6.1.2.3.4.6.3l.2-.3c.2-.5-.5-.2-.5-.6.3-.4.8-.6.9-.2v-.3c.3-.2.4.2.6.2 0-.3.3-.3.4-.4l.1-.1h.5l-.3.2c-.1.2.3.4 0 .5h-.1c-.2 0 0 .2.1.4-.2-.2-.5-.2-.6-.4-.3 0-.3.6-.5 1l-.5.4c-.1.2 0 .4-.2.5-.1.2-.4 0-.4.4 0 .3.4.4.6.6 0 .1-.2.3 0 .4.1 0 .4-.2.6-.5-.5-.5-.6-.7-.5-1l.2-.5h.3c.4-.2.2 0 .6.2.3.1.8 0 .8 0 .2-.3 0-.8-.2-1 .4 0 .8-.7 1.2-.2.1.2.2.2 0 .5 0 0 .2 0 .1.1-.2 0 0 0 0 .3 0 .5-.1.2.3.5.2.1.2.4.3.4.1 0 .3-.4.3-.1 0 .2 0 .1-.2.2.3 0 .3.3.3.3h.2l.3-.1.2-.2c.3 0 .4.1.6.4-.3.4-.5-.6-.8 0 0 .2.3.3.4.3.3 0 .9-.5 1.2-.4 0 .3-.2 0-.3.2.1.4.5 0 .6 0l.5.1c.2 0 .3-.1.4 0-.1.2-.3.2-.5 0-.2 0 .1.3 0 .5-.3 0-.5 0-.4.3v.2c-.1.2-.3.4-.5.4.4-.4 0-.5-.3-.6-.2.3-.5.4-.2.6.3.1.4.4.5.5v.2a1.2 1.2 0 0 0 .4.2c.3 0 0-.6-.2-.6a2 2 0 0 1 0-.2c.3-.2.8 0 .7-.3l-.2-.2c.2 0 .5 0 .6.2.3-.2 0-.2.2-.5l.7.1a2 2 0 0 1-.3.8l-.4.2c-.3.2-.6.5-.8 0-.2.4.4.4.8.7l.1.2c.5 0 .9-.1 1.1-.4 0-.2-.4 0-.6-.3a1.5 1.5 0 0 1 .7-.6c0-.2-.2-.3 0-.5 0 0 0 .2.2.3h.3l-.1.2.5.2.6-.3c0 .2.2.1.3.3 0 0-.1.1 0 .2s0 .2 0 .2c.4.1.5-.3.9-.6v.3c.2.2 0 .4 0 .7v.2c0 .3-.3.7-.3.8.1.3.7.5 1 .5l.5-.2c.1-.4-.3-.2-.6-.6.5-.9 1.5.1 1.8.6-.1.4-.5.2-.5 0-.2.2 0 .3-.1.5 0 .2.2-.1.4-.1h.3c.2 0 .4-.4.6-.2l.1.1h.5a1.5 1.5 0 0 0 0 .4l.2.1.1.4.7-.1c0-.2-.2-.1-.2-.1s0-.4-.2-.2c-.1-.3.7-.1.8.1-.2.1-.1.4-.2.5 0 .2-.2.3-.2.3 0 .1.2.6 0 .8 0 .2-.1.1-.3.3l.7.3c.2 0 .3-.3.5-.4 0 0 .3-.3.5-.2-.3 0-.1.4-.2.8l-.3.4c0 .2.1.3 0 .4v.2c-.1.3 0 .5.3.5.2-.3 0-.4.1-.7.3-.2.4.1.7 0-.2-.4-.4 0-.5-.4v-.4c.2-.5.9-.1 1.2-.2v-.3c0-.1.5-.4.7-.3a1.2 1.2 0 0 1 .4.2v.7c0 .2.6.3.8 0a1 1 0 0 0 .1 0c.1 0 .5.3.8-.4.2 0 0 .1 0 .2v.3l-.5.5-.2.6c-.1.2-.3.3-.3.5.2 0 .7 0 1-.2 0-.2 0-.5.3-.4l-.1-.3c.1-.4.4-.3.8-.3l-.1.5-.2-.2c.2 0-.4.3-.3.2-.3.4 0 1-.5 1.8l-.2-.2c-.1 0-.1.7-.3.7.6.6.8-.2 1.4-.6h.4l.3-.3c-.4-.2-.5.2-1 0a1.5 1.5 0 0 1 .7-1.4h.5l-.1.2c.3 0 .6.6 1 .3-.3 0 0-.2 0-.4h-.3c0-.1.2-.3 0-.3l-.3.1.1-.1c0-.3-.4 0-.6-.1l-.5-.2c.2 0 .5-.2.6-.1.5 0 .9.5 1.4.5 0 .2 0 .7-.5.6 0 .2.3.1.2.3l-.1.4-.2-.2v.2l-.2.1s0 .3-.2.3c-.1.1-.2 0-.3.2-.2.2-.1.5-.3.8h.2l.5-.6h.6c.3-.1.3-.2.5-.4 0-.3-.3 0-.5-.2l.2-.5c.4-.1.7.5 1 .2 0-.2-.2-.5.2-.6h.1c.3-.2 0-.4.2-.4l.6.2c-.1.2-.3 0-.5 0l-.2 1h-.2c-.1.2 0 .3 0 .4 0 0-.4.4 0 .4 0 .4-.3.6-.6.6.2.6.6-.1.7-.2h.4l.8-.6c0-.3-.4.1-.7-.1 0-1 1-.5 1.5-.6 0-.3-.4-.3-.3-.7.3 0 .3.4.5.5h.4l-.1.3c.1.1.4 0 .5.2.3 0 .4.4.8 0l.1-.1c.6 0 .4.6.6.9.4 0 0-.4 0-.4l.2-.2c.2-.2.5-.2.6 0v.6l.1.2-.1.1c0 .1.3.2.5 0l.2-.1h.9s.4-.4.7-.2v.3h.2l-.2.1c0 .4.2.6 0 1-.3 0-.3-.3-.7-.4-.3.5-.6 1-1 1.3.3 0 .4.4.6.4.3.1.7-.1 1-.1h.6c.2-.3 0-.6 0-.8-.2-.3-.3-.8-.3-1 0 .1.3 0 .4 0 0 0 0-.4.2-.4a1.3 1.3 0 0 0-.5-.1l.2-.2h.3c.2 0 0-.2.1-.4.2.2.5.2.5.6l.3-.5c.3.2.3.6.6.7-.3.2-.2 0-.3.7a.6.6 0 0 1-.2.3s.1.3 0 .4l-.1.1v.2h-.2l-.3.2s-.4.4-.3.6l.8-.2c.2 0 .4-.3.6-.5 0 0 0 .1.1 0l.3-.1c0-.3-.5-.2-.7-.2.2-.2.2-.6.5-.7h.7c.3-.4-.3-.2-.2-.6.3.1.5 0 .7.3l-.2.3c0 .2.3.3.4.5.2.4 0 0 .3-.1.2-.1 0 .3.3 0h-.2c-.1-.9 1-.8 1.6-.6l.7.3h2.2c0 .4-.4.4-.2.6-.1.2-.1 0-.2-.1l-.6.2c-.1.2.3.1.3.1v.2l.8-.3c.5 0 .6.3 1 .6v-.7l.2-.2c.1-.2 0-.5.2-.6.3-.4 1-.7 1.5-.5 0 .1-.1 0-.2 0l.1.3h-.3l-.3.2c-.2 0-.4 0-.6.3v.5c-.1.2 0 .3 0 .4 0 .3-.1.8-.3 1h-.2c0 .1 0 .5.3.5v-.2c.2 0 .3.2.3.2l.2-.2c.3-.1.6.1.9-.1-.2-.4-.8 0-1-.3 0-.2.2-.2.3-.2 0-.1 0-.3.2-.4h.5l.4.1h.6c.3.2.5.6.7.6.2 0 .2-.2.3-.3h.3l.2-.2.3.1h.3l.5-.1.2.1c.2 0 .5 0 .6.2-.5.2-.8-.3-1.1-.1-.2 0-.2.4-.3.5 0 0 0-.4-.1-.3l-.2.4c-.4.4-.8.9-1 .8-.5 0 0 .1 0 .2.4.1.2.3.1.4 0 .1 0 0 0 0 .2.1.1.3.3.3v-.3h.3l.4-.1c.2 0 .1.2.3.2.3 0 1-.4 1.1-.6.3 0 .6.1.7-.1-.1-.2-.6-.3-.8-.1l-1.4-.1v-.4c.3-.3.5 0 .8-.1l.3-.3s.2.2.3.1v-.2h.2c.3.3.6 0 .8.3.2.1.1.4.4.5.3 0 .5-.3 1-.3l-.1.5c-.1.2-.5.2-.7.4l-.2.1c-.4.6 0 1.6-.5 1.8-.2 0-.1-.3-.3-.3h-.3c0 .2.2.1.2.3 0 .3-.2.1-.3.3l-.1.7.1.4c.3-.1-.1-.3 0-.7.2 0 .1.4.3.4h.2a2.3 2.3 0 0 0 .2-1c.3 0 .1.2.1.4h.3c.3-.1-.1-.2 0-.4.1-.1.3.2.3-.1l-.1-.6h.1v-.2h.4v-.1h.1c.1 0 0 0 0 0l.3-.3h.2v-.2c.1-.1.5 0 .5-.3l-.2-.1c.4-.4 1.4-.5 1.6.2h-.5v.2c-.1 0-.1-.2-.2-.1 0 0 0 .5-.5.3 0 .3 0 .3.2.3h.1l.6-.1c.3 0 .2.4.5.2-.2-.3-.3-.2-.3-.5 0-.5.7-.4 1-.5 0 .2 0 0-.2.2v.4c-.1.2-.3.1-.4.3 0 0 .2.4 0 .6h-.2v.3c-.2.1-.3-.2-.4 0l.1.4v.2s.4 0 .3.4c.2 0 .1-.4.1-.3.1-.2.2-.1.3-.2l.3-.2c0-.2-.6 0-.3-.7h.2l.1-.3h.3a.7.7 0 0 0 .4-.3v-.5h.2l.8-.4c.2.2 0 .2-.1.5.3 0 .5-.2.4.3.1 0 .1-.3.3-.2-.1.3-.2.6-.1.7 0 .1.5 0 .8 0 0 0 0-.1 0 0l.4-.2c.1-.2.4-.5.6-.3 0 .3-.2.5-.5.5l.2.9h.1v.3c-.2 0-.8 0-.8.4.1 0 .4 0 .3.2l-.5.6h-.2c-.2.1-.5.7-.5.8.2.2.4-.1.6-.2l.3.2c.5 0 .4-.7.6-1.1l.5-.4c.2-.3 0-.6.2-.9h-.1a.2.2 0 0 0 .2-.1c0-.3-.1-.2.2-.3a1.5 1.5 0 0 0 .5-.3v-.3c.2 0 0 .2.3.2h.3s-.1.4 0 .4c0 0 .2-.1.2 0v.2c.2.1.3 0 .6-.1a2.1 2.1 0 0 1 .5 0c.2 0 .2.2.3.3.1.1.4 0 .2.5 0 0 0-.2-.1-.1l-.1.1h-.1l-.1.2h-.2v.7c0 .2-.2.2-.3.4-.1.3-.1.7 0 .8a.7.7 0 0 1 .2 0c.1-.1.5 0 .6-.2v-.2h.3c.2-.3 0-.6.2-.8 0-.2.2-.2.3-.4 0-.4-.3-.3 0-.6h.2v-.3c.2-.1.8-.1.9-.3.1-.4-.3-.2-.2-.5.4-.4.8-.3 1.4-.3-.2.4-.3.2-.6.3l-.2.1c-.2.2 0 0 0 .4l-.3.2v.7l-.5.5c-.1.3 0 .6-.2.8 0 .1-.3.1-.3.3 0 .4.2 0 .4.1s0 .2.1-.1l.4-.5v-.8l.1-.4.2-.1v-.2h.2l.3-.5h.6s.4-.3.6-.2l.3.4a1.5 1.5 0 0 1-.2.4c0 .1-.4 0-.5.3l.1.6c0 .4-.4.7-.5 1 0 .2.8.4.9 0l-.1-.2h.2v-.3l.1-.1.1-.6c.1-.2.5-.1.5-.4l-.2-.2v-.1c-.1-.1 0 .2-.3-.1-.2-.4.3 0 .3 0l.1-.4h.5c.3-.1.5-.5.8-.5l-.2.1v.6l-.1.3-.1.8-.4.5-.3.6c0 .1.6.4.7.1 0 0-.1-.1-.1 0l.4-.8.3-.7c.3-.2.6.1.8-.3 0-.2-.3 0-.4.1h-.6c0-.3.1-.8.4-1 .2 0 .6 0 1-.2.3 0 .4-.2.7.1 0 .3-.2.2-.3.3 0 .4.2.4.2.6 0 .4-.5.5-.5.9 0 .2.2 0 .3 0 0 .4-.5.2-.6.5l.3.5h.3c0-.3-.2-.3 0-.5.3 0 .8 0 .8-.3.1-.4-.1-.5-.2-.8.4 0 .8 0 .6-.4v-.2c-.1-.3-.3-.2-.2-.4l.4.2c.2 0 .3-.5.7-.5.2.2 0 .2 0 .4 0 0 0 .1 0 0 0 .3-.2.5-.3.7v.4l-.1.3c0 .2 0 .5-.2.6l.3.4.1-.1s.1.1 0 .2c.3-.2.3-.4.2-.6l.1-.6c0-.2.2-.4.4-.5l-.1-.4c0-.4.8-1 1.4-1l.3.1h.3l.2.5c-.2.3-.3 0-.7 0 0 .2.5 0 .4.3h-.3a1.6 1.6 0 0 0-.2.3l.2.3a.8.8 0 0 0 0 .2l-.2.1c-.3.2-.2.5-.3.7l-.2.1c-.2.3-.4 1.3-.3 1.6l.2.1c0 .1 0 .3.2.3.2-.2.2-.6.4-.7.4-.2.6 0 .6-.5-.5.2-.8 0-.9-.3-.3-.6.2-.8.6-1v-.3l.1-.1-.2-.3c.3 0 .8-.2.7-.5 0-.3.3.2.3.2.2 0 .1-.4.3-.6h.2s-.1-.2 0-.2l.6-.3v.7l-.4.1v.2c0 .3-.2 0 0 .3 0 .4-.3.4-.5.5l.1.4c.2 0 .2-.3.3-.4h.3c0 .4 0 .6-.3.7 0-.2.2-.3 0-.4l-.2.2c.1 0 0 .3 0 .2l.2.1c0 .3-.3.3-.2.7.2 0 .5 0 .6-.2 0 0 0-.2-.1-.1 0-.1.2.1.2-.2v-.2l.1-.3v-.3h.2s-.2-.1 0-.3c.1-.2.5-.3.5-.5l.2-.2-.4-.4c0-.3.3-.6.6-.7l.8-.1c0 .4-.3.3-.3.5 0 .4.4.3.3.9-.2 0-.4 0-.5.3a1.1 1.1 0 0 1 0 .3c0 .3-.2.2-.2.4.2.1.2-.2.3-.2.1-.1.3 0 .5-.3v-.3l.1-.2v-.1c.3-.2.6 0 .6-.3.1-.1 0-.2 0-.2 0-.2 0-.3-.2-.4 0-.3.2 0 .4 0s.4-.3.7-.2v1.3s-.2 0 0 .1c0 .1.1 0 .1 0l.2-.4s.4-.2.7-.1c-.1-.4-.4-.4-.3-.7l.1-.1c.1-.2.2-.1.4-.3.1-.1.5-.4 1-.4.3.1.3.4.5.7-.3 0-.4.3-.7.4-.2.1.2.1.1.4h-.1v.2l-.1.1v.3l-.1.4v.2c0 .1-.4 1 .1 1 .3 0 0-.1.2-.3.2-.1.3 0 .3-.2 0-.4-.5 0-.4-.6 0-.3.4-.5.5-.9v-.3l.4-.1.5-.5c0-.3-.4-.4-.6-.5 0-.7.1 0 .4 0l.2-.3c.3 0 .6 0 .7.3.1.2-.1.2-.2.5 0 .3 0 .9.2 1l.2-.1c.1 0 .2.1.3-.1 0-.2-.3 0-.4 0 0-.1 0-.4.2-.5.1-.2.4-.1.7-.3-.1-.2-.2 0-.3-.3l.1-.2c0-.1-.2-.3 0-.4l.7-.2.2.1c.2 0 .4-.3.6 0l-.1.2v.2l-.4.1v1.1c.5.2.3-.4.4-.6l.6-.1c.2-.2.2-.5.2-.9-.2-.1-.2.3-.4.2-.2-.1 0-.5-.3-.5h.4l.3-.2.1.2a1.2 1.2 0 0 1 .4 0v.6l.2.8c.2-.2.6-1 .8-.2.3-.1.3-.4.4-.6 0-.2-.2-.2-.4-.2 0-.5.1-.5.5-.8l.2-.2h.5c.3-.1.7-.3 1 0 0 .2 0 0 .2 0 .3 0 .2.4.7.2l.2-.2c.2 0 .1.2.3 0 0 0 0-.3.2-.3 0 0 1 .7.6-.2.7.2.7.1 1.2.4-.2-.1.2-.7.4-.7.1 0 .6.4 1 .4a.6.6 0 0 0 .4.5.8.8 0 0 1-.2.2c-.2 0 0-.2-.3-.1-.2 0-.1.6-.4.8h-.5c-.2.1-.2 1-.7.6v-.4c-.4.1-.1.4-.3.6l-.3.2c-.2.4 0 .6 0 .7l.2.3s.3-.2.4-.1l1 .4h.7a1.7 1.7 0 0 1 .4.2l.1.4.9-.2s0-.4.2-.7l.3-.3-.2-.4s.2 0 0-.1c0 0-.2.2-.3 0-.1-.5.2-.3.3-.8-.4-.2-.7 0-.8-.2 0-.3.3-.2.4-.6-.4 0-.5-.2-.6-.4.4 0 .2-.6.7-.5 0 .5.5.5.9.6 0-.4 0-.7.3-.7.4.7 1.5-.8 2-.6.2 0 0 .5.2.3 0 .3-.2 0-.3 0 0 .3.4.2.4 0 .2 0-.2 0 0-.3.2-.1.1.4.3.3.2-.1-.2-.3.2-.4v.5s.2 0 .2.2v.3c.1.3.4.5.6.4.2-.2 0-.3 0-.5 0 0 .3 0 .5-.2v-.2c.1-.2.2 0 .3-.3 0-.2.2-.3.3-.5.3 0 0 .2 0 .3 0 .1.2.3.1.4l-.1.3v.4l-.1.3v.5-.1c-.5.7-.3 0-.9-.1 0 0 0 .2-.2.2s0 .2 0 .5c0 .4-.3.4-.2.6l.5.2.3-.8c.1 0 0 .2.1-.1 0-.2.3 0 .3-.1l.1-.2c.1.2.2 0 .5 0v.2l.4-.2v-1.5c0-.4.4-.5.8-.7 0-.2-.3-.3-.1-.6 0-.1.5 0 .4-.2.2 0 .3.5.1.7l.5.3c0 .3-.1.2-.2.4v.4c-.1.5 0 .4-.3.5l.3.2c-.2 0-.4.2-.5.3-.1.3-.5.4-.4.7.6-.3.4.8.5 1l.3.1v.3h.5c.2-.4-.4-.3-.2-.6 1 0 .5-1 1-1.5-.4.4-.5-.3-.8-.3v-.6h.2c0-.3-.3-.9-.2-1 .2-.6.4-.3.9-.6-.3-.4-.6.3-1 .1-.2-.4.2-.5.4-.7.2-.2.6-.6 1-.7.2 0 .4.2.6.1.1 0 .2-.2.3-.1.1 0 .2.3.4.3l.3-.1c.2-.4.4.1.5 0l.1-.1.4-.5h.2l.5-.6a2.6 2.6 0 0 1 .5-.2h.6l.3-.1h.5a.7.7 0 0 0 0-.3c.1-.1 0-.3 0-.4h.3v-.3c0-.2 0-.3.2-.5.2-.4.3-.9.6-1.2a.6.6 0 0 1 .2.3v.6l-.5 1c-.1.1-.4 0-.4.2s.2 0 .3 0c0 .2-.2.3-.1.4 0 .4.6.4.5 1 .2-.1.1-.3.3-.5.4-.2 1-.1 1.2-.6 0-.4-.4-1-.3-1.2a1.4 1.4 0 0 0 .2-.4c0-.2-.3-.3-.2-.5.1-.3.1 0 .4-.2.2-.3 0-.3.1-.5h.4v.2l-.3.4h-.3c0 .5.2.6.3.8v.6l.1.5v.7l.1.7-.3.5v.5c.2.4.5.5.8.3l.4-.5a.8.8 0 0 1 .3-.4l-.1-.4.1-.2-.1-1 .3-.1-.2-.7.2-.2-.3-.3.2-.2c.1-.4-.2-.6-.3-.9.1 0 0-.2.2-.2s.1.2.3.3c.1.1.6 0 .5-.1a4.6 4.6 0 0 1-.2-.1c0-.2.2-.6.6-.2.2.2.2 1 .6 1.1.6.1-.2-.9.6-.6-.1-.3 0-.2.1-.4h.3v-.3c.2-.6.7-.8 1.2-.4l.3.4c.1 0 .4 0 .5.2v-.4c.3-.2.3.1.5 0 .6-.2.1-.7 1-.7v-.6l.7-.2.6-.3.7-.4.5-.4c.1 0 .2 0 .3.2.2.1 0 .4.3.5 0-.7.6.1.8 0 .3 0 .2-.3.4-.3.4 0 .6 1 .6.1 0-.3-.1-1 .3-.6a1.3 1.3 0 0 1 0-.4.5.5 0 0 1 .3-.3l.3.7c.1.2.3.2.4.3 0 0-.3.1 0 .3l.3.1c-.3.6-.4 0-.6-.3h-.4s-.2-.2-.4 0c.1.3.4.8.2 1-.2.2-1-.3-1 .2.5 0 .8.4 1.3-.2l.2.2c.2.2 0 .4 0 .7.2.2.5.1.8.5l.2.4h.1v.2l.4-.1.2-.1c0-.2-.2-.2-.3-.2h-.3v-.2c.2-.2.3 0 .6 0 0-.6-.3-.2-.5-.4-.1-.7.4-.4.6-.6v-.1c.2-.5 0-.3-.2-.8v-.4l-.4-.6-.2.1-.1-.1c0-.1 0-.2.2-.2.3 0 1.2.2 1-.5l-.8.4c-.2 0-.5 0-.6.2l-.2-.1-.5-.6c.4-.1.6-.3 1 0 0-.6.6 0 .7-.4l1 .4c.3.2.5.9 1 .7v-.4c.5-.7.7-.1 1.2 0v-.6l.6.3c0-.4.3-.6.6-.4-.2-.9.7-.7 1.2-1v-.4a1.6 1.6 0 0 1 .9.1v-1h.5l.2-.8c.4-.2.6.4 1 .2.1 0 0-.2 0-.4s.2-.4.4-.4c.3 0 .4.1.6.4.3.5.4 1.3.9 1.7 0-.2-.2-.5 0-.7 0-.2.4.1.6.1-.1-.4.2-.2.3-.4.1-.3 0-.5 0-.8h.6c.2.2.1.5.4.3l.1-.3c.2-.2.1 0 .4-.1l.6-.5c.4-.2.8.2 1.2.2.3 0 .8 0 .8-.3l.1-.2-.2-.4.6-.4c.3 0 .6 0 .8-.4 0-.3 0-.5.3-.7 0-.2.3-.3.3-.5 0-.3-.5-.6-.5-.8l-.1-.4c0-.2-.3-.2-.1-.5h.3v-.3c.3-.1.4-.2.7 0 .1.3-.1.3-.1.5 0 .3.2 0 .4 0 0 .3-.4.5-.2 1l.5-.2.2.3c.2.1.2 0 .4 0l.4.2.3.1c.2.1.5.1.7-.2l.5-.5c.2-.1.6 0 .7-.4v-.4h.4c.3 0 .5-.5.6-.8.2-.4.3-.6.3-1 .3.4.4 0 .8 0-.2-.5-.4-.1-.6 0-.1-.2 0-.4.1-.6.1-.1.3-.6.6-.3v.1c.1 0 0-.1 0-.1.3-.2.5.4.4.2.2 0 0-.2.1-.3 0-.1-.1 0-.2 0-.3-.2.1-.4.2-.4.2-.3.2-.6.4-.1l.2-.3c-.3 0-.2-.3 0-.4l.1.3c.2 0 0-.2.2-.3l.3-.1.2-.4-.1.2h.3l.2.2a2.3 2.3 0 0 0 .5 0c.3 0 0 0 0-.3a2.1 2.1 0 0 1 .5-.6l.4-.2.4-.4c.1 0 0-.2.2-.3l.3.2.2-.2s.2.1.2 0l.2-.4c0-.1-.2 0-.2 0-.3-.1 0-.3-.3-.3s-.1.5-.6.4c.4-.4.4-.9 1-1.2.3.2-.1.3-.1.5.2-.1.5.1.8.2.2 0 .1.2.3.3.1.2.3 0 .3.2s-.2.1-.3.1c.2.2.3.5.5.4.2-.2-.1-.2 0-.3 0-.2.2-.1.4-.2h.3c.1.2.1.4-.1.6.2.4.5 0 .8.2-.2.2-.3.4 0 .7l.9-.8c-.5-.2-1-.8-1.5-1a3.1 3.1 0 0 0-.3-.4c-.3-.2-.8.6-1 .1 0-.3.3-.4.6-.8a.7.7 0 0 0 .2-.2l.4-.1.4-.3h.5c.1 0 .2 0 .3-.3l.2-.4v-.2a.4.4 0 0 0-.3-.2c-.2 0-.2.4-.3.4l-.5-.1c-.2 0 0 .3 0 .4-.1.3-.4 0-.6 0-.2 0-.3.6-.6.2v.7l-.2-.1c-.2 0-.3.3-.4.3v-.2c-.2 0-.4.4-.4 0l1-.7.4-.4a1.1 1.1 0 0 0 .2 0l.2.1c.2 0-.2 0-.1-.2 0 0 .3 0 .5-.2l.2-.2h.3l.3-.3c0-.1.2 0 .2 0 .2 0 0-.2.1-.2h.2l.6-.6c.3.2 0 .5.1.6h.3c.1.2.3.6.4.5.2 0 0-.1.3.2l.2.3c.4-.3 0-.8.3-1 .2.2 0 .5.4.7a1 1 0 0 0 .2 0v.2c0 .1.2 0 .4.3.2-.2 0-.4 0-.6.3-.5 1-.5 1.4-.8 0-.2-.3-.1-.5-.2l-.3-.5c-.3-.3-1 0-1.4.1-.3 0-.4.2-.7.5-.5-.5 0-.5.6-1l.4-.2h.6c.2-.4 0-.7 0-1l.1-.4c.2.3.4.3.3.6.2.1.3-.2.4-.2v.3c0 .1.2.3.1.5 0 0-.2.2 0 .3 0 .1 0 0 0 0 .1 0 .2.3.4.3l-.1-.6c.3-.2.3.3.3.4.3 0 .6-.3 1-.4-.4-.3-1-.7-.9-1.1l-.3.1c-.6-.5.5-1.2.8-1.2.2 0 0 .5.2.4l.2-.1.3.5.4.3-.1.3.5.3v-.3l.3-.2c0-.2 0-.5.4-.5 0-.2-.2-.1-.3-.3l.2-.1c0-.2-.2-.2-.3-.2-.1-.1 0-.2-.2-.2-.2-.1-.4.4-1 0 0-.3.3-.3.3-.4.2-.2 0-.3 0-.4.4-.3.5-.1 1 .4h.3c.2.1 0 .2.2.3 0 0 .3 0 .3.2.3 0 .5-.1.7-.3l.3-.5c-.2-.3-.3 0-.4-.2.2-.2.4-.3.4-.5-.2-.2-.3 0-.5 0-.1 0-.3-.3-.5-.3l-.3.2c0 .2-.3.1-.3.1 0 .1 0 .3-.2.3l.1-.3v-.3l.5-.6h.3c.4-.1.3-.5.6-.2 0 .2.1 0 .2.2v.2c.2 0 .3 0 .4.2v.3l.5.2c0-.1-.3-.3-.2-.4.5-.4.7-.7 0-.8h-.5c-.1-.1 0-.2.1-.3 0-.1-.1-.3 0-.4 0-.3.4-.3.7-.4v-.3l-.2-.3a1.2 1.2 0 0 1 .4-.4l.4.1h.2l.2.2.3-.1c.4 0 0 .4.4 0l-.1-.7v-.5a7.7 7.7 0 0 1 .3-.7.6.6 0 0 1 .8-.3c.2.1 0 .2 0 .3h.3c.1.3 0 .5.4.6l.5-.2s.2.1.2 0l.4-.1h.3l.4-.4-.2-.2.2-.4c-.5-.4-1 0-1.4-.3 0-.3.2-.4 0-.7 0-.2-.3-.4-.3-.5 0-.2 0-.4.3-.5.2.3.3.7.7.5.3 0-.1.3 0 .4a1.8 1.8 0 0 0 .4.3c.3.1.7-.1.9-.4l.3-.5.5.2.3-.5.3-.2a2.7 2.7 0 0 0 .5-.9l-.1-.1c-.2-.2.1-.3-.1-.5-.3 0-.3.3-.4.4-.4.3-.7.3-1 .4-.1-.3 0-.4.1-.5l.3-.3c.1-.3-.4-.4-.3-.9a6.5 6.5 0 0 1 .5-.8c.2-.1.6.3.7-.1.2.2.1.4.2.6l.3-.1s0 .2.2.2h.1v.4l.2.1.3.6.2.1.1-.4h.2l.2-.5c-.1-.3-.7-.3-1-.6-.2-.3.2-.5-.3-.6-.1-.1-.2.2-.3.2-.2-.1 0-.3 0-.5v-.5l.4-.4v-.4c0-.2-.1.2-.2.2-.3-.1-.2-.3-.1-.4-.2-.2-.2.3-.4.1-.2 0 0-.3.1-.4-.2-.2 0-.2-.2-.3-.2-.1-.5.3-.5.5-.2-.3-.5-.4 0-.7l.3-.1.1.1h.5s-.3.4.1.5h-.3l.3.2h.3c.2 0 .3-.1.4 0a1.4 1.4 0 0 1 .5.6c0 .2-.3 0-.3 0-.2.3.4.4 0 .5 0 .2.2 0 .2 0 .2.1.3.6.4.5.2.3-.3.3-.2.6 0 .3.4-.1.4.2a1.3 1.3 0 0 1-.1.1c.2 0 0 0 .3-.2h.4v-.3l.2-.6-.3-.3v-.3c0-.2-.4-.5-.2-.5.1.3.3 0 .5.1v-.2l-.1-.2c0-.3.4-.5.6-.7.1-.2-.3-.1-.4-.3l.3-.1c0-.2-.3-.2-.5-.2l-.5 1c-.5-.4-.1-1 .1-1.4.1-.2 0-.2-.3-.5v-.2c-.1-.3-.4-.2-.4-.4s.4-.2.5-.2v.3l.2-.1.4.2c.2 0 .5 0 .6.2 0-.5.3-.7.5-1l.4.1h.2a2.7 2.7 0 0 1 .9.3c.3.1.6.5.7.4l.4-.4c0-.2-.5-.3-.6-.3h-.3s-.4 0-.5-.2c-.2-.4.2-.5.3-.6.1-.3-.2-.5.3-.7h1.2l.2.1h.1l.3.1c.6-.3-.2-.6-.6-.7h-.3c-.2 0-.1-.1-.2-.2-.3-.1-.7-.2-.4-.5.1.2.5.2.6.2l.3.2 1-.1.3.2.7-.6c0-.2-.2-.5-.4-.3-.2.1-.1.6-.4.5.1-.3-.4-.2-.5-.5-.2 0-.4.5-.8.1.1-.4.5-1 .8-1.4 0 .2.2.3 0 .4.1 0 .4 0 .4-.3 0-.2 0-.2.2-.2h.3l.4.1c.2 0 0-.3.1-.4l-.5-.2c0-.3 0-.6.3-.8l.3-.2h.5c.2 0 .2-.3.5-.3h.2c.3 0 .6 0 .6-.2 0 0-.5-.4-.3-.4-.3 0-.3.7-.8.3.3-.5.5-1 1-1.2 0 .3.1.5.6.4h.4l.3-.3h.1c.1 0 0-.2.2-.3 0-.2.2-.1.2-.4-.3-.3-.4 0-.6.1h-.3c-.1 0-.1.3-.3.1-.3-.2 0-.4-.1-.7 0-.1-.1-.3.2-.3.1 0 .2.1.4 0l.1-.1h.7c.3-.2.3-.6.6-.8-.2-.1-.5.3-.7-.2-.2.3-.2.8-.6.9-.2-.6 0-1.3.5-2 .3 0 0 .2 0 .3.3.3.4-.4.8-.4h.7l.1-.4c0-.1.3-.3 0-.4l-.8.3.1-.3c0-.2-.2.1-.4-.1.1-.2 0-.4.3-.6h.6l.4-.5.3.2v-.2c-.2 0 0-.3.1-.3s.2.4 0 .3c.1 0 .2.2.3.1.1 0 0-.1 0-.1l.6-.3c.1-.2-.2-.1-.3-.3v-.7l-.4-.1c0-.2.2 0 .3 0 .3 0 .7-.5.9-.5 0 0 .2.1.2 0 .2 0 .4 0 .4-.2.1-.3-.2-.6-.7-.3-.3-.2 0-.3 0-.5l-.3-.1c0-.1-.2-.4-.1-.6.2.2.3.3.6.3h.3c.2 0 .4.2.5 0v-.1l.9-.7c0-.2-.2.1-.3.1l-.3-.1c-.1 0-.1.1-.4-.2 0 .3-.1.6-.4.6-.5-.4-.4-1.6.4-1.4l-.1.4c.3 0 0-.2.4-.4h.2s0-.2.2-.3l.7-.1c0-.3-.3-.6-.6-.5-.1 0-.2.5-.5.3l.3-.3v-.5c.2.2.3 0 .6.1v-.3c.1 0 .4 0 .5-.2l.2-.4h.3v-.5c-.4-.1 0 .2-.3.2 0 0-.3-.1-.4 0v.3s-.3 0-.3.2c-.2-.1 0-.3-.1-.4 0-.3-.1-.6.3-1l.1-.2h.2l.1-.2h.4l.1-.1c.1 0 .3.2.4.1.2 0 .2-.3.4-.3-.2-.2-.1.2-.4 0 .1-.2 0-.3.2-.5h-.3s-.1-.5 0-.8c.2-.2.6-.2.6-.4-.2-.2-.3-.4 0-.8.3.2 0 .5 0 .8.5.1 1-.3.7-.6-.2-.2-.3 0-.5 0s0-.4-.1-.5h-.2c-.1-.2 0-.2 0-.4.2 0 .4.2.3.2.3 0 .2-.2.4-.3 0 0 .2.1.2 0l.3-.2.3-.1c0-.2-.3 0-.5-.2l-.5-.4.2-.3.4.1v-.2c.4-.1.7 0 1-.3-.2-.3-.6-.1-.9-.2-.6-.4-.6-1.1.4-.8l.6.2c.1 0 0-.2.2-.3v.2c.3 0 .3 0 .5-.3.3-.2.8-.7 0-1l-1 .3c-.2 0-.2 0-.3-.2l.4-.3.4-.1.1-.2h.2l.4-.6c-.1-.3-1.7-1-1.7-.1a.9.9 0 0 1-.3-.4l-.1-.2c0-.2.2 0 0-.3 0 0-.4-.6 0-.8l.3.2 1 .2c.2 0-.1-.1 0-.3.2 0 .8-.2 1 0 .3-.1 0-.3.1-.5h.2c.1 0 .5-.2.4-.4l-.1-.1v-.2c0-.3-.7-.4-.5-.9.4 0 .5.3 1 .2h.6c.1 0 .4 0 .5-.2v-.1c0-.3-.2-.2-.3-.3 0 0 .2-.4.1-.5l-.4-.1a2.7 2.7 0 0 1-.2-.4l.3-.3.2-.4c.1-.2.6-.5.2-.8 0 0-.2 0-.3.2v.2l-.4.4c-.2-.2 0-.8-.4-.8-.2 0 0 .2-.3.3-.2-.1 0-.3 0-.4a1.3 1.3 0 0 0 0-.3l.5-.2h.2c.2-.1 0-.3.3-.3l.5-.4-.1-.4c0-.2.1-.2.2-.3 0-.2 0-.4.3-.7l.3-.4c.2-.1.5-.1.3-.4-.3.2-.5.7-1 .5.2.2.2.5-.2.4.2-.5.5-.6.5-1 0-.3-.5-.5-.3-.8.1-.1.3 0 .4 0l.1-.1h.2c.2-.1 0-.5 0-.6l.2-.2c0-.3-.3-.4-.3-.7 0-.1.2 0 .2-.2v-.4h.6c0-.2-.3-.3-.3-.4v-.2l-.1-.2c0-.1.2 0 .3-.4l-.1-.3c0-.5.3-.8.7-1-.3-.2-.2-.3-.2-.6l-.2-.2c0-.2.3-.4.4-.6v-.3l.2-.2v-1c0-.6.2-1.1.3-1.6.8.3.2 1.2.4 1.7a1.1 1.1 0 0 0 .5-.4c.2-.3 0-1 .7-.7v-.6l.2-.1v-1l.2-.3-.2-.7a1.9 1.9 0 0 1 .2-.7c.1-.2.4-.2.4-.5s-.2-.3-.3-.5v-.4c0-.4.5-.7.5-1l-.2-.9c0-.3.2-.3.3-.6v-.8l-.1-.3s.4-.1.3-.3l-.4-.3c0-.1.4 0 .5-.3a2.8 2.8 0 0 0-.2-.7c0-.1-.3-.3-.3-.5l.2-.7c.1-.5 0-.6.3-1l.3-.3c-.1-.2-.2 0-.4-.2-.2-.3.3-.4.4-.5v-.3h.3v-.3c.2 0 .4.2.5 0-.2-.3.3-.8-.5-1 0-.4.4-.4 1-.3 0-.3 0-.7.2-.8.2-.6.3-1.3-.3-1.2.4.5-.3 1 .1 1.1l-.3.3c-.2 0-.2-.3-.3-.4l-.1-.1c-.1-.4.2-1 .3-1.3.2.3.4.5.7.4.4-.2.3-1 .1-1.3-.2.1-.2.1-.4 0-.3 0-.3.2-.5 0a1.6 1.6 0 0 1-.1-.4c0-.2.1-.1.3-.3l.2-.4h.4c.6-.4 0-1 0-1.7h.3l.3-1.4c-.5-.1-.3.3-.4.4h-.3v.3c-.3-.2 0-.5-.2-.7l-.2-.2c0-.4.3-.6.8-.7h.3v-.7c0-.2-.3-.2-.7-.4.2.3-.1.5 0 1-.3 0-.3-.3-.4-.4-.2-.3-.4-1 0-1.5.3.2 0 .4.2.7l.3-.2h.2c.1 0 0-.2.2-.3.3-.2.4.1.4-.2l.2-.3-.2-.8c-.5-.1-.4.5-.9.3zm.1-9.6-.1-.6c.3 0 0 .4.1.6zm-.2 2.6-.1.5c0 .1.3.3 0 .5-.2 0-.4-.9 0-1zm-.8-23.8-.3.1h-.1l.4-.1zm-5-18.5c.8-.2.3.8 0 0zm-13.8-31.8.3.2c-.3.2-.4 0-.3-.2zM182.5 8.7V9c-.2.1-.3-.3 0-.3zM146 2.8c.3 0-.1.6 0 .1zm-4.4 1c.3.3-.4.3 0 0zm-31 1c.2.8-.7 0 0 0zM51.4 37c-.3-.4.5-.3 0 0zM3.9 135.2l-.1-.2c.1-.3.4.1.1.2zm-.4 9.8c.2.2.2.4.2.6-.3.1 0-.4-.2-.6zm.3-2.6.1-.4c0-.2-.4-.3 0-.5.2 0 .3.9 0 1zm.2-11.3c-.4 0 0-.2 0-.3l-.2-.1.2-.4c0-.2-.3-.5-.3-.8l.2-.7c.7.3.5 1.7 0 2.3zm.6 35.2s.1-.2.3-.2v.1l-.3.1zm.6-41.4c-.3-.2 0-.4 0-.5V123h.1a2 2 0 0 1-.1 1.9zm.4 41.1a.5.5 0 0 1 .2-.2l.2.1-.4.1zm.4-1.4c0-.4.2-.6 0-1a17.3 17.3 0 0 0-.6-.8c-.1 0 0-.2 0-.2a1 1 0 0 0 0-.2l.2.1.2.4.5.4a1.7 1.7 0 0 1 .3 1.1l-.6.2zm1-49.3c-.3-.4.5-.4 0 0zM7 112c-.2 0-.2-.4 0-.5.3 0 0 .3 0 .5zm.4 2c-.1 0 0 0 0-.2.2 0 0 .2 0 .3zm.5-1.3c-.5 0 0-.6.1-.2l-.1.2zm.3-2.7a.5.5 0 0 0 .2.1c0 .2-.3 0-.3.3-.2 0 0-.4 0-.4zm0 1c-.1-.3.1-.3.1-.5.2.1.1.5-.2.5zm1.2 73.8c-.8.3-.2-.7 0 0zm1-74.4-.1-.3H10c0-.1-.2-.5 0-.7l.2.1h.3c.3.2 0 .8.3.9h-.5zm1-11.7c-.3 0-.2-.3-.2-.4 0-.2-.2-.6.1-.8.6.3.2.9 0 1.2zm.8-4.1c.1.4 0 .7-.4.8l-.2-.3c0-.1.4.2.3-.2l-.2-.1v-.5c.1-.2.2-.6.5-.6.2.1.2.3.2.5s.2 0 .2 0 .2.4.1.6c-.1-.3-.3.1-.5-.2zm3.8-3.8s-.3.1-.2 0h.2zM15 89c0-.2.5-.2.1-.4.5-.3.8 1 0 .4zM15 95c-.2-.1-.2-.2-.1-.4.3 0 0 .2 0 .4zm.7-2.7h-.5s0 .1 0 0c0 .2-.4.2-.6.1.3-.1.7-.2.9-.6l.3.2-.1.3zm.2-.5.1-.8s.4 0 .3-.1c.2.3-.2.6-.4.9zm.6-6.7v-.5c.2.2 0 .3.3.3 0 .1-.1.3-.3.2zm.5-.4a.6.6 0 0 1 0-.2c.4-.3.1.5 0 .2zm2.2-7.2.2-.1c.3 0-.1.2-.2 0zm.6 131.9c-.2.2-.2 0-.5 0-.1-.2.2-.2.2-.2l.1-.2c.2 0 .4.3.2.4zm1.9-136c-.6-.4.3-.6 0 0zm.2-.4v-.2h-.3c-.3-.2.1 0 .2 0 .2 0 .2-.5.4-.3-.2.3 0 .4-.3.5zm1.6 143.5c-.2 0-.2 0-.3-.2.3-.2.4 0 .3.2zM26 219a1 1 0 0 1-.3-.3v-.3.1l.3.3v.2zm.7.9c.2 0-.2.3.1.3 0 .3-.4-.3 0-.3zm.5.6c.3-.1.4.1.5.3-.3.2-.3-.1-.5-.3zm2.7 3.4c-.1 0-.1.4-.3 0v-.2c-.2-.1-.4 0-.5-.2v-.3s.2-.2 0-.4c.4-.2.2.4.3.5h.3l.1.4c.1.1.3 0 .4.3l-.3-.1zm.8-163.5V60c.4.2.1.2 0 .3zm1.5 167.2c-.6.2-.1-.5 0 0zm.7.3v-.3h-.5l-.1-.1c-.1-.1 0-.2 0-.4l-.2-.1.2-.2c.2 0 .3.4.4.5.2.1.3 0 .4 0l.1.6h-.1a.6.6 0 0 0-.2 0zm.4 1.2c0 .2 0 .3-.3.5 0-.1.1-.7.4-.5h-.1zm2 1.5c-.5.1-.4-.4-.7-.8l-.2-.1v-.2h-.3c-.1-.1 0-.3-.2-.4a2 2 0 0 0-.3.1c-.1 0 0-.1 0-.2 0-.2-.3 0 0-.4-.1-.2-.4 0-.3.1-.3 0-.2-.2-.2-.4s0-.3.2-.3a.5.5 0 0 1 .5.2l.1.3c.1 0 .6.1.6.5 0 .1-.2.3 0 .4.1 0 .1.1 0 .2a1.4 1.4 0 0 1 .4-.2c0 .4.4.5.4.8 0 0-.4.3 0 .4zm.7 1c-.2 0-.3-.5-.7-.7h.7c.2.2-.2.5 0 .8zm3.3-179.7s.2.1 0 .1c-.3.2-.4 0-.6-.5 0-.3 0-.7-.4-1-.1-.1 0 .2-.2-.1l-.3-.3c0-.3.7-.7 1-.7l.2.3-.1.4v.2l.4.6.3.6c0 .3-.4.1-.3.4zm1.2-3.6c-.3-.1-.1-.3-.3-.4.1-.1.5.2.3.4zm12.5 202c.1-.2.2.1.4 0 0 .2-.3.2-.4 0zm1 .6c.3-.1.5.1.6.3-.2.2-.6 0-.6-.3zm.5.6c0-.4.3-.1.4-.2 0 .4-.3 0-.4.2zm2.2 1.7c.3 0 .7.1.8.4-.3.1-.7-.1-.8-.4zM60 32c-.3-.4.2-.3.4-.4.1.2-.3.3-.4.4zm.6 224.4c-.4.7-.5-.4 0 0zm.6-.3c.3-.2.4.2.4.3-.2.2-.1-.2-.4-.3zm2.6 2h.2c.1.2-.1.2-.2 0zM66 27c.3 0 0 .2 0 .3.1.1.4.4.2.5l-.1-.2c-.2-.1 0 .4-.3.3-.2-.2-.3-1 .2-1zm-.4 232h.7c-.2.2-.5.3-.7 0zm3.2-230.8c-.1-.3-.2-.4.1-.5v.5zM85.6 269c0-.3.4-.3.5-.3 0 .4-.4 0-.5.3zm3.3 2c.2-.4.3.2 0 0zm4.5 2.8v.2h-.6c0-.3.2-.3.4-.2 0-.4-.5 0-.7 0-.1 0 0-.2-.2-.3l-.3.1c-.2-.1-.1-.3-.3-.5.3-.4 1.7 0 1.8.5l-.1.2zm1.4 0h-.1c-.2-.1.3-.4 0 0zm.7-258c-.1-.3.3-.2.4-.4.1.2-.2.5-.4.4zm.6 258.5-.2-.1c0-.3.3 0 .2.1zm3.5-260-.2-.2.2.1zm5 262.5c.2-.3.4.1 0 0zm2.4.8c.1-.1.5.1.4.3-.2 0-.2-.2-.4-.3zm.5-267c-.2.2-.7.6-1 .3 0-.2.2-.3.4-.4 0 0 .1.1.2 0l.2-.3c.1-.2.4-.2.6-.3.1.2-.2.5-.4.8zm.1.2h.3c.3.2-.3.1-.3 0zm.6 269.5v-.2c.1-.1.3.3 0 .2zm3-1.8c-.2.4-.5-.3 0 0zM113 8.7c0-.3.5-.4.7-.6V8h.4c0 .5-.7.8-1.1.8zm1.6-.9c-.6 0 0-.8 0 0zm-.2 1c0-.2.4-.4.6-.3 0 .2-.3.2-.6.3zm.8-.4c-.2-.1 0-.6.3-.4 0 .3-.3.2-.3.4zm5.6 272.1c-.3 0-.2-.3-.2-.6s-.3-.4-.1-.7l.4.4c0 .2.2 1-.1 1zm5.3-273c-.1-.1 0 0 0-.2.3 0 .1.4 0 .3zm1-.8h.3c0 .2-.4.3-.3 0zm.6 275c.3 0 .3.3.3.6-.3 0-.3-.3-.3-.6zm3 .5c-.1.2.2-.2.5 0-.1.3-.2 0-.4 0zM131 6.1h.5c0 .1-.6.3-.5 0zm.6 276.8c-.2-.1.2-.1.2-.1.2 0 0 .2-.2 0zm3.1 1-.3-.1c0-.3.3-.6.6-.3l-.3.4zm.5-278c-.2-.1 0-.3.2-.2l-.2.1zm.5-1.5c.1-.2.3-.2.5-.2 0 .2-.3.2-.5.2zm.4 1c0-.2.2-.2.3-.1 0 .1-.1.2-.3.2zm3.6 0c0-.2.1-.4.4-.2 0 .2-.2.3-.4.3zm3.6 278.6c0-.2.2-.2.3-.1h-.3zm0-278.5c0-.6.8-.2 1-.6.2.3-.7.5-1 .6zm1.4 280.7c-.3 0 .1-.5 0 0zm2.7-281.1c0 .2-.2.2-.3 0h.3zm-1 279c-.3-.3.6-.4 1-.5 0 .6-.8.2-1 .6zm2.7 1.1c-.3-.2.4-.2 0 0zm1.5-1.3c0-.2.2-.3.4-.3 0 .2-.2.4-.4.3zm3.7-.1c0-.2.1-.2.3-.2 0 .2-.2.3-.3.2zm.2 1c0-.2.2-.1.4-.1l-.4.2zm.8-1.4.2-.1c.2 0 0 .1-.2 0zm.4-277.9.3-.3.3.1c0 .3-.3.5-.6.2zm3.1.8c-.1 0 0-.2.3-.1h-.3zm.4 276.6s.6-.2.5 0c-.2.1-.4.2-.5 0zm.3-276c0-.3.2-.1.4 0 .2-.2-.2.2-.4 0zm3.2-.1c.3 0 .3.3.3.6-.3 0-.3-.3-.3-.6zm.5 275.5c0-.1.5-.2.4 0-.2.1-.2 0-.4 0zm1.3-.5c-.2 0 0-.4.1-.3v.3zm5.7-272c-.1 0-.4-.1-.4-.3 0-.2-.3-1 .1-1 .3.1.1.3.2.7 0 .2.2.4.1.7zm-.5 275.5.2-.3c.2 0 .4.3.3.6-.2-.2-.5-.1-.5-.3zm5.4-4.2c0-.3.4-.3.4-.5.2.2 0 .6-.4.5zm.6-.5c0-.2.3-.3.6-.3-.1.2-.4.4-.6.3zm.4.6c.6.2 0 .8 0 0zm1-.3-.1.2-.4.1c-.1-.6.7-.8 1.1-.8 0 .3-.5.4-.7.5zm2.4-270.3c.2-.4.5.2 0 0zm.6 273.6c-.2-.7.7 0 0 0zm3.6-272.8c-.1.2-.5 0-.4-.3.2 0 .2.3.4.3zm-.7 266.9h-.2c-.3-.3.3-.2.2 0zm.8.2h-.2l-.2.3c-.1.2-.4.3-.6.4-.2-.3.2-.6.4-.8.2-.2.7-.5 1-.3 0 .3-.2.4-.4.4zm2.3-266.2c-.3.3-.4-.2 0 0zm5 262.7v-.2l.2.2c0-.1 0 0-.1 0zm3.5-260.3.1.2h.1c-.1.3-.3-.1-.2-.2zm.2 259c-.1-.3.2-.6.4-.4.1.3-.3.2-.4.4zm1.1-258.4h.1c.2 0-.3.4-.1 0zm1.3.1.1-.1V15h.6c0 .2-.2.3-.4.2 0 .4.5 0 .7 0 .1 0 0 .2.2.2h.3c.2.1 0 .3.3.5-.3.3-1.8 0-1.8-.6zm4.6 2.7c-.2.4-.4-.2 0 0zm2.7 2.2c.2-.3.4 0 .6-.2 0 .2-.4.3-.6.2zm17.3 241.1v-.5c.2.2.2.4 0 .5zm2.8.7c-.2-.1 0-.2 0-.3 0-.2-.4-.4-.1-.6v.3c.3 0 .2-.4.3-.3.3.2.4 1-.2 1zM224.4 30c.2-.1.4-.2.7 0-.2.2-.5.1-.7 0zm2.4 1c-.1-.1 0 0 .1 0 .1.1 0 0-.1 0zm2.4 1.7c.1-.1.1.3.4.3-.3.3-.4-.1-.4-.3zm1 0c.4-.7.5.5 0 0zm.2 224.9c-.1-.2.3-.3.4-.4.3.4-.3.3-.4.4zm2.7-222c.3-.1.7 0 .8.4-.3 0-.7-.2-.8-.4zm2.6 2.2c-.1-.3.3.1.4-.1 0 .4-.3 0-.4.1zm.3.2c.2-.2.6 0 .6.2-.3.2-.5 0-.6-.2zm1.2.9c0-.3.3-.2.4 0-.1.2-.2-.1-.4 0zm2.1 213.2c.2.3-.5.2 0 0zm11.1-10.9c-.1.2-.5-.2-.3-.3.3.1.1.2.3.3zm1.4-1.4c.1-.1-.2-.2-.2-.4 0 0 .1-.2 0-.4v-.1a4.3 4.3 0 0 0-.3-.7l-.3-.6c0-.2.4 0 .3-.3 0 0-.2-.1-.1-.2.4-.2.5 0 .7.6 0 .3 0 .6.4 1 .1 0 0-.3.2 0l.2.4c0 .2-.7.6-.9.7zM257.3 60c0-.1 0-.3.2-.4.1.1 0 .7-.3.4h.1zm-2.7-1.7c-.2-.2.1-.6 0-.8.2.1.3.6.7.7-.3.2-.6.2-.7.1zm2.1 2.6v-.2c-.1 0-.6-.2-.7-.5 0-.2.3-.3 0-.4v-.2a1.4 1.4 0 0 1-.3.2c0-.4-.4-.5-.4-.8 0 0 .3-.3 0-.4.5-.1.4.4.7.8h.2v.3h.3s0 .3.2.4a2 2 0 0 0 .3-.1c.1 0 0 0 0 .1 0 .3.3.1 0 .4.1.2.4.1.3 0 .2 0 .2.2.2.4 0 .1 0 .2-.2.3a.5.5 0 0 1-.6-.3zm1.6 1.5c-.2 0-.3-.4-.4-.5-.2-.1-.3 0-.4 0l-.1-.6h.1a.7.7 0 0 0 .2 0v.2h.2l.3.1h.1c.1.2 0 .3 0 .4 0 .1.2 0 .2.2l-.2.2zm.1-.9c.6-.1 0 .6 0 0zm1.4 167.5c-.3 0 0-.2 0-.2.1 0 0 .2 0 .2zm1.7-162.7c-.4.3-.2-.3-.3-.4h-.3l-.1-.4-.4-.3.3.1c.1 0 .1-.4.3 0v.1c.1.2.4.1.5.2v.3c0 .2-.3.3 0 .4zm1.4 2c.2-.1.3.2.4.4-.2.1-.4-.2-.4-.4zm1 1c-.2 0 .2-.4-.1-.3 0-.4.4.2 0 .3zm.9 1.3-.3-.2V70l.4.4v.3l-.1-.2zm4.1 145.7s0 .5-.3.2c.2-.2 0-.3.3-.4v.1h.3c.3.2-.2 0-.3 0zm.2-.6c.6.3-.3.6 0 0zm1.9-136c.2-.2.2 0 .5 0 0 .2-.2.2-.2.1l-.1.3c-.3 0-.4-.3-.2-.4zm.6 131.9c0 .1-.2 0-.2 0v.2c-.3-.2.1-.3.2-.2zm2.2-7c-.4.3-.2-.6 0-.2v.1zm.4-.2c0-.2.1-.2-.2-.3 0 0 .1-.3.3-.1v.4zm1.6-10.3c.2 0 .2.2 0 .3-.2 0 0-.2 0-.3zm-1.2 4.3c0-.1.3-.2.2 0h-.2zm.1-.4s-.3 0-.2.2c-.2-.3.2-.7.4-.9 0 .2 0 .6-.2.7zm.8 2c0 .2-.4.2 0 .4-.5.3-.9-1 0-.5zm-.2-2.8-.4-.1c.1 0 0-.3.2-.4h.5-.1s.4-.2.7 0c-.3 0-.7.1-1 .5zm3-2.6c0-.4.1-.7.5-.8.1-.1.1.2.1.3 0 0-.3-.2-.2.1l.2.2a2.3 2.3 0 0 1 0 .4c-.1.3-.2.7-.5.7-.3-.1-.2-.4-.2-.6l-.2.1-.2-.6c.2.3.4-.1.6.2zm1-3c-.6-.2-.2-.8 0-1.2.2 0 0 .3.1.5 0 .2.2.6-.2.7zm1.3-11.9h-.5c-.3-.3 0-.8-.3-1l.5.1v.3h.3s.2.5 0 .6zm1.9-1.5c0 .3-.2.3-.2.5-.3-.1-.1-.5.2-.5zm0 1a.5.5 0 0 0-.3-.1c0-.3.2-.1.2-.4.3.1.2.4 0 .5zm0-2.5c.1 0 .2-.1.2-.3.5 0 0 .6-.1.3zm.7-1.4c-.3 0 0-.2 0-.2.1 0 0 .1 0 .2zm.4 2.3c-.3 0 0-.3 0-.4.2 0 .2.4 0 .4zm.2-3.8c.2.4-.6.4 0 0zM285 123a.8.8 0 0 1 0 .2.5.5 0 0 1-.1.1c-.1 0-.2 0-.2-.2h.3zm-.1 3.2c-.2-.2-.4-.2-.5-.5a1.7 1.7 0 0 1-.3-1l.5-.2h.2c-.1.3-.3.5-.1 1l.6.8-.1.1a1 1 0 0 0 .2.3c-.1 0-.2 0-.3-.2l-.2-.3zm.6 38.5v1.4l-.1-.1a2 2 0 0 1 .1-1.8c.3.1 0 .3 0 .5zm1.2-6.7c.3 0 0 .2 0 .3h.1c0 .2-.1.3 0 .4l.2.8-.2.8c-.7-.4-.5-1.8-.1-2.3zm0-4c.1-.1.2 0 .2 0-.1.3-.4 0-.2 0z"/></g><g fill="#fff"><path xmlns="http://www.w3.org/2000/svg" d="M172 52h-50a5 5 0 0 0-5 5v70a5 5 0 0 0 5 5h50a5 5 0 0 0 5-5V57a5 5 0 0 0-5-5zm0 70.8c0 2.8-1.4 4.2-4.2 4.2h-41.6c-2.8 0-4.2-1.4-4.2-4.2V61.2c0-2.8 1.4-4.2 4.2-4.2h41.6c2.8 0 4.2 1.4 4.2 4.2v61.6z"/><path xmlns="http://www.w3.org/2000/svg" d="M147 87a17.5 17.5 0 1 0 0 35 17.5 17.5 0 0 0 0-35zm0 33.3a15.8 15.8 0 1 1 0-31.6 15.8 15.8 0 0 1 0 31.6z"/><path xmlns="http://www.w3.org/2000/svg" d="M147 99.4a5 5 0 1 1 0 10.2 5 5 0 0 1 0-10.2zM147 63.7a8.3 8.3 0 1 0 0 16.6 8.3 8.3 0 0 0 0-16.6zm0 15a6.7 6.7 0 1 1 0-13.4 6.7 6.7 0 0 1 0 13.4z"/></g><path fill="#fff" d="M121.4 204.1c.3.8 0 1.3-1 1.3H110c-.6 0-1-.2-1.3-1l-2.4-7.3H87.2l-2.4 7.4c-.2.7-.7.9-1.3.9H73c-.8 0-1.2-.5-1-1.3l18.8-51.2c.2-.6.7-.9 1.3-.9h9.1c.6 0 1.3.3 1.5 1zm-30.7-17.4h12.2l-6.1-18.5zm71.6-33.8c.2-.7.6-.9 1.3-.9H174c.8 0 1.2.5 1 1.3l-18.8 51.2c-.2.6-.8.9-1.5.9h-9.1c-.6 0-1-.3-1.3-1l-18.7-51.1c-.3-.8 0-1.3 1-1.3H137c.6 0 1 .2 1.3 1l12 36.2zm58.6-.9c.6 0 1.1.5 1.1 1.1v8.6c0 .7-.5 1.1-1.1 1.1H207v41.4c0 .7-.5 1.2-1.2 1.2h-10c-.7 0-1.2-.5-1.2-1.2v-41.4H181c-.7 0-1.1-.4-1.1-1.1V153c0-.6.4-1.1 1.1-1.1h40zM91.4 234.3a4.2 4.2 0 0 1-4.4-4.4c0-2.8 1.9-4.5 4.4-4.5 2.5 0 4.4 1.7 4.4 4.5 0 2.7-1.9 4.4-4.4 4.4zm0-1.7c1.5 0 2.6-1 2.6-2.7 0-1.8-1.1-2.8-2.6-2.8s-2.6 1-2.6 2.8c0 1.7 1.1 2.7 2.6 2.7zm8.6-4.7c1.6 0 3 1.2 3 3.2s-1.4 3.2-3 3.2c-.8 0-1.6-.3-2-.9v3.8h-1.6V228H98v.9c.4-.7 1.1-1 2-1zm-.4 5c.9 0 1.6-.7 1.6-1.8s-.7-1.8-1.6-1.8c-1 0-1.7.7-1.7 1.8s.8 1.8 1.7 1.8zm9.5-1.9v.4h-4.6c.1 1 .8 1.5 1.6 1.5.6 0 1.1-.3 1.3-.8l1.6.2c-.4 1.3-1.5 2-2.9 2-2 0-3.3-1.2-3.3-3.2s1.4-3.2 3.3-3.2c1.7 0 3 1 3 3.1zm-3-1.9c-.8 0-1.4.4-1.5 1.2h2.8c0-.8-.6-1.2-1.3-1.2zm7-1.2c1.5 0 2.3.8 2.3 2.1v4.2h-1.7v-3.8c0-.8-.5-1.1-1-1.1-.8 0-1.4.4-1.5 1.5v3.4h-1.7V228h1.7v.7c.5-.5 1.1-.8 2-.8zm6.7 0c1.6 0 3 1.2 3 3.2s-1.4 3.2-3 3.2c-.8 0-1.6-.3-2-1v.9h-1.6V225h1.7v3.8c.4-.6 1.1-.9 2-.9zm-.4 5c1 0 1.7-.7 1.7-1.8 0-1-.8-1.8-1.7-1.8-.9 0-1.6.7-1.6 1.8s.7 1.8 1.6 1.8zm8.8-.4c0 .8.1 1.2.2 1.5v.2h-1.6l-.2-.7c-.4.6-1.2.8-2 .8-1 0-1.8-.4-1.8-1.7 0-1.3.9-1.7 2.2-2l1-.2c.4-.1.6-.3.6-.5 0-.6-.6-.8-1-.8-.7 0-1.1.2-1.2 1l-1.6-.3c.3-1.3 1.2-1.9 2.8-1.9 1.3 0 2.6.4 2.6 2.2v2.4zm-3 .6c.8 0 1.5-.5 1.5-1.7l-1.5.4c-.5 0-.8.3-.8.7 0 .4.4.6.8.6zm8.8-.6c0 .8.1 1.2.2 1.5v.2h-1.6l-.1-.7c-.5.6-1.3.8-2 .8-1 0-2-.4-2-1.7 0-1.3 1-1.7 2.3-2l1-.2c.5-.1.6-.3.6-.5 0-.6-.5-.8-1-.8-.6 0-1.1.2-1.2 1l-1.5-.3c.2-1.3 1.1-1.9 2.8-1.9 1.2 0 2.5.4 2.5 2.2v2.4zm-3 .6c.8 0 1.5-.5 1.5-1.7l-1.5.4c-.4 0-.8.3-.8.7 0 .4.4.6.8.6zm5.5-4c.3-.6 1.1-1.1 2-1.1v1.5c-1.3 0-2 .4-2 1.7v3h-1.7V228h1.7v1zm6.4 3.5h2.7v1.6h-4.5v-8.7h1.8v7zm7-4.6h1.8l-3.8 9H146l1.4-3-2.5-6h1.9l1.5 4zm4.6 6.3c-2 0-3.3-1.3-3.3-3.2 0-2 1.3-3.2 3.3-3.2 1.5 0 2.7.8 3 2.3l-1.6.1c-.2-.7-.7-1-1.4-1-1 0-1.6.7-1.6 1.8 0 1 .6 1.8 1.6 1.8.7 0 1.2-.3 1.4-1l1.6.1c-.3 1.5-1.5 2.3-3 2.3zm9.1-3.3v.4H159c.1 1 .8 1.5 1.6 1.5.6 0 1.1-.3 1.3-.8l1.6.2c-.4 1.3-1.5 2-2.9 2-2 0-3.3-1.2-3.3-3.2s1.4-3.2 3.3-3.2c1.7 0 3 1 3 3.1zm-3-1.9c-.8 0-1.3.4-1.5 1.2h2.8c0-.8-.6-1.2-1.3-1.2zm7.5-1h1.7v6h-1.6v-.7c-.5.6-1.2.9-2 .9-1.5 0-2.3-.8-2.3-2.1V228h1.7v3.8c0 .8.5 1.1 1.1 1.1.7 0 1.4-.4 1.4-1.5V228zm9.9-.2c1.3 0 2.2.7 2.2 2v4.3h-1.8v-3.9c0-.7-.4-1-1-1s-1 .3-1 1.4v3.5h-1.8v-3.8c0-.8-.5-1.1-1-1.1-.6 0-1.2.3-1.2 1.5v3.4h-1.7V228h1.7v.8c.4-.6 1-.9 1.8-.9.9 0 1.6.3 1.9 1 .4-.7 1-1 1.9-1zm7 4.7h4.2v1.6h-6.3v-1.4l4-5.7h-4v-1.6h6.2v1.5zm10.5-1.6v.4h-4.6c0 1 .8 1.5 1.6 1.5.6 0 1-.3 1.3-.8l1.6.2c-.4 1.3-1.5 2-2.9 2-2 0-3.3-1.2-3.3-3.2s1.4-3.2 3.2-3.2c1.8 0 3 1 3 3.1zm-3-1.9c-.8 0-1.4.4-1.5 1.2h2.8c-.1-.8-.6-1.2-1.3-1.2zm4.3-2a1 1 0 0 1-1-1c0-.5.4-1 1-1 .5 0 1 .5 1 1 0 .6-.5 1-1 1zm-.9 7v-6h1.7v6H196zm4.8.2c-1.4 0-2.4-.6-2.7-1.7l1.5-.4c.2.6.6.9 1.2.9.4 0 .9-.1.9-.6 0-.7-1-.7-2-1-.7-.3-1.4-.7-1.4-1.7 0-1.3 1-1.9 2.4-1.9 1.2 0 2.2.5 2.4 1.6l-1.3.3c-.2-.5-.6-.7-1.1-.7-.5 0-.8.1-.8.5 0 .5.7.6 1.4.8 1 .2 2 .7 2 2 0 1.4-1.2 1.9-2.5 1.9zm5.2-.1c-1.2 0-2-.7-2-2v-2.8h-1.1V228h.4c.6 0 1-.2 1-1.1v-.8h1.5v2h1.3v1.3h-1.3v2.7c0 .5.3.8.7.8h.6v1.3h-1.1z"/></svg>